<?xml version="1.0" encoding="UTF-8" standalone="no"?><svg xmlns="http://www.w3.org/2000/svg" xmlns:xlink="http://www.w3.org/1999/xlink" contentStyleType="text/css" height="552px" preserveAspectRatio="none" style="width:331px;height:552px;background:#FFFFFF;" version="1.1" viewBox="0 0 331 552" width="331px" zoomAndPan="magnify"><defs/><g><ellipse cx="114.5" cy="16" fill="#222222" rx="10" ry="10" style="stroke:none;stroke-width:1.0;"/><rect fill="#F1F1F1" height="35.0938" rx="12.5" ry="12.5" style="stroke:#181818;stroke-width:0.5;" width="156" x="36.5" y="67"/><text fill="#000000" font-family="sans-serif" font-size="12" lengthAdjust="spacing" textLength="136" x="46.5" y="89.457">Recieve create user data</text><g id="elem_#5"><polygon fill="#F1F1F1" points="114.5,143,126.5,155,114.5,167,102.5,155,114.5,143" style="stroke:#181818;stroke-width:0.5;"/></g><rect fill="#F1F1F1" height="35.0938" rx="12.5" ry="12.5" style="stroke:#181818;stroke-width:0.5;" width="169" x="7" y="222"/><text fill="#000000" font-family="sans-serif" font-size="12" lengthAdjust="spacing" textLength="149" x="17" y="244.457">Throw Email already in use</text><rect fill="#F1F1F1" height="35.0938" rx="12.5" ry="12.5" style="stroke:#181818;stroke-width:0.5;" width="108" x="196.5" y="222"/><text fill="#000000" font-family="sans-serif" font-size="12" lengthAdjust="spacing" textLength="88" x="206.5" y="244.457">Hash password</text><rect fill="#F1F1F1" height="35.0938" rx="12.5" ry="12.5" style="stroke:#181818;stroke-width:0.5;" width="143" x="179" y="298"/><text fill="#000000" font-family="sans-serif" font-size="12" lengthAdjust="spacing" textLength="123" x="189" y="320.457">Save user in database</text><rect fill="#F1F1F1" height="35.0938" rx="12.5" ry="12.5" style="stroke:#181818;stroke-width:0.5;" width="149" x="176" y="374"/><text fill="#000000" font-family="sans-serif" font-size="12" lengthAdjust="spacing" textLength="129" x="186" y="396.457">Generate token for user</text><rect fill="#F1F1F1" height="35.0938" rx="12.5" ry="12.5" style="stroke:#181818;stroke-width:0.5;" width="90" x="205.5" y="450"/><text fill="#000000" font-family="sans-serif" font-size="12" lengthAdjust="spacing" textLength="70" x="215.5" y="472.457">Return token</text><ellipse cx="250.5" cy="536" fill="none" rx="10" ry="10" style="stroke:#222222;stroke-width:1.0;"/><ellipse cx="251" cy="536.5" fill="#222222" rx="6" ry="6" style="stroke:none;stroke-width:1.0;"/><!--MD5=[3932cca766dd937774683e8fb629e95d]
link start to Recieve create user data--><g id="link_start_Recieve create user data"><path d="M114.5,26.25 C114.5,35.43 114.5,49.84 114.5,61.9 " fill="none" id="start-to-Recieve create user data" style="stroke:#181818;stroke-width:1.0;"/><polygon fill="#181818" points="114.5,66.91,118.5,57.91,114.5,61.91,110.5,57.91,114.5,66.91" style="stroke:#181818;stroke-width:1.0;"/></g><!--MD5=[9a4f310c66a1cf0d79eadeab6631b815]
link Recieve create user data to #5--><g id="link_Recieve create user data_#5"><path d="M114.5,102.08 C114.5,112.87 114.5,126.88 114.5,137.63 " fill="none" id="Recieve create user data-to-#5" style="stroke:#181818;stroke-width:1.0;"/><polygon fill="#181818" points="114.5,142.92,118.5,133.92,114.5,137.92,110.5,133.92,114.5,142.92" style="stroke:#181818;stroke-width:1.0;"/><text fill="#000000" font-family="sans-serif" font-size="11" lengthAdjust="spacing" textLength="56" x="44.85" y="132.485">Email exists</text></g><!--MD5=[b00d4f0413f1e7cec1e2d4396b489406]
link #5 to Throw Email already in use--><g id="link_#5_Throw Email already in use"><path d="M112.04,164.83 C108.61,177.11 102.3,199.75 97.58,216.7 " fill="none" id="#5-to-Throw Email already in use" style="stroke:#181818;stroke-width:1.0;"/><polygon fill="#181818" points="96.17,221.76,102.4352,214.1608,97.5097,216.9428,94.7277,212.0173,96.17,221.76" style="stroke:#181818;stroke-width:1.0;"/><text fill="#000000" font-family="sans-serif" font-size="11" lengthAdjust="spacing" textLength="19" x="107.5" y="199.4189">true</text></g><!--MD5=[abb84b76873672ed9daf49a3481df86d]
link #5 to Hash password--><g id="link_#5_Hash password"><path d="M121.43,160.2 C139.02,170.88 186.29,199.55 218.47,219.07 " fill="none" id="#5-to-Hash password" style="stroke:#181818;stroke-width:1.0;"/><polygon fill="#181818" points="223.1,221.88,217.492,213.7837,218.829,219.2803,213.3324,220.6173,223.1,221.88" style="stroke:#181818;stroke-width:1.0;"/><text fill="#000000" font-family="sans-serif" font-size="11" lengthAdjust="spacing" textLength="24" x="187.5" y="199.4189">false</text></g><!--MD5=[c24b940335b56314a67cdd462dce68ef]
link Hash password to Save user in database--><g id="link_Hash password_Save user in database"><path d="M250.5,257.29 C250.5,267.79 250.5,281.43 250.5,292.75 " fill="none" id="Hash password-to-Save user in database" style="stroke:#181818;stroke-width:1.0;"/><polygon fill="#181818" points="250.5,297.77,254.5,288.77,250.5,292.77,246.5,288.77,250.5,297.77" style="stroke:#181818;stroke-width:1.0;"/></g><!--MD5=[63fec40f8536669992f9006b48374785]
link Save user in database to Generate token for user--><g id="link_Save user in database_Generate token for user"><path d="M250.5,333.29 C250.5,343.79 250.5,357.43 250.5,368.75 " fill="none" id="Save user in database-to-Generate token for user" style="stroke:#181818;stroke-width:1.0;"/><polygon fill="#181818" points="250.5,373.77,254.5,364.77,250.5,368.77,246.5,364.77,250.5,373.77" style="stroke:#181818;stroke-width:1.0;"/></g><!--MD5=[ecc4c7a20eec23a9134f846750d4e969]
link Generate token for user to Return token--><g id="link_Generate token for user_Return token"><path d="M250.5,409.29 C250.5,419.79 250.5,433.43 250.5,444.75 " fill="none" id="Generate token for user-to-Return token" style="stroke:#181818;stroke-width:1.0;"/><polygon fill="#181818" points="250.5,449.77,254.5,440.77,250.5,444.77,246.5,440.77,250.5,449.77" style="stroke:#181818;stroke-width:1.0;"/></g><!--MD5=[e178f1f4068ee0e7f5aeacc8dbfee9ac]
link Return token to end--><g id="link_Return token_end"><path d="M250.5,485.28 C250.5,496.29 250.5,510.52 250.5,520.94 " fill="none" id="Return token-to-end" style="stroke:#181818;stroke-width:1.0;"/><polygon fill="#181818" points="250.5,526,254.5,517,250.5,521,246.5,517,250.5,526" style="stroke:#181818;stroke-width:1.0;"/></g><!--MD5=[611343cef521af7730a5e732a3ee001f]
@startuml Create User Flowchart

(*) - -> "Recieve create user data"
if "Email exists" then
  - ->[true] "Throw Email already in use"
else 
  - ->[false] "Hash password"
  - -> "Save user in database"
  - -> "Generate token for user"
  - -> "Return token"
  - -> (*)
end if 

@enduml

PlantUML version 1.2022.7(Mon Aug 22 19:01:30 CEST 2022)
(GPL source distribution)
Java Runtime: OpenJDK Runtime Environment
JVM: OpenJDK 64-Bit Server VM
Default Encoding: Cp1252
Language: en
Country: US
--></g></svg>