<?xml version="1.0" encoding="UTF-8" standalone="no"?><svg xmlns="http://www.w3.org/2000/svg" xmlns:xlink="http://www.w3.org/1999/xlink" contentStyleType="text/css" height="465px" preserveAspectRatio="none" style="width:261px;height:465px;background:#FFFFFF;" version="1.1" viewBox="0 0 261 465" width="261px" zoomAndPan="magnify"><defs/><g><ellipse cx="166" cy="16" fill="#222222" rx="10" ry="10" style="stroke:none;stroke-width:1.0;"/><rect fill="#F1F1F1" height="35.0938" rx="12.5" ry="12.5" style="stroke:#181818;stroke-width:0.5;" width="121" x="105.5" y="67"/><text fill="#000000" font-family="sans-serif" font-size="12" lengthAdjust="spacing" textLength="101" x="115.5" y="89.457">Recieve login data</text><g id="elem_#5"><polygon fill="#F1F1F1" points="166,143,178,155,166,167,154,155,166,143" style="stroke:#181818;stroke-width:0.5;"/></g><g id="elem_#8"><polygon fill="#F1F1F1" points="140,208,152,220,140,232,128,220,140,208" style="stroke:#181818;stroke-width:0.5;"/></g><rect fill="#F1F1F1" height="35.0938" rx="12.5" ry="12.5" style="stroke:#181818;stroke-width:0.5;" width="104" x="7" y="287"/><text fill="#000000" font-family="sans-serif" font-size="12" lengthAdjust="spacing" textLength="84" x="17" y="309.457">Generate token</text><rect fill="#F1F1F1" height="35.0938" rx="12.5" ry="12.5" style="stroke:#181818;stroke-width:0.5;" width="90" x="14" y="363"/><text fill="#000000" font-family="sans-serif" font-size="12" lengthAdjust="spacing" textLength="70" x="24" y="385.457">Return token</text><ellipse cx="59" cy="449" fill="none" rx="10" ry="10" style="stroke:#222222;stroke-width:1.0;"/><ellipse cx="59.5" cy="449.5" fill="#222222" rx="6" ry="6" style="stroke:none;stroke-width:1.0;"/><rect fill="#F1F1F1" height="35.0938" rx="12.5" ry="12.5" style="stroke:#181818;stroke-width:0.5;" width="121" x="131.5" y="287"/><text fill="#000000" font-family="sans-serif" font-size="12" lengthAdjust="spacing" textLength="101" x="141.5" y="309.457">Throw Login failed</text><!--MD5=[0cc5c6088e8b133b764c8e39458fa7f0]
link start to Recieve login data--><g id="link_start_Recieve login data"><path d="M166,26.25 C166,35.43 166,49.84 166,61.9 " fill="none" id="start-to-Recieve login data" style="stroke:#181818;stroke-width:1.0;"/><polygon fill="#181818" points="166,66.91,170,57.91,166,61.91,162,57.91,166,66.91" style="stroke:#181818;stroke-width:1.0;"/></g><!--MD5=[66602bce3d97b17711fac82889a600fb]
link Recieve login data to #5--><g id="link_Recieve login data_#5"><path d="M166,102.08 C166,112.87 166,126.88 166,137.63 " fill="none" id="Recieve login data-to-#5" style="stroke:#181818;stroke-width:1.0;"/><polygon fill="#181818" points="166,142.92,170,133.92,166,137.92,162,133.92,166,142.92" style="stroke:#181818;stroke-width:1.0;"/><text fill="#000000" font-family="sans-serif" font-size="11" lengthAdjust="spacing" textLength="56" x="96.35" y="132.485">Email exists</text></g><!--MD5=[0c0d8213b86c66ad298a167b10270357]
link #5 to #8--><g id="link_#5_#8"><path d="M162.71,163.98 C158.32,174.62 150.49,193.58 145.27,206.22 " fill="none" id="#5-to-#8" style="stroke:#181818;stroke-width:1.0;"/><polygon fill="#181818" points="143.35,210.89,150.4755,204.0909,145.2537,206.2666,143.078,201.0449,143.35,210.89" style="stroke:#181818;stroke-width:1.0;"/><text fill="#000000" font-family="sans-serif" font-size="11" lengthAdjust="spacing" textLength="94" x="160.0284" y="204.2766">Password matches</text></g><!--MD5=[86d4e43912a82aafa1d5028d3943ea53]
link #8 to Generate token--><g id="link_#8_Generate token"><path d="M134.43,226.67 C123.17,238.14 97.22,264.58 78.91,283.22 " fill="none" id="#8-to-Generate token" style="stroke:#181818;stroke-width:1.0;"/><polygon fill="#181818" points="75.35,286.84,84.5062,283.2118,78.8496,283.2689,78.7925,277.6124,75.35,286.84" style="stroke:#181818;stroke-width:1.0;"/><text fill="#000000" font-family="sans-serif" font-size="11" lengthAdjust="spacing" textLength="19" x="111" y="264.4189">true</text></g><!--MD5=[098c265f84ee990ea225bc2bb82fd240]
link Generate token to Return token--><g id="link_Generate token_Return token"><path d="M59,322.29 C59,332.79 59,346.43 59,357.75 " fill="none" id="Generate token-to-Return token" style="stroke:#181818;stroke-width:1.0;"/><polygon fill="#181818" points="59,362.77,63,353.77,59,357.77,55,353.77,59,362.77" style="stroke:#181818;stroke-width:1.0;"/></g><!--MD5=[e178f1f4068ee0e7f5aeacc8dbfee9ac]
link Return token to end--><g id="link_Return token_end"><path d="M59,398.28 C59,409.29 59,423.52 59,433.94 " fill="none" id="Return token-to-end" style="stroke:#181818;stroke-width:1.0;"/><polygon fill="#181818" points="59,439,63,430,59,434,55,430,59,439" style="stroke:#181818;stroke-width:1.0;"/></g><!--MD5=[9665a20f1985d8d609772a5d2be6703e]
link #8 to Throw Login failed--><g id="link_#8_Throw Login failed"><path d="M140.44,231.93 C141.27,241.72 143.59,256.17 150,267 C153.53,272.96 158.38,278.45 163.53,283.26 " fill="none" id="#8-to-Throw Login failed" style="stroke:#181818;stroke-width:1.0;"/><polygon fill="#181818" points="167.51,286.8,163.4599,277.8224,163.7801,283.4702,158.1323,283.7903,167.51,286.8" style="stroke:#181818;stroke-width:1.0;"/><text fill="#000000" font-family="sans-serif" font-size="11" lengthAdjust="spacing" textLength="24" x="151" y="264.4189">false</text></g><!--MD5=[7f2122836726631be75bac835c20747c]
link #5 to Throw Login failed--><g id="link_#5_Throw Login failed"><path d="M167.71,165.68 C171.82,189.04 182.39,248.99 188.14,281.59 " fill="none" id="#5-to-Throw Login failed" style="stroke:#181818;stroke-width:1.0;"/><polygon fill="#181818" points="189.02,286.58,191.3871,277.0198,188.147,281.6568,183.51,278.4167,189.02,286.58" style="stroke:#181818;stroke-width:1.0;"/><text fill="#000000" font-family="sans-serif" font-size="11" lengthAdjust="spacing" textLength="24" x="180" y="224.9189">false</text></g><!--MD5=[2022f8520eb35fe48826b121625ac038]
@startuml Login Flowchart

(*) - -> "Recieve login data"
if "Email exists" then
    if "Password matches" then
        - ->[true] "Generate token"
        - -> "Return token"
        - -> (*)
    else
        - ->[false] "Throw Login failed"
    end if
else
  - ->[false] "Throw Login failed"

end if 

@enduml

PlantUML version 1.2022.7(Mon Aug 22 19:01:30 CEST 2022)
(GPL source distribution)
Java Runtime: OpenJDK Runtime Environment
JVM: OpenJDK 64-Bit Server VM
Default Encoding: Cp1252
Language: en
Country: US
--></g></svg>