<?xml version="1.0" encoding="UTF-8" standalone="no"?><svg xmlns="http://www.w3.org/2000/svg" xmlns:xlink="http://www.w3.org/1999/xlink" contentStyleType="text/css" height="707px" preserveAspectRatio="none" style="width:1186px;height:707px;background:#FFFFFF;" version="1.1" viewBox="0 0 1186 707" width="1186px" zoomAndPan="magnify"><defs/><g><rect fill="none" height="35.2188" style="stroke:none;stroke-width:1.0;" width="73" x="1099" y="0"/><text fill="#0000FF" font-family="sans-serif" font-size="14" lengthAdjust="spacing" textLength="70" x="1102" y="14.5332">https arrow</text><text fill="#9400D3" font-family="sans-serif" font-size="14" lengthAdjust="spacing" textLength="73" x="1099" y="32.1426">tcp/ip arrow</text><!--MD5=[83e85bf986ad20cca4ca192621d76a9a]
cluster devserver--><g id="cluster_devserver"><polygon fill="none" points="817,360.2188,827,350.2188,1169,350.2188,1169,680.2188,1159,690.2188,817,690.2188,817,360.2188" style="stroke:#006400;stroke-width:1.0;"/><line style="stroke:#006400;stroke-width:1.0;" x1="1159" x2="1169" y1="360.2188" y2="350.2188"/><line style="stroke:#006400;stroke-width:1.0;" x1="817" x2="1159" y1="360.2188" y2="360.2188"/><line style="stroke:#006400;stroke-width:1.0;" x1="1159" x2="1159" y1="360.2188" y2="690.2188"/><text fill="#000000" font-family="sans-serif" font-size="14" font-weight="bold" lengthAdjust="spacing" textLength="81" x="948.5" y="377.752">&lt;&lt;Device&gt;&gt;</text><text fill="#000000" font-family="sans-serif" font-size="14" font-weight="bold" lengthAdjust="spacing" textLength="143" x="917.5" y="395.3613">Window Server 2019</text></g><!--MD5=[3b0cb338022c77ee62fd4c5d3ad773e8]
cluster apiServer--><g id="cluster_apiServer"><polygon fill="none" points="387.5,127.2188,397.5,117.2188,755.5,117.2188,755.5,422.2188,745.5,432.2188,387.5,432.2188,387.5,127.2188" style="stroke:#006400;stroke-width:1.0;"/><line style="stroke:#006400;stroke-width:1.0;" x1="745.5" x2="755.5" y1="127.2188" y2="117.2188"/><line style="stroke:#006400;stroke-width:1.0;" x1="387.5" x2="745.5" y1="127.2188" y2="127.2188"/><line style="stroke:#006400;stroke-width:1.0;" x1="745.5" x2="745.5" y1="127.2188" y2="432.2188"/><text fill="#000000" font-family="sans-serif" font-size="14" font-weight="bold" lengthAdjust="spacing" textLength="81" x="527" y="144.752">&lt;&lt;Device&gt;&gt;</text><text fill="#000000" font-family="sans-serif" font-size="14" font-weight="bold" lengthAdjust="spacing" textLength="143" x="496" y="162.3613">Window Server 2019</text></g><!--MD5=[ba34e6158f7c925c6fccaa78cdbab233]
cluster <<Server>>\n IIS 10.0--><g id="cluster_&lt;&lt;Server&gt;&gt;\n IIS 10.0"><polygon fill="none" points="411.5,194.2188,421.5,184.2188,731.5,184.2188,731.5,398.2188,721.5,408.2188,411.5,408.2188,411.5,194.2188" style="stroke:#006400;stroke-width:1.0;"/><line style="stroke:#006400;stroke-width:1.0;" x1="721.5" x2="731.5" y1="194.2188" y2="184.2188"/><line style="stroke:#006400;stroke-width:1.0;" x1="411.5" x2="721.5" y1="194.2188" y2="194.2188"/><line style="stroke:#006400;stroke-width:1.0;" x1="721.5" x2="721.5" y1="194.2188" y2="408.2188"/><text fill="#000000" font-family="sans-serif" font-size="14" font-weight="bold" lengthAdjust="spacing" textLength="80" x="527.5" y="211.752">&lt;&lt;Server&gt;&gt;</text><text fill="#000000" font-family="sans-serif" font-size="14" font-weight="bold" lengthAdjust="spacing" textLength="49" x="545" y="229.3613">IIS 10.0</text></g><!--MD5=[bca35895c3c816e4c60af7df2986175a]
cluster <<Execution environment>>\n.Net 6--><g id="cluster_&lt;&lt;Execution environment&gt;&gt;\n.Net 6"><polygon fill="none" points="435.5,261.2188,445.5,251.2188,707.5,251.2188,707.5,374.2188,697.5,384.2188,435.5,384.2188,435.5,261.2188" style="stroke:#006400;stroke-width:1.0;"/><line style="stroke:#006400;stroke-width:1.0;" x1="697.5" x2="707.5" y1="261.2188" y2="251.2188"/><line style="stroke:#006400;stroke-width:1.0;" x1="435.5" x2="697.5" y1="261.2188" y2="261.2188"/><line style="stroke:#006400;stroke-width:1.0;" x1="697.5" x2="697.5" y1="261.2188" y2="384.2188"/><text fill="#000000" font-family="sans-serif" font-size="14" font-weight="bold" lengthAdjust="spacing" textLength="196" x="469.5" y="278.752">&lt;&lt;Execution environment&gt;&gt;</text><text fill="#000000" font-family="sans-serif" font-size="14" font-weight="bold" lengthAdjust="spacing" textLength="40" x="547.5" y="296.3613">.Net 6</text></g><!--MD5=[b7b14e8444e3c5d78ccf181a2614e889]
cluster pc--><g id="cluster_pc"><polygon fill="none" points="16,52.2188,26,42.2188,333,42.2188,333,256.2188,323,266.2188,16,266.2188,16,52.2188" style="stroke:#006400;stroke-width:1.0;"/><line style="stroke:#006400;stroke-width:1.0;" x1="323" x2="333" y1="52.2188" y2="42.2188"/><line style="stroke:#006400;stroke-width:1.0;" x1="16" x2="323" y1="52.2188" y2="52.2188"/><line style="stroke:#006400;stroke-width:1.0;" x1="323" x2="323" y1="52.2188" y2="266.2188"/><text fill="#000000" font-family="sans-serif" font-size="14" font-weight="bold" lengthAdjust="spacing" textLength="81" x="130" y="69.752">&lt;&lt;Device&gt;&gt;</text><text fill="#000000" font-family="sans-serif" font-size="14" font-weight="bold" lengthAdjust="spacing" textLength="56" x="142.5" y="87.3613">User PC</text></g><!--MD5=[050ad1b270793dec7b2de6c2a2ee2608]
cluster n1--><g id="cluster_n1"><polygon fill="none" points="40,119.2188,50,109.2188,309,109.2188,309,232.2188,299,242.2188,40,242.2188,40,119.2188" style="stroke:#006400;stroke-width:1.0;"/><line style="stroke:#006400;stroke-width:1.0;" x1="299" x2="309" y1="119.2188" y2="109.2188"/><line style="stroke:#006400;stroke-width:1.0;" x1="40" x2="299" y1="119.2188" y2="119.2188"/><line style="stroke:#006400;stroke-width:1.0;" x1="299" x2="299" y1="119.2188" y2="242.2188"/><text fill="#000000" font-family="sans-serif" font-size="14" font-weight="bold" lengthAdjust="spacing" textLength="91" x="125" y="136.752">&lt;&lt;Browser&gt;&gt;</text><text fill="#000000" font-family="sans-serif" font-size="14" font-weight="bold" lengthAdjust="spacing" textLength="193" x="74" y="154.3613">Firefox/Chrome/Safari/Edge</text></g><!--MD5=[7afea78ea3e2dfbc9b2261ae2e330c51]
cluster phone--><g id="cluster_phone"><polygon fill="none" points="16,300.2188,26,290.2188,333,290.2188,333,504.2188,323,514.2188,16,514.2188,16,300.2188" style="stroke:#006400;stroke-width:1.0;"/><line style="stroke:#006400;stroke-width:1.0;" x1="323" x2="333" y1="300.2188" y2="290.2188"/><line style="stroke:#006400;stroke-width:1.0;" x1="16" x2="323" y1="300.2188" y2="300.2188"/><line style="stroke:#006400;stroke-width:1.0;" x1="323" x2="323" y1="300.2188" y2="514.2188"/><text fill="#000000" font-family="sans-serif" font-size="14" font-weight="bold" lengthAdjust="spacing" textLength="81" x="130" y="317.752">&lt;&lt;Device&gt;&gt;</text><text fill="#000000" font-family="sans-serif" font-size="14" font-weight="bold" lengthAdjust="spacing" textLength="82" x="129.5" y="335.3613">User Phone</text></g><!--MD5=[ec298e0063ea19cee32a7c1b64d19899]
cluster n2--><g id="cluster_n2"><polygon fill="none" points="40,367.2188,50,357.2188,309,357.2188,309,480.2188,299,490.2188,40,490.2188,40,367.2188" style="stroke:#006400;stroke-width:1.0;"/><line style="stroke:#006400;stroke-width:1.0;" x1="299" x2="309" y1="367.2188" y2="357.2188"/><line style="stroke:#006400;stroke-width:1.0;" x1="40" x2="299" y1="367.2188" y2="367.2188"/><line style="stroke:#006400;stroke-width:1.0;" x1="299" x2="299" y1="367.2188" y2="490.2188"/><text fill="#000000" font-family="sans-serif" font-size="14" font-weight="bold" lengthAdjust="spacing" textLength="91" x="125" y="384.752">&lt;&lt;Browser&gt;&gt;</text><text fill="#000000" font-family="sans-serif" font-size="14" font-weight="bold" lengthAdjust="spacing" textLength="193" x="74" y="402.3613">Firefox/Chrome/Safari/Edge</text></g><!--MD5=[77b3d9609c746040fad605e65db5ebee]
cluster dev--><g id="cluster_dev"><polygon fill="none" points="440,474.2188,450,464.2188,703,464.2188,703,630.2188,693,640.2188,440,640.2188,440,474.2188" style="stroke:#006400;stroke-width:1.0;"/><line style="stroke:#006400;stroke-width:1.0;" x1="693" x2="703" y1="474.2188" y2="464.2188"/><line style="stroke:#006400;stroke-width:1.0;" x1="440" x2="693" y1="474.2188" y2="474.2188"/><line style="stroke:#006400;stroke-width:1.0;" x1="693" x2="693" y1="474.2188" y2="640.2188"/><text fill="#000000" font-family="sans-serif" font-size="14" font-weight="bold" lengthAdjust="spacing" textLength="81" x="527" y="491.752">&lt;&lt;Device&gt;&gt;</text><text fill="#000000" font-family="sans-serif" font-size="14" font-weight="bold" lengthAdjust="spacing" textLength="51" x="542" y="509.3613">Dev PC</text></g><!--MD5=[7468467f3b6b392f1d176d828c753b77]
entity db--><g id="elem_db"><path d="M833,419.2188 C833,409.2188 885,409.2188 885,409.2188 C885,409.2188 937,409.2188 937,419.2188 L937,463.4375 C937,473.4375 885,473.4375 885,473.4375 C885,473.4375 833,473.4375 833,463.4375 L833,419.2188 " fill="#F1F1F1" style="stroke:#B22222;stroke-width:0.5;"/><path d="M833,419.2188 C833,429.2188 885,429.2188 885,429.2188 C885,429.2188 937,429.2188 937,419.2188 " fill="none" style="stroke:#B22222;stroke-width:0.5;"/><text fill="#000000" font-family="sans-serif" font-size="14" lengthAdjust="spacing" textLength="58" x="843" y="447.752">«Server»</text><text fill="#000000" font-family="sans-serif" font-size="14" lengthAdjust="spacing" textLength="84" x="843" y="465.3613">MSSQL 2019</text></g><!--MD5=[475d6d95d4e874f25fb02bcc50a6c03e]
entity kibana--><g id="elem_kibana"><polygon fill="#F1F1F1" points="836,518.7188,846,508.7188,934,508.7188,934,563.9375,924,573.9375,836,573.9375,836,518.7188" style="stroke:#006400;stroke-width:0.5;"/><line style="stroke:#006400;stroke-width:0.5;" x1="924" x2="934" y1="518.7188" y2="508.7188"/><line style="stroke:#006400;stroke-width:0.5;" x1="836" x2="924" y1="518.7188" y2="518.7188"/><line style="stroke:#006400;stroke-width:0.5;" x1="924" x2="924" y1="518.7188" y2="573.9375"/><text fill="#000000" font-family="sans-serif" font-size="14" lengthAdjust="spacing" textLength="58" x="851" y="543.252">«Server»</text><text fill="#000000" font-family="sans-serif" font-size="14" lengthAdjust="spacing" textLength="44" x="851" y="560.8613">Kibana</text></g><!--MD5=[139da7000e7b79442a2a4bd52c55c385]
entity elastic--><g id="elem_elastic"><polygon fill="#F1F1F1" points="1027,518.7188,1037,508.7188,1153,508.7188,1153,563.9375,1143,573.9375,1027,573.9375,1027,518.7188" style="stroke:#006400;stroke-width:0.5;"/><line style="stroke:#006400;stroke-width:0.5;" x1="1143" x2="1153" y1="518.7188" y2="508.7188"/><line style="stroke:#006400;stroke-width:0.5;" x1="1027" x2="1143" y1="518.7188" y2="518.7188"/><line style="stroke:#006400;stroke-width:0.5;" x1="1143" x2="1143" y1="518.7188" y2="573.9375"/><text fill="#000000" font-family="sans-serif" font-size="14" lengthAdjust="spacing" textLength="58" x="1042" y="543.252">«Server»</text><text fill="#000000" font-family="sans-serif" font-size="14" lengthAdjust="spacing" textLength="86" x="1042" y="560.8613">ElasticSearch</text></g><!--MD5=[e8c0726dd07c528a19a915e63f4a0545]
entity logstash--><g id="elem_logstash"><polygon fill="#F1F1F1" points="835,618.7188,845,608.7188,935,608.7188,935,663.9375,925,673.9375,835,673.9375,835,618.7188" style="stroke:#006400;stroke-width:0.5;"/><line style="stroke:#006400;stroke-width:0.5;" x1="925" x2="935" y1="618.7188" y2="608.7188"/><line style="stroke:#006400;stroke-width:0.5;" x1="835" x2="925" y1="618.7188" y2="618.7188"/><line style="stroke:#006400;stroke-width:0.5;" x1="925" x2="925" y1="618.7188" y2="673.9375"/><text fill="#000000" font-family="sans-serif" font-size="14" lengthAdjust="spacing" textLength="58" x="850" y="643.252">«Server»</text><text fill="#000000" font-family="sans-serif" font-size="14" lengthAdjust="spacing" textLength="60" x="850" y="660.8613">LogStash</text></g><!--MD5=[ac40dd4c03671801018102ca7be9c337]
entity rest--><g id="elem_rest"><rect fill="#F1F1F1" height="58.2188" rx="2.5" ry="2.5" style="stroke:#FF8C00;stroke-width:0.5;" width="90" x="526.5" y="310.2188"/><polygon fill="#F1F1F1" points="599.5,315.2188,599.5,329.2188,611.5,329.2188,611.5,321.2188,605.5,315.2188,599.5,315.2188" style="stroke:#FF8C00;stroke-width:0.5;"/><line style="stroke:#FF8C00;stroke-width:0.5;" x1="605.5" x2="605.5" y1="315.2188" y2="321.2188"/><line style="stroke:#FF8C00;stroke-width:0.5;" x1="611.5" x2="605.5" y1="321.2188" y2="321.2188"/><text fill="#000000" font-family="sans-serif" font-size="14" lengthAdjust="spacing" textLength="60" x="536.5" y="337.752">«Artifact»</text><text fill="#000000" font-family="sans-serif" font-size="14" lengthAdjust="spacing" textLength="52" x="536.5" y="355.3613">Rest api</text></g><!--MD5=[9b5fd479ff9e12a7cc0df0f0353b59f8]
entity a1--><g id="elem_a1"><rect fill="#F1F1F1" height="58.2188" rx="2.5" ry="2.5" style="stroke:#FF8C00;stroke-width:0.5;" width="93" x="128" y="168.2188"/><polygon fill="#F1F1F1" points="204,173.2188,204,187.2188,216,187.2188,216,179.2188,210,173.2188,204,173.2188" style="stroke:#FF8C00;stroke-width:0.5;"/><line style="stroke:#FF8C00;stroke-width:0.5;" x1="210" x2="210" y1="173.2188" y2="179.2188"/><line style="stroke:#FF8C00;stroke-width:0.5;" x1="216" x2="210" y1="179.2188" y2="179.2188"/><text fill="#000000" font-family="sans-serif" font-size="14" lengthAdjust="spacing" textLength="60" x="138" y="195.752">«Artifact»</text><text fill="#000000" font-family="sans-serif" font-size="14" lengthAdjust="spacing" textLength="63" x="138" y="213.3613">Javascript</text></g><!--MD5=[f89d8cb67b4d8c974030bdacf9c0cf39]
entity a2--><g id="elem_a2"><rect fill="#F1F1F1" height="58.2188" rx="2.5" ry="2.5" style="stroke:#FF8C00;stroke-width:0.5;" width="93" x="128" y="416.2188"/><polygon fill="#F1F1F1" points="204,421.2188,204,435.2188,216,435.2188,216,427.2188,210,421.2188,204,421.2188" style="stroke:#FF8C00;stroke-width:0.5;"/><line style="stroke:#FF8C00;stroke-width:0.5;" x1="210" x2="210" y1="421.2188" y2="427.2188"/><line style="stroke:#FF8C00;stroke-width:0.5;" x1="216" x2="210" y1="427.2188" y2="427.2188"/><text fill="#000000" font-family="sans-serif" font-size="14" lengthAdjust="spacing" textLength="60" x="138" y="443.752">«Artifact»</text><text fill="#000000" font-family="sans-serif" font-size="14" lengthAdjust="spacing" textLength="63" x="138" y="461.3613">Javascript</text></g><!--MD5=[de2141ac340c0faabfa74667ef9cf0fe]
entity n3--><g id="elem_n3"><polygon fill="#F1F1F1" points="464,541.7188,474,531.7188,679,531.7188,679,586.9375,669,596.9375,464,596.9375,464,541.7188" style="stroke:#006400;stroke-width:0.5;"/><line style="stroke:#006400;stroke-width:0.5;" x1="669" x2="679" y1="541.7188" y2="531.7188"/><line style="stroke:#006400;stroke-width:0.5;" x1="464" x2="669" y1="541.7188" y2="541.7188"/><line style="stroke:#006400;stroke-width:0.5;" x1="669" x2="669" y1="541.7188" y2="596.9375"/><text fill="#000000" font-family="sans-serif" font-size="14" lengthAdjust="spacing" textLength="67" x="479" y="566.252">«Browser»</text><text fill="#000000" font-family="sans-serif" font-size="14" lengthAdjust="spacing" textLength="175" x="479" y="583.8613">Firefox/Chrome/Safari/Edge</text></g><!--MD5=[bb0efbca7f11a24fd19087585124a5f9]
reverse link kibana to elastic--><g id="link_kibana_elastic"><path d="M939.4,541.2188 C966.28,541.2188 999.01,541.2188 1027,541.2188 " fill="none" id="kibana-backto-elastic" style="stroke:#0000FF;stroke-width:1.0;stroke-dasharray:7.0,7.0;"/><polygon fill="#0000FF" points="934.11,541.2188,943.11,545.2188,939.11,541.2188,943.11,537.2188,934.11,541.2188" style="stroke:#0000FF;stroke-width:1.0;"/><text fill="#000000" font-family="sans-serif" font-size="13" lengthAdjust="spacing" textLength="28" x="968" y="537.7139">5601</text></g><!--MD5=[665e377927bdc55e8d8186186b3b2c9d]
link logstash to elastic--><g id="link_logstash_elastic"><path d="M935.14,617.0088 C961.32,604.1188 993.89,588.0688 1022.31,574.0688 " fill="none" id="logstash-to-elastic" style="stroke:#0000FF;stroke-width:1.0;stroke-dasharray:7.0,7.0;"/><polygon fill="#0000FF" points="1026.84,571.8388,1016.9991,572.2357,1022.3565,574.0519,1020.5403,579.4093,1026.84,571.8388" style="stroke:#0000FF;stroke-width:1.0;"/><text fill="#000000" font-family="sans-serif" font-size="13" lengthAdjust="spacing" textLength="28" x="968" y="584.7139">9200</text></g><!--MD5=[e105abcf65c30aabeca6322cbe06297b]
link rest to elastic--><g id="link_rest_elastic"><path d="M616.61,336.8788 C687.88,334.9288 831.05,338.6988 937,391.2188 C989.83,417.4088 1035.68,468.9488 1062.84,504.2288 " fill="none" id="rest-to-elastic" style="stroke:#0000FF;stroke-width:1.0;stroke-dasharray:7.0,7.0;"/><polygon fill="#0000FF" points="1066.05,508.4488,1063.7732,498.8667,1063.0181,504.4729,1057.4118,503.7178,1066.05,508.4488" style="stroke:#0000FF;stroke-width:1.0;"/><text fill="#000000" font-family="sans-serif" font-size="13" lengthAdjust="spacing" textLength="28" x="871" y="347.7139">9200</text></g><!--MD5=[427c2e70fd4bb6ae936ab48a3efae25b]
link rest to db--><g id="link_rest_db"><path d="M621.57,355.2888 C677.63,373.6388 769.18,403.6188 827.99,422.8788 " fill="none" id="rest-db" style="stroke:#9400D3;stroke-width:1.0;stroke-dasharray:7.0,7.0;"/><polygon fill="#9400D3" points="832.87,424.4788,825.5668,417.8709,828.1195,422.9191,823.0713,425.4718,832.87,424.4788" style="stroke:#9400D3;stroke-width:1.0;"/><polygon fill="#9400D3" points="616.8,353.7288,624.1032,360.3366,621.5505,355.2884,626.5987,352.7357,616.8,353.7288" style="stroke:#9400D3;stroke-width:1.0;"/><text fill="#000000" font-family="sans-serif" font-size="13" lengthAdjust="spacing" textLength="28" x="772" y="402.7139">1433</text></g><!--MD5=[2ad352fc6f25fd4f7be2b3808bb5d550]
link dev to kibana--><g id="link_dev_kibana"><path d="M703.5072,626.8917 C703.8416,626.8421 704.176,626.7922 704.5105,626.7419 C705.8484,626.5408 707.187,626.3337 708.5259,626.1207 C711.2035,625.6947 713.8821,625.2446 716.5575,624.7693 C721.9083,623.8186 727.2465,622.7668 732.5397,621.6042 C743.1261,619.2789 753.5325,616.51 763.5,613.2188 C777.66,608.5387 805.84,591.8788 831.38,575.7488 " fill="none" id="dev-kibana" style="stroke:#0000FF;stroke-width:1.0;stroke-dasharray:7.0,7.0;"/><polygon fill="#0000FF" points="835.79,572.9588,826.0448,574.384,831.5629,575.6293,830.3176,581.1473,835.79,572.9588" style="stroke:#0000FF;stroke-width:1.0;"/><polygon fill="#0000FF" points="703.5072,626.8917,712.9964,629.5289,708.4532,626.1586,711.8235,621.6154,703.5072,626.8917" style="stroke:#0000FF;stroke-width:1.0;"/><text fill="#000000" font-family="sans-serif" font-size="13" lengthAdjust="spacing" textLength="28" x="772" y="590.7139">5601</text></g><!--MD5=[7a5c62219989d02433e655dbac3f2d5a]
link a1 to rest--><g id="link_a1_rest"><path d="M226.24,215.4588 C302.63,242.9188 446.24,294.5488 521.56,321.6288 " fill="none" id="a1-rest" style="stroke:#0000FF;stroke-width:1.0;stroke-dasharray:7.0,7.0;"/><polygon fill="#0000FF" points="526.42,323.3688,519.3172,316.546,521.7181,321.6681,516.5961,324.069,526.42,323.3688" style="stroke:#0000FF;stroke-width:1.0;"/><polygon fill="#0000FF" points="221.2,213.6488,228.3277,220.4455,225.9081,215.3322,231.0213,212.9126,221.2,213.6488" style="stroke:#0000FF;stroke-width:1.0;"/><text fill="#000000" font-family="sans-serif" font-size="13" lengthAdjust="spacing" textLength="21" x="350" y="256.7139">443</text></g><!--MD5=[08c5d7f459068efc6d344e59007128e6]
link a2 to rest--><g id="link_a2_rest"><path d="M226.24,431.5988 C302.63,411.0988 446.24,372.5688 521.56,352.3488 " fill="none" id="a2-rest" style="stroke:#0000FF;stroke-width:1.0;stroke-dasharray:7.0,7.0;"/><polygon fill="#0000FF" points="526.42,351.0488,516.6907,349.5188,521.591,352.345,518.7648,357.2453,526.42,351.0488" style="stroke:#0000FF;stroke-width:1.0;"/><polygon fill="#0000FF" points="221.2,432.9588,230.9304,434.4815,226.0281,431.6589,228.8506,426.7565,221.2,432.9588" style="stroke:#0000FF;stroke-width:1.0;"/><text fill="#000000" font-family="sans-serif" font-size="13" lengthAdjust="spacing" textLength="21" x="350" y="390.7139">443</text></g><!--MD5=[04bd353d858ec23eb88cf6bea5f3b234]
@startuml deploymentdiagram

skinparam ArtifactBorderColor DarkOrange
skinparam NodeBorderColor Darkgreen
skinparam DatabaseBorderColor firebrick

skinparam ArrowColor<<https>> blue
skinparam ArrowColor<<tcp>> darkviolet

left to right direction

header
<font color=blue size=14>https arrow</font>
<font color=darkviolet size=14>tcp/ip arrow</font> 
endheader

node "<<Device>>\nWindow Server 2019" as devserver {
    
    database "<<Server>>\nMSSQL 2019" as db

    node "<<Server>>\nKibana" as kibana
    node "<<Server>>\nElasticSearch" as elastic
    node "<<Server>>\nLogStash" as logstash
}

node "<<Device>>\nWindow Server 2019" as apiServer {
    node "<<Server>>\n IIS 10.0" {
        node "<<Execution environment>>\n.Net 6" {
            artifact "<<Artifact>>\nRest api" as rest
        }
    }
}

kibana <.. elastic<<https>> : 5601
logstash ..> elastic<<https>> : 9200
rest ..> elastic<<https>> : 9200

rest <..> db<<tcp>> : 1433

node "<<Device>>\nUser PC" as pc {
    node "<<Browser>>\nFirefox/Chrome/Safari/Edge" as n1 {
        artifact "<<Artifact>>\nJavascript" as a1
    }
}

node "<<Device>>\nUser Phone" as phone {
    node "<<Browser>>\nFirefox/Chrome/Safari/Edge" as n2 {
        artifact "<<Artifact>>\nJavascript" as a2
    }
}

node "<<Device>>\nDev PC" as dev {
    node "<<Browser>>\nFirefox/Chrome/Safari/Edge" as n3 
}

dev <..> kibana<<https>> : 5601

a1 <..> rest<<https>> : 443
a2 <..> rest<<https>> : 443


@enduml

PlantUML version 1.2022.7(Mon Aug 22 19:01:30 CEST 2022)
(GPL source distribution)
Java Runtime: Java(TM) SE Runtime Environment
JVM: Java HotSpot(TM) Client VM
Default Encoding: Cp1252
Language: en
Country: US
--></g></svg>