<?xml version="1.0" encoding="UTF-8" standalone="no"?><svg xmlns="http://www.w3.org/2000/svg" xmlns:xlink="http://www.w3.org/1999/xlink" contentStyleType="text/css" height="739px" preserveAspectRatio="none" style="width:998px;height:739px;background:#FFFFFF;" version="1.1" viewBox="0 0 998 739" width="998px" zoomAndPan="magnify"><defs/><g><rect fill="none" height="35.2188" style="stroke:none;stroke-width:1.0;" width="73" x="911" y="0"/><text fill="#0000FF" font-family="sans-serif" font-size="14" lengthAdjust="spacing" textLength="70" x="914" y="14.5332">https arrow</text><text fill="#9400D3" font-family="sans-serif" font-size="14" lengthAdjust="spacing" textLength="73" x="911" y="32.1426">tcp/ip arrow</text><!--MD5=[83e85bf986ad20cca4ca192621d76a9a]
cluster devserver--><g id="cluster_devserver"><polygon fill="none" points="395,233.2188,405,223.2188,981,223.2188,981,702.2188,971,712.2188,395,712.2188,395,233.2188" style="stroke:#006400;stroke-width:1.0;"/><line style="stroke:#006400;stroke-width:1.0;" x1="971" x2="981" y1="233.2188" y2="223.2188"/><line style="stroke:#006400;stroke-width:1.0;" x1="395" x2="971" y1="233.2188" y2="233.2188"/><line style="stroke:#006400;stroke-width:1.0;" x1="971" x2="971" y1="233.2188" y2="712.2188"/><text fill="#000000" font-family="sans-serif" font-size="14" font-weight="bold" lengthAdjust="spacing" textLength="81" x="643.5" y="250.752">&lt;&lt;Device&gt;&gt;</text><text fill="#000000" font-family="sans-serif" font-size="14" font-weight="bold" lengthAdjust="spacing" textLength="143" x="612.5" y="268.3613">Window Server 2019</text></g><!--MD5=[ba34e6158f7c925c6fccaa78cdbab233]
cluster <<Server>>\n IIS 10.0--><g id="cluster_&lt;&lt;Server&gt;&gt;\n IIS 10.0"><polygon fill="none" points="419,300.2188,429,290.2188,739,290.2188,739,504.2188,729,514.2188,419,514.2188,419,300.2188" style="stroke:#006400;stroke-width:1.0;"/><line style="stroke:#006400;stroke-width:1.0;" x1="729" x2="739" y1="300.2188" y2="290.2188"/><line style="stroke:#006400;stroke-width:1.0;" x1="419" x2="729" y1="300.2188" y2="300.2188"/><line style="stroke:#006400;stroke-width:1.0;" x1="729" x2="729" y1="300.2188" y2="514.2188"/><text fill="#000000" font-family="sans-serif" font-size="14" font-weight="bold" lengthAdjust="spacing" textLength="80" x="535" y="317.752">&lt;&lt;Server&gt;&gt;</text><text fill="#000000" font-family="sans-serif" font-size="14" font-weight="bold" lengthAdjust="spacing" textLength="49" x="552.5" y="335.3613">IIS 10.0</text></g><!--MD5=[bca35895c3c816e4c60af7df2986175a]
cluster <<Execution environment>>\n.Net 6--><g id="cluster_&lt;&lt;Execution environment&gt;&gt;\n.Net 6"><polygon fill="none" points="443,367.2188,453,357.2188,715,357.2188,715,480.2188,705,490.2188,443,490.2188,443,367.2188" style="stroke:#006400;stroke-width:1.0;"/><line style="stroke:#006400;stroke-width:1.0;" x1="705" x2="715" y1="367.2188" y2="357.2188"/><line style="stroke:#006400;stroke-width:1.0;" x1="443" x2="705" y1="367.2188" y2="367.2188"/><line style="stroke:#006400;stroke-width:1.0;" x1="705" x2="705" y1="367.2188" y2="490.2188"/><text fill="#000000" font-family="sans-serif" font-size="14" font-weight="bold" lengthAdjust="spacing" textLength="196" x="477" y="384.752">&lt;&lt;Execution environment&gt;&gt;</text><text fill="#000000" font-family="sans-serif" font-size="14" font-weight="bold" lengthAdjust="spacing" textLength="40" x="555" y="402.3613">.Net 6</text></g><!--MD5=[b7b14e8444e3c5d78ccf181a2614e889]
cluster pc--><g id="cluster_pc"><polygon fill="none" points="16,52.2188,26,42.2188,333,42.2188,333,256.2188,323,266.2188,16,266.2188,16,52.2188" style="stroke:#006400;stroke-width:1.0;"/><line style="stroke:#006400;stroke-width:1.0;" x1="323" x2="333" y1="52.2188" y2="42.2188"/><line style="stroke:#006400;stroke-width:1.0;" x1="16" x2="323" y1="52.2188" y2="52.2188"/><line style="stroke:#006400;stroke-width:1.0;" x1="323" x2="323" y1="52.2188" y2="266.2188"/><text fill="#000000" font-family="sans-serif" font-size="14" font-weight="bold" lengthAdjust="spacing" textLength="81" x="130" y="69.752">&lt;&lt;Device&gt;&gt;</text><text fill="#000000" font-family="sans-serif" font-size="14" font-weight="bold" lengthAdjust="spacing" textLength="19" x="161" y="87.3613">PC</text></g><!--MD5=[050ad1b270793dec7b2de6c2a2ee2608]
cluster n1--><g id="cluster_n1"><polygon fill="none" points="40,119.2188,50,109.2188,309,109.2188,309,232.2188,299,242.2188,40,242.2188,40,119.2188" style="stroke:#006400;stroke-width:1.0;"/><line style="stroke:#006400;stroke-width:1.0;" x1="299" x2="309" y1="119.2188" y2="109.2188"/><line style="stroke:#006400;stroke-width:1.0;" x1="40" x2="299" y1="119.2188" y2="119.2188"/><line style="stroke:#006400;stroke-width:1.0;" x1="299" x2="299" y1="119.2188" y2="242.2188"/><text fill="#000000" font-family="sans-serif" font-size="14" font-weight="bold" lengthAdjust="spacing" textLength="91" x="125" y="136.752">&lt;&lt;Browser&gt;&gt;</text><text fill="#000000" font-family="sans-serif" font-size="14" font-weight="bold" lengthAdjust="spacing" textLength="193" x="74" y="154.3613">Firefox/Chrome/Safari/Edge</text></g><!--MD5=[7afea78ea3e2dfbc9b2261ae2e330c51]
cluster phone--><g id="cluster_phone"><polygon fill="none" points="16,300.2188,26,290.2188,333,290.2188,333,504.2188,323,514.2188,16,514.2188,16,300.2188" style="stroke:#006400;stroke-width:1.0;"/><line style="stroke:#006400;stroke-width:1.0;" x1="323" x2="333" y1="300.2188" y2="290.2188"/><line style="stroke:#006400;stroke-width:1.0;" x1="16" x2="323" y1="300.2188" y2="300.2188"/><line style="stroke:#006400;stroke-width:1.0;" x1="323" x2="323" y1="300.2188" y2="514.2188"/><text fill="#000000" font-family="sans-serif" font-size="14" font-weight="bold" lengthAdjust="spacing" textLength="81" x="130" y="317.752">&lt;&lt;Device&gt;&gt;</text><text fill="#000000" font-family="sans-serif" font-size="14" font-weight="bold" lengthAdjust="spacing" textLength="45" x="148" y="335.3613">Phone</text></g><!--MD5=[ec298e0063ea19cee32a7c1b64d19899]
cluster n2--><g id="cluster_n2"><polygon fill="none" points="40,367.2188,50,357.2188,309,357.2188,309,480.2188,299,490.2188,40,490.2188,40,367.2188" style="stroke:#006400;stroke-width:1.0;"/><line style="stroke:#006400;stroke-width:1.0;" x1="299" x2="309" y1="367.2188" y2="357.2188"/><line style="stroke:#006400;stroke-width:1.0;" x1="40" x2="299" y1="367.2188" y2="367.2188"/><line style="stroke:#006400;stroke-width:1.0;" x1="299" x2="299" y1="367.2188" y2="490.2188"/><text fill="#000000" font-family="sans-serif" font-size="14" font-weight="bold" lengthAdjust="spacing" textLength="91" x="125" y="384.752">&lt;&lt;Browser&gt;&gt;</text><text fill="#000000" font-family="sans-serif" font-size="14" font-weight="bold" lengthAdjust="spacing" textLength="193" x="74" y="402.3613">Firefox/Chrome/Safari/Edge</text></g><!--MD5=[77b3d9609c746040fad605e65db5ebee]
cluster dev--><g id="cluster_dev"><polygon fill="none" points="43,556.2188,53,546.2188,306,546.2188,306,712.2188,296,722.2188,43,722.2188,43,556.2188" style="stroke:#006400;stroke-width:1.0;"/><line style="stroke:#006400;stroke-width:1.0;" x1="296" x2="306" y1="556.2188" y2="546.2188"/><line style="stroke:#006400;stroke-width:1.0;" x1="43" x2="296" y1="556.2188" y2="556.2188"/><line style="stroke:#006400;stroke-width:1.0;" x1="296" x2="296" y1="556.2188" y2="722.2188"/><text fill="#000000" font-family="sans-serif" font-size="14" font-weight="bold" lengthAdjust="spacing" textLength="81" x="130" y="573.752">&lt;&lt;Device&gt;&gt;</text><text fill="#000000" font-family="sans-serif" font-size="14" font-weight="bold" lengthAdjust="spacing" textLength="50" x="145.5" y="591.3613">dev PC</text></g><!--MD5=[7468467f3b6b392f1d176d828c753b77]
entity db--><g id="elem_db"><path d="M850,423.2188 C850,413.2188 902,413.2188 902,413.2188 C902,413.2188 954,413.2188 954,423.2188 L954,467.4375 C954,477.4375 902,477.4375 902,477.4375 C902,477.4375 850,477.4375 850,467.4375 L850,423.2188 " fill="#F1F1F1" style="stroke:#B22222;stroke-width:0.5;"/><path d="M850,423.2188 C850,433.2188 902,433.2188 902,433.2188 C902,433.2188 954,433.2188 954,423.2188 " fill="none" style="stroke:#B22222;stroke-width:0.5;"/><text fill="#000000" font-family="sans-serif" font-size="14" lengthAdjust="spacing" textLength="58" x="860" y="451.752">«Server»</text><text fill="#000000" font-family="sans-serif" font-size="14" lengthAdjust="spacing" textLength="84" x="860" y="469.3613">MSSQL 2019</text></g><!--MD5=[475d6d95d4e874f25fb02bcc50a6c03e]
entity kibana--><g id="elem_kibana"><polygon fill="#F1F1F1" points="530,540.7188,540,530.7188,628,530.7188,628,585.9375,618,595.9375,530,595.9375,530,540.7188" style="stroke:#006400;stroke-width:0.5;"/><line style="stroke:#006400;stroke-width:0.5;" x1="618" x2="628" y1="540.7188" y2="530.7188"/><line style="stroke:#006400;stroke-width:0.5;" x1="530" x2="618" y1="540.7188" y2="540.7188"/><line style="stroke:#006400;stroke-width:0.5;" x1="618" x2="618" y1="540.7188" y2="595.9375"/><text fill="#000000" font-family="sans-serif" font-size="14" lengthAdjust="spacing" textLength="58" x="545" y="565.252">«Server»</text><text fill="#000000" font-family="sans-serif" font-size="14" lengthAdjust="spacing" textLength="44" x="545" y="582.8613">Kibana</text></g><!--MD5=[139da7000e7b79442a2a4bd52c55c385]
entity elastic--><g id="elem_elastic"><polygon fill="#F1F1F1" points="839,540.7188,849,530.7188,965,530.7188,965,585.9375,955,595.9375,839,595.9375,839,540.7188" style="stroke:#006400;stroke-width:0.5;"/><line style="stroke:#006400;stroke-width:0.5;" x1="955" x2="965" y1="540.7188" y2="530.7188"/><line style="stroke:#006400;stroke-width:0.5;" x1="839" x2="955" y1="540.7188" y2="540.7188"/><line style="stroke:#006400;stroke-width:0.5;" x1="955" x2="955" y1="540.7188" y2="595.9375"/><text fill="#000000" font-family="sans-serif" font-size="14" lengthAdjust="spacing" textLength="58" x="854" y="565.252">«Server»</text><text fill="#000000" font-family="sans-serif" font-size="14" lengthAdjust="spacing" textLength="86" x="854" y="582.8613">ElasticSearch</text></g><!--MD5=[e8c0726dd07c528a19a915e63f4a0545]
entity logstash--><g id="elem_logstash"><polygon fill="#F1F1F1" points="529,640.7188,539,630.7188,629,630.7188,629,685.9375,619,695.9375,529,695.9375,529,640.7188" style="stroke:#006400;stroke-width:0.5;"/><line style="stroke:#006400;stroke-width:0.5;" x1="619" x2="629" y1="640.7188" y2="630.7188"/><line style="stroke:#006400;stroke-width:0.5;" x1="529" x2="619" y1="640.7188" y2="640.7188"/><line style="stroke:#006400;stroke-width:0.5;" x1="619" x2="619" y1="640.7188" y2="695.9375"/><text fill="#000000" font-family="sans-serif" font-size="14" lengthAdjust="spacing" textLength="58" x="544" y="665.252">«Server»</text><text fill="#000000" font-family="sans-serif" font-size="14" lengthAdjust="spacing" textLength="60" x="544" y="682.8613">LogStash</text></g><!--MD5=[ac40dd4c03671801018102ca7be9c337]
entity rest--><g id="elem_rest"><rect fill="#F1F1F1" height="58.2188" rx="2.5" ry="2.5" style="stroke:#FF8C00;stroke-width:0.5;" width="90" x="534" y="416.2188"/><polygon fill="#F1F1F1" points="607,421.2188,607,435.2188,619,435.2188,619,427.2188,613,421.2188,607,421.2188" style="stroke:#FF8C00;stroke-width:0.5;"/><line style="stroke:#FF8C00;stroke-width:0.5;" x1="613" x2="613" y1="421.2188" y2="427.2188"/><line style="stroke:#FF8C00;stroke-width:0.5;" x1="619" x2="613" y1="427.2188" y2="427.2188"/><text fill="#000000" font-family="sans-serif" font-size="14" lengthAdjust="spacing" textLength="60" x="544" y="443.752">«Artifact»</text><text fill="#000000" font-family="sans-serif" font-size="14" lengthAdjust="spacing" textLength="52" x="544" y="461.3613">Rest api</text></g><!--MD5=[9b5fd479ff9e12a7cc0df0f0353b59f8]
entity a1--><g id="elem_a1"><rect fill="#F1F1F1" height="58.2188" rx="2.5" ry="2.5" style="stroke:#FF8C00;stroke-width:0.5;" width="93" x="128" y="168.2188"/><polygon fill="#F1F1F1" points="204,173.2188,204,187.2188,216,187.2188,216,179.2188,210,173.2188,204,173.2188" style="stroke:#FF8C00;stroke-width:0.5;"/><line style="stroke:#FF8C00;stroke-width:0.5;" x1="210" x2="210" y1="173.2188" y2="179.2188"/><line style="stroke:#FF8C00;stroke-width:0.5;" x1="216" x2="210" y1="179.2188" y2="179.2188"/><text fill="#000000" font-family="sans-serif" font-size="14" lengthAdjust="spacing" textLength="60" x="138" y="195.752">«Artifact»</text><text fill="#000000" font-family="sans-serif" font-size="14" lengthAdjust="spacing" textLength="63" x="138" y="213.3613">Javascript</text></g><!--MD5=[f89d8cb67b4d8c974030bdacf9c0cf39]
entity a2--><g id="elem_a2"><rect fill="#F1F1F1" height="58.2188" rx="2.5" ry="2.5" style="stroke:#FF8C00;stroke-width:0.5;" width="93" x="128" y="416.2188"/><polygon fill="#F1F1F1" points="204,421.2188,204,435.2188,216,435.2188,216,427.2188,210,421.2188,204,421.2188" style="stroke:#FF8C00;stroke-width:0.5;"/><line style="stroke:#FF8C00;stroke-width:0.5;" x1="210" x2="210" y1="421.2188" y2="427.2188"/><line style="stroke:#FF8C00;stroke-width:0.5;" x1="216" x2="210" y1="427.2188" y2="427.2188"/><text fill="#000000" font-family="sans-serif" font-size="14" lengthAdjust="spacing" textLength="60" x="138" y="443.752">«Artifact»</text><text fill="#000000" font-family="sans-serif" font-size="14" lengthAdjust="spacing" textLength="63" x="138" y="461.3613">Javascript</text></g><!--MD5=[de2141ac340c0faabfa74667ef9cf0fe]
entity n3--><g id="elem_n3"><polygon fill="#F1F1F1" points="67,623.7188,77,613.7188,282,613.7188,282,668.9375,272,678.9375,67,678.9375,67,623.7188" style="stroke:#006400;stroke-width:0.5;"/><line style="stroke:#006400;stroke-width:0.5;" x1="272" x2="282" y1="623.7188" y2="613.7188"/><line style="stroke:#006400;stroke-width:0.5;" x1="67" x2="272" y1="623.7188" y2="623.7188"/><line style="stroke:#006400;stroke-width:0.5;" x1="272" x2="272" y1="623.7188" y2="678.9375"/><text fill="#000000" font-family="sans-serif" font-size="14" lengthAdjust="spacing" textLength="67" x="82" y="648.252">«Browser»</text><text fill="#000000" font-family="sans-serif" font-size="14" lengthAdjust="spacing" textLength="175" x="82" y="665.8613">Firefox/Chrome/Safari/Edge</text></g><!--MD5=[bb0efbca7f11a24fd19087585124a5f9]
reverse link kibana to elastic--><g id="link_kibana_elastic"><path d="M633.51,564.2788 C679.92,565.0588 748.9,565.8688 809,565.2188 C818.59,565.1188 828.73,564.9488 838.65,564.7588 " fill="none" id="kibana-backto-elastic" style="stroke:#0000FF;stroke-width:1.0;stroke-dasharray:7.0,7.0;"/><polygon fill="#0000FF" points="628.25,564.1888,637.1801,568.3424,633.2493,564.2745,637.3172,560.3436,628.25,564.1888" style="stroke:#0000FF;stroke-width:1.0;"/><text fill="#000000" font-family="sans-serif" font-size="13" lengthAdjust="spacing" textLength="28" x="780" y="561.7139">5601</text></g><!--MD5=[665e377927bdc55e8d8186186b3b2c9d]
link logstash to elastic--><g id="link_logstash_elastic"><path d="M629.05,648.8588 C662.37,639.0188 707.42,625.5688 747,613.2188 C775.55,604.3088 806.96,594.1788 833.93,585.3688 " fill="none" id="logstash-to-elastic" style="stroke:#0000FF;stroke-width:1.0;stroke-dasharray:7.0,7.0;"/><polygon fill="#0000FF" points="838.91,583.7388,829.115,582.7104,834.1539,585.2813,831.583,590.3202,838.91,583.7388" style="stroke:#0000FF;stroke-width:1.0;"/><text fill="#000000" font-family="sans-serif" font-size="13" lengthAdjust="spacing" textLength="28" x="780" y="591.7139">9200</text></g><!--MD5=[e105abcf65c30aabeca6322cbe06297b]
link rest to elastic--><g id="link_rest_elastic"><path d="M624.26,450.1688 C658.51,454.8988 706.74,463.5388 747,478.2188 C781.72,490.8787 818.03,510.5688 846.67,527.8088 " fill="none" id="rest-to-elastic" style="stroke:#0000FF;stroke-width:1.0;stroke-dasharray:7.0,7.0;"/><polygon fill="#0000FF" points="851.2,530.5488,845.5722,522.4662,846.9227,527.9595,841.4294,529.3099,851.2,530.5488" style="stroke:#0000FF;stroke-width:1.0;"/><text fill="#000000" font-family="sans-serif" font-size="13" lengthAdjust="spacing" textLength="28" x="780" y="489.7139">9200</text></g><!--MD5=[427c2e70fd4bb6ae936ab48a3efae25b]
link rest to db--><g id="link_rest_db"><path d="M629.6,445.2188 C687.72,445.2188 783.82,445.2188 844.69,445.2188 " fill="none" id="rest-db" style="stroke:#9400D3;stroke-width:1.0;stroke-dasharray:7.0,7.0;"/><polygon fill="#9400D3" points="849.74,445.2188,840.74,441.2188,844.74,445.2188,840.74,449.2188,849.74,445.2188" style="stroke:#9400D3;stroke-width:1.0;"/><polygon fill="#9400D3" points="624.3,445.2188,633.3,449.2188,629.3,445.2188,633.3,441.2188,624.3,445.2188" style="stroke:#9400D3;stroke-width:1.0;"/><text fill="#000000" font-family="sans-serif" font-size="13" lengthAdjust="spacing" textLength="28" x="780" y="441.7139">1433</text></g><!--MD5=[2ad352fc6f25fd4f7be2b3808bb5d550]
link dev to kibana--><g id="link_dev_kibana"><path d="M306.7946,711.0307 C307.8981,710.6905 308.9974,710.3389 310.0921,709.9754 C312.2815,709.2485 314.4522,708.4743 316.5999,707.6504 C325.1909,704.3548 333.415,700.2638 341,695.2188 C375.79,672.0788 353.93,638.7688 387,613.2188 C426.67,582.5688 483.35,570.6188 524.66,566.0088 " fill="none" id="dev-kibana" style="stroke:#0000FF;stroke-width:1.0;stroke-dasharray:7.0,7.0;"/><polygon fill="#0000FF" points="529.87,565.4588,520.4975,562.4327,524.898,565.9874,521.3433,570.3879,529.87,565.4588" style="stroke:#0000FF;stroke-width:1.0;"/><polygon fill="#0000FF" points="306.7946,711.0307,316.5735,712.2021,311.5727,709.5578,314.217,704.557,306.7946,711.0307" style="stroke:#0000FF;stroke-width:1.0;"/><text fill="#000000" font-family="sans-serif" font-size="13" lengthAdjust="spacing" textLength="28" x="350" y="617.7139">5601</text></g><!--MD5=[7a5c62219989d02433e655dbac3f2d5a]
link a1 to rest--><g id="link_a1_rest"><path d="M225.94,228.2988 C303.84,276.2988 452.45,367.8588 529.29,415.2088 " fill="none" id="a1-rest" style="stroke:#0000FF;stroke-width:1.0;stroke-dasharray:7.0,7.0;"/><polygon fill="#0000FF" points="533.8,417.9788,528.2436,409.8469,529.5456,415.3519,524.0407,416.6539,533.8,417.9788" style="stroke:#0000FF;stroke-width:1.0;"/><polygon fill="#0000FF" points="221.28,225.4288,226.8561,233.547,225.5407,228.0452,231.0425,226.7298,221.28,225.4288" style="stroke:#0000FF;stroke-width:1.0;"/><text fill="#000000" font-family="sans-serif" font-size="13" lengthAdjust="spacing" textLength="21" x="353.5" y="303.7139">443</text></g><!--MD5=[08c5d7f459068efc6d344e59007128e6]
link a2 to rest--><g id="link_a2_rest"><path d="M226.42,445.2188 C304.14,445.2188 451.44,445.2188 528.38,445.2188 " fill="none" id="a2-rest" style="stroke:#0000FF;stroke-width:1.0;stroke-dasharray:7.0,7.0;"/><polygon fill="#0000FF" points="533.8,445.2188,524.8,441.2188,528.8,445.2188,524.8,449.2188,533.8,445.2188" style="stroke:#0000FF;stroke-width:1.0;"/><polygon fill="#0000FF" points="221.28,445.2188,230.28,449.2188,226.28,445.2188,230.28,441.2188,221.28,445.2188" style="stroke:#0000FF;stroke-width:1.0;"/><text fill="#000000" font-family="sans-serif" font-size="13" lengthAdjust="spacing" textLength="21" x="353.5" y="441.7139">443</text></g><!--MD5=[ee2ef4eecfa3573aea85daa6bc3c2eba]
@startuml deploymentdiagram

skinparam ArtifactBorderColor DarkOrange
skinparam NodeBorderColor Darkgreen
skinparam DatabaseBorderColor firebrick

skinparam ArrowColor<<https>> blue
skinparam ArrowColor<<tcp>> darkviolet

left to right direction

header
<font color=blue size=14>https arrow</font>
<font color=darkviolet size=14>tcp/ip arrow</font> 
endheader

node "<<Device>>\nWindow Server 2019" as devserver {
    node "<<Server>>\n IIS 10.0" {
        node "<<Execution environment>>\n.Net 6" {
            artifact "<<Artifact>>\nRest api" as rest
        }
    }

    database "<<Server>>\nMSSQL 2019" as db

    node "<<Server>>\nKibana" as kibana
    node "<<Server>>\nElasticSearch" as elastic
    node "<<Server>>\nLogStash" as logstash
}

kibana <.. elastic<<https>> : 5601
logstash ..> elastic<<https>> : 9200
rest ..> elastic<<https>> : 9200

rest <..> db<<tcp>> : 1433

node "<<Device>>\nPC" as pc {
    node "<<Browser>>\nFirefox/Chrome/Safari/Edge" as n1 {
        artifact "<<Artifact>>\nJavascript" as a1
    }
}

node "<<Device>>\nPhone" as phone {
    node "<<Browser>>\nFirefox/Chrome/Safari/Edge" as n2 {
        artifact "<<Artifact>>\nJavascript" as a2
    }
}

node "<<Device>>\ndev PC" as dev {
    node "<<Browser>>\nFirefox/Chrome/Safari/Edge" as n3 
}

dev <..> kibana<<https>> : 5601

a1 <..> rest<<https>> : 443
a2 <..> rest<<https>> : 443


@enduml

PlantUML version 1.2022.7(Mon Aug 22 19:01:30 CEST 2022)
(GPL source distribution)
Java Runtime: Java(TM) SE Runtime Environment
JVM: Java HotSpot(TM) 64-Bit Server VM
Default Encoding: Cp1252
Language: da
Country: DK
--></g></svg>