<?xml version="1.0" encoding="UTF-8" standalone="no"?><svg xmlns="http://www.w3.org/2000/svg" xmlns:xlink="http://www.w3.org/1999/xlink" contentStyleType="text/css" height="439px" preserveAspectRatio="none" style="width:1116px;height:439px;background:#FFFFFF;" version="1.1" viewBox="0 0 1116 439" width="1116px" zoomAndPan="magnify"><defs/><g><!--MD5=[93e51899d99a79ff80efffde6dbc2b8d]
class IMessageService--><g id="elem_IMessageService"><rect codeLine="5" fill="#F1F1F1" height="65.6094" id="IMessageService" rx="2.5" ry="2.5" style="stroke:#181818;stroke-width:0.5;" width="336" x="550.5" y="125.5"/><ellipse cx="660.25" cy="141.5" fill="#B4A7E5" rx="11" ry="11" style="stroke:#181818;stroke-width:1.0;"/><path d="M661.2031,138.1406 L661.2031,144.7969 L662.9219,144.7969 Q663.5313,144.7969 663.7969,145.0313 Q664.0625,145.2656 664.0625,145.6563 Q664.0625,146.0313 663.7969,146.2656 Q663.5313,146.5 662.9219,146.5 L657.7813,146.5 Q657.1719,146.5 656.9063,146.2656 Q656.6406,146.0313 656.6406,145.6406 Q656.6406,145.2656 656.9063,145.0313 Q657.1719,144.7969 657.7813,144.7969 L659.5,144.7969 L659.5,138.1406 L657.7813,138.1406 Q657.1719,138.1406 656.9063,137.9063 Q656.6406,137.6719 656.6406,137.2813 Q656.6406,136.9063 656.9063,136.6719 Q657.1719,136.4375 657.7813,136.4375 L662.9219,136.4375 Q663.5313,136.4375 663.7969,136.6719 Q664.0625,136.9063 664.0625,137.2813 Q664.0625,137.6719 663.7969,137.9063 Q663.5313,138.1406 662.9219,138.1406 L661.2031,138.1406 Z " fill="#000000"/><text fill="#000000" font-family="sans-serif" font-size="14" font-style="italic" lengthAdjust="spacing" textLength="108" x="680.75" y="147.2285">IMessageService</text><line style="stroke:#181818;stroke-width:0.5;" x1="551.5" x2="885.5" y1="157.5" y2="157.5"/><line style="stroke:#181818;stroke-width:0.5;" x1="551.5" x2="885.5" y1="165.5" y2="165.5"/><ellipse cx="561.5" cy="179.8047" fill="#84BE84" rx="3" ry="3" style="stroke:#038048;stroke-width:1.0;"/><text fill="#000000" font-family="sans-serif" font-size="14" lengthAdjust="spacing" textLength="310" x="570.5" y="184.0332">SendMessageAsync(message : IMessage) : Task</text></g><!--MD5=[f948a8e2c97a6d71dd2f8ef0f98e44b8]
class MailMessageService--><g id="elem_MailMessageService"><rect codeLine="9" fill="#F1F1F1" height="136.0469" id="MailMessageService" rx="2.5" ry="2.5" style="stroke:#181818;stroke-width:0.5;" width="451" x="7" y="176.5"/><ellipse cx="163.75" cy="192.5" fill="#ADD1B2" rx="11" ry="11" style="stroke:#181818;stroke-width:1.0;"/><path d="M166.5156,188.375 Q166.6719,188.1563 166.8594,188.0469 Q167.0469,187.9375 167.2656,187.9375 Q167.6406,187.9375 167.875,188.2031 Q168.1094,188.4531 168.1094,189.0625 L168.1094,190.5156 Q168.1094,191.125 167.875,191.3906 Q167.6406,191.6563 167.2656,191.6563 Q166.9219,191.6563 166.7188,191.4531 Q166.5156,191.2656 166.4063,190.75 Q166.3594,190.3906 166.1719,190.2031 Q165.8438,189.8281 165.2344,189.6094 Q164.625,189.3906 164,189.3906 Q163.2344,189.3906 162.5938,189.7188 Q161.9688,190.0469 161.4688,190.7969 Q160.9844,191.5469 160.9844,192.5781 L160.9844,193.6719 Q160.9844,194.9063 161.875,195.7344 Q162.7656,196.5469 164.3594,196.5469 Q165.2969,196.5469 165.9531,196.2969 Q166.3438,196.1406 166.7656,195.7031 Q167.0313,195.4375 167.1719,195.3594 Q167.3281,195.2813 167.5313,195.2813 Q167.8594,195.2813 168.1094,195.5469 Q168.375,195.7969 168.375,196.1406 Q168.375,196.4844 168.0313,196.8906 Q167.5313,197.4688 166.7344,197.7969 Q165.6563,198.25 164.3594,198.25 Q162.8438,198.25 161.6406,197.625 Q160.6563,197.125 159.9688,196.0625 Q159.2813,194.9844 159.2813,193.7031 L159.2813,192.5469 Q159.2813,191.2188 159.8906,190.0781 Q160.5156,188.9219 161.6094,188.3125 Q162.7031,187.6875 163.9375,187.6875 Q164.6719,187.6875 165.3125,187.8594 Q165.9688,188.0156 166.5156,188.375 Z " fill="#000000"/><text fill="#000000" font-family="sans-serif" font-size="14" lengthAdjust="spacing" textLength="129" x="184.25" y="198.2285">MailMessageService</text><line style="stroke:#181818;stroke-width:0.5;" x1="8" x2="457" y1="208.5" y2="208.5"/><rect fill="none" height="6" style="stroke:#C82930;stroke-width:1.0;" width="6" x="15" y="219.8047"/><text fill="#000000" font-family="sans-serif" font-size="14" lengthAdjust="spacing" textLength="211" x="27" y="227.0332">configuration : SMTPConfigModel</text><rect fill="none" height="6" style="stroke:#C82930;stroke-width:1.0;" width="6" x="15" y="237.4141"/><text fill="#000000" font-family="sans-serif" font-size="14" lengthAdjust="spacing" textLength="146" x="27" y="244.6426">smtpClient : SmtpClient</text><line style="stroke:#181818;stroke-width:1.0;" x1="8" x2="457" y1="251.7188" y2="251.7188"/><ellipse cx="18" cy="266.0234" fill="#84BE84" rx="3" ry="3" style="stroke:#038048;stroke-width:1.0;"/><text fill="#000000" font-family="sans-serif" font-size="14" lengthAdjust="spacing" textLength="425" x="27" y="270.252">MailMessageService(configurations : IOptions&lt;SMTPConfigModel&gt;)</text><rect fill="#F24D5C" height="6" style="stroke:#C82930;stroke-width:1.0;" width="6" x="15" y="280.6328"/><text fill="#000000" font-family="sans-serif" font-size="14" lengthAdjust="spacing" textLength="400" x="27" y="287.8613">CreateMailMessage(message : string, to : string) : MailMessage</text><rect fill="#F24D5C" height="6" style="stroke:#C82930;stroke-width:1.0;" width="6" x="15" y="298.2422"/><text fill="#000000" font-family="sans-serif" font-size="14" lengthAdjust="spacing" textLength="153" x="27" y="305.4707">SetupSmtpClient() : void</text></g><!--MD5=[b99589589da93216cf7785fbc10ff721]
class SMTPConfigModel--><g id="elem_SMTPConfigModel"><rect codeLine="39" fill="#F1F1F1" height="206.4844" id="SMTPConfigModel" rx="2.5" ry="2.5" style="stroke:#181818;stroke-width:0.5;" width="214" x="611.5" y="226.5"/><ellipse cx="655.75" cy="242.5" fill="#ADD1B2" rx="11" ry="11" style="stroke:#181818;stroke-width:1.0;"/><path d="M658.5156,238.375 Q658.6719,238.1563 658.8594,238.0469 Q659.0469,237.9375 659.2656,237.9375 Q659.6406,237.9375 659.875,238.2031 Q660.1094,238.4531 660.1094,239.0625 L660.1094,240.5156 Q660.1094,241.125 659.875,241.3906 Q659.6406,241.6563 659.2656,241.6563 Q658.9219,241.6563 658.7188,241.4531 Q658.5156,241.2656 658.4063,240.75 Q658.3594,240.3906 658.1719,240.2031 Q657.8438,239.8281 657.2344,239.6094 Q656.625,239.3906 656,239.3906 Q655.2344,239.3906 654.5938,239.7188 Q653.9688,240.0469 653.4688,240.7969 Q652.9844,241.5469 652.9844,242.5781 L652.9844,243.6719 Q652.9844,244.9063 653.875,245.7344 Q654.7656,246.5469 656.3594,246.5469 Q657.2969,246.5469 657.9531,246.2969 Q658.3438,246.1406 658.7656,245.7031 Q659.0313,245.4375 659.1719,245.3594 Q659.3281,245.2813 659.5313,245.2813 Q659.8594,245.2813 660.1094,245.5469 Q660.375,245.7969 660.375,246.1406 Q660.375,246.4844 660.0313,246.8906 Q659.5313,247.4688 658.7344,247.7969 Q657.6563,248.25 656.3594,248.25 Q654.8438,248.25 653.6406,247.625 Q652.6563,247.125 651.9688,246.0625 Q651.2813,244.9844 651.2813,243.7031 L651.2813,242.5469 Q651.2813,241.2188 651.8906,240.0781 Q652.5156,238.9219 653.6094,238.3125 Q654.7031,237.6875 655.9375,237.6875 Q656.6719,237.6875 657.3125,237.8594 Q657.9688,238.0156 658.5156,238.375 Z " fill="#000000"/><text fill="#000000" font-family="sans-serif" font-size="14" lengthAdjust="spacing" textLength="117" x="676.25" y="248.2285">SMTPConfigModel</text><line style="stroke:#181818;stroke-width:0.5;" x1="612.5" x2="824.5" y1="258.5" y2="258.5"/><ellipse cx="622.5" cy="272.8047" fill="none" rx="3" ry="3" style="stroke:#038048;stroke-width:1.0;"/><text fill="#000000" font-family="sans-serif" font-size="14" lengthAdjust="spacing" textLength="145" x="631.5" y="277.0332">SenderAddress : string</text><ellipse cx="622.5" cy="290.4141" fill="none" rx="3" ry="3" style="stroke:#038048;stroke-width:1.0;"/><text fill="#000000" font-family="sans-serif" font-size="14" lengthAdjust="spacing" textLength="175" x="631.5" y="294.6426">SenderDisplayName : string</text><ellipse cx="622.5" cy="308.0234" fill="none" rx="3" ry="3" style="stroke:#038048;stroke-width:1.0;"/><text fill="#000000" font-family="sans-serif" font-size="14" lengthAdjust="spacing" textLength="112" x="631.5" y="312.252">UserName : string</text><ellipse cx="622.5" cy="325.6328" fill="none" rx="3" ry="3" style="stroke:#038048;stroke-width:1.0;"/><text fill="#000000" font-family="sans-serif" font-size="14" lengthAdjust="spacing" textLength="108" x="631.5" y="329.8613">Password : string</text><ellipse cx="622.5" cy="343.2422" fill="none" rx="3" ry="3" style="stroke:#038048;stroke-width:1.0;"/><text fill="#000000" font-family="sans-serif" font-size="14" lengthAdjust="spacing" textLength="75" x="631.5" y="347.4707">Host : string</text><ellipse cx="622.5" cy="360.8516" fill="none" rx="3" ry="3" style="stroke:#038048;stroke-width:1.0;"/><text fill="#000000" font-family="sans-serif" font-size="14" lengthAdjust="spacing" textLength="73" x="631.5" y="365.0801">Port : string</text><ellipse cx="622.5" cy="378.4609" fill="none" rx="3" ry="3" style="stroke:#038048;stroke-width:1.0;"/><text fill="#000000" font-family="sans-serif" font-size="14" lengthAdjust="spacing" textLength="117" x="631.5" y="382.6895">EnableSSL : string</text><ellipse cx="622.5" cy="396.0703" fill="none" rx="3" ry="3" style="stroke:#038048;stroke-width:1.0;"/><text fill="#000000" font-family="sans-serif" font-size="14" lengthAdjust="spacing" textLength="188" x="631.5" y="400.2988">UseDefaultCredentials : string</text><ellipse cx="622.5" cy="413.6797" fill="none" rx="3" ry="3" style="stroke:#038048;stroke-width:1.0;"/><text fill="#000000" font-family="sans-serif" font-size="14" lengthAdjust="spacing" textLength="116" x="631.5" y="417.9082">IsBodyHtml : string</text><line style="stroke:#181818;stroke-width:0.5;" x1="612.5" x2="824.5" y1="424.9844" y2="424.9844"/></g><!--MD5=[87a64bb4f7cf8289e3ea958cb604971b]
class IMessage--><g id="elem_IMessage"><rect codeLine="33" fill="#F1F1F1" height="83.2188" id="IMessage" rx="2.5" ry="2.5" style="stroke:#181818;stroke-width:0.5;" width="130" x="979" y="62"/><ellipse cx="1010.2" cy="78" fill="#B4A7E5" rx="11" ry="11" style="stroke:#181818;stroke-width:1.0;"/><path d="M1011.1531,74.6406 L1011.1531,81.2969 L1012.8719,81.2969 Q1013.4813,81.2969 1013.7469,81.5313 Q1014.0125,81.7656 1014.0125,82.1563 Q1014.0125,82.5313 1013.7469,82.7656 Q1013.4813,83 1012.8719,83 L1007.7313,83 Q1007.1219,83 1006.8563,82.7656 Q1006.5906,82.5313 1006.5906,82.1406 Q1006.5906,81.7656 1006.8563,81.5313 Q1007.1219,81.2969 1007.7313,81.2969 L1009.45,81.2969 L1009.45,74.6406 L1007.7313,74.6406 Q1007.1219,74.6406 1006.8563,74.4063 Q1006.5906,74.1719 1006.5906,73.7813 Q1006.5906,73.4063 1006.8563,73.1719 Q1007.1219,72.9375 1007.7313,72.9375 L1012.8719,72.9375 Q1013.4813,72.9375 1013.7469,73.1719 Q1014.0125,73.4063 1014.0125,73.7813 Q1014.0125,74.1719 1013.7469,74.4063 Q1013.4813,74.6406 1012.8719,74.6406 L1011.1531,74.6406 Z " fill="#000000"/><text fill="#000000" font-family="sans-serif" font-size="14" font-style="italic" lengthAdjust="spacing" textLength="62" x="1027.8" y="83.7285">IMessage</text><line style="stroke:#181818;stroke-width:0.5;" x1="980" x2="1108" y1="94" y2="94"/><ellipse cx="990" cy="108.3047" fill="none" rx="3" ry="3" style="stroke:#038048;stroke-width:1.0;"/><text fill="#000000" font-family="sans-serif" font-size="14" lengthAdjust="spacing" textLength="104" x="999" y="112.5332">Message : string</text><ellipse cx="990" cy="125.9141" fill="none" rx="3" ry="3" style="stroke:#038048;stroke-width:1.0;"/><text fill="#000000" font-family="sans-serif" font-size="14" lengthAdjust="spacing" textLength="64" x="999" y="130.1426">To : string</text><line style="stroke:#181818;stroke-width:0.5;" x1="980" x2="1108" y1="137.2188" y2="137.2188"/></g><!--MD5=[5009355033d421c5ef52ff093b464101]
class IMessageProvider--><g id="elem_IMessageProvider"><rect codeLine="25" fill="#F1F1F1" height="83.2188" id="IMessageProvider" rx="2.5" ry="2.5" style="stroke:#181818;stroke-width:0.5;" width="401" x="518" y="7"/><ellipse cx="657.25" cy="23" fill="#B4A7E5" rx="11" ry="11" style="stroke:#181818;stroke-width:1.0;"/><path d="M658.2031,19.6406 L658.2031,26.2969 L659.9219,26.2969 Q660.5313,26.2969 660.7969,26.5313 Q661.0625,26.7656 661.0625,27.1563 Q661.0625,27.5313 660.7969,27.7656 Q660.5313,28 659.9219,28 L654.7813,28 Q654.1719,28 653.9063,27.7656 Q653.6406,27.5313 653.6406,27.1406 Q653.6406,26.7656 653.9063,26.5313 Q654.1719,26.2969 654.7813,26.2969 L656.5,26.2969 L656.5,19.6406 L654.7813,19.6406 Q654.1719,19.6406 653.9063,19.4063 Q653.6406,19.1719 653.6406,18.7813 Q653.6406,18.4063 653.9063,18.1719 Q654.1719,17.9375 654.7813,17.9375 L659.9219,17.9375 Q660.5313,17.9375 660.7969,18.1719 Q661.0625,18.4063 661.0625,18.7813 Q661.0625,19.1719 660.7969,19.4063 Q660.5313,19.6406 659.9219,19.6406 L658.2031,19.6406 Z " fill="#000000"/><text fill="#000000" font-family="sans-serif" font-size="14" font-style="italic" lengthAdjust="spacing" textLength="114" x="677.75" y="28.7285">IMessageProvider</text><line style="stroke:#181818;stroke-width:0.5;" x1="519" x2="918" y1="39" y2="39"/><line style="stroke:#181818;stroke-width:0.5;" x1="519" x2="918" y1="47" y2="47"/><ellipse cx="529" cy="61.3047" fill="#84BE84" rx="3" ry="3" style="stroke:#038048;stroke-width:1.0;"/><text fill="#000000" font-family="sans-serif" font-size="14" lengthAdjust="spacing" textLength="347" x="538" y="65.5332">GetRegisterMessage(to: string, key : string) : IMessage</text><ellipse cx="529" cy="78.9141" fill="#84BE84" rx="3" ry="3" style="stroke:#038048;stroke-width:1.0;"/><text fill="#000000" font-family="sans-serif" font-size="14" lengthAdjust="spacing" textLength="375" x="538" y="83.1426">GetLoginAttemptMessage(to: string, otp : string) : IMessage</text></g><!--MD5=[84f262efe365c02d647ace4036fb533b]
link MailMessageService to IMessageService--><g id="link_MailMessageService_IMessageService"><path codeLine="19" d="M458.07,184 C458.07,184 530.21,184 530.21,184 " fill="none" id="MailMessageService-to-IMessageService" style="stroke:#181818;stroke-width:1.0;stroke-dasharray:7.0,7.0;"/><polygon fill="none" points="530.21,177,550.21,184,530.21,191,530.21,177" style="stroke:#181818;stroke-width:1.0;"/></g><!--MD5=[6d8bd7eb997d9455c5239cf184a99a38]
reverse link MailMessageService to SMTPConfigModel--><g id="link_MailMessageService_SMTPConfigModel"><path codeLine="20" d="M471.07,269.5 C471.07,269.5 611.43,269.5 611.43,269.5 " fill="none" id="MailMessageService-backto-SMTPConfigModel" style="stroke:#181818;stroke-width:1.0;"/><polygon fill="none" points="458.07,269.5,464.07,273.5,470.07,269.5,464.07,265.5,458.07,269.5" style="stroke:#181818;stroke-width:1.0;"/><text fill="#000000" font-family="sans-serif" font-size="13" lengthAdjust="spacing" textLength="7" x="466.3022" y="284.1865">1</text><text fill="#000000" font-family="sans-serif" font-size="13" lengthAdjust="spacing" textLength="7" x="596.6555" y="279.3342">1</text></g><!--MD5=[ad7ffd7377132007790af34bbec9a68f]
link IMessageService to IMessage--><g id="link_IMessageService_IMessage"><path codeLine="22" d="M886.97,135.25 C886.97,135.25 973.93,135.25 973.93,135.25 " fill="none" id="IMessageService-to-IMessage" style="stroke:#181818;stroke-width:1.0;"/><polygon fill="#181818" points="978.93,135.25,969.93,131.25,973.93,135.25,969.93,139.25,978.93,135.25" style="stroke:#181818;stroke-width:1.0;"/><text fill="#000000" font-family="sans-serif" font-size="13" lengthAdjust="spacing" textLength="7" x="894.7624" y="148.0709">1</text><text fill="#000000" font-family="sans-serif" font-size="13" lengthAdjust="spacing" textLength="7" x="964.0016" y="153.3489">1</text></g><!--MD5=[61d59c21046cfc4b139cea30a80a7eda]
link IMessageProvider to IMessage--><g id="link_IMessageProvider_IMessage"><path codeLine="30" d="M919.08,76 C919.08,76 973.73,76 973.73,76 " fill="none" id="IMessageProvider-to-IMessage" style="stroke:#181818;stroke-width:1.0;"/><polygon fill="#181818" points="978.73,76,969.73,72,973.73,76,969.73,80,978.73,76" style="stroke:#181818;stroke-width:1.0;"/><text fill="#000000" font-family="sans-serif" font-size="13" lengthAdjust="spacing" textLength="7" x="927.0519" y="90.8844">1</text><text fill="#000000" font-family="sans-serif" font-size="13" lengthAdjust="spacing" textLength="7" x="964.2083" y="87.3696">1</text></g><!--MD5=[76a9dfcc64fd1b53bc73330d2da1e1a0]
@startuml API class diagram

left to right direction
skinparam linetype ortho
'Services'
interface IMessageService {
    +SendMessageAsync(message : IMessage) : Task
}

class MailMessageService{
    -configuration : SMTPConfigModel
    -smtpClient : SmtpClient
    - -
    +MailMessageService(configurations : IOptions<SMTPConfigModel>)
    -CreateMailMessage(message : string, to : string) : MailMessage
    -SetupSmtpClient() : void 
}

'Service mappings'
MailMessageService .-|> IMessageService
MailMessageService"1" o- - "1" SMTPConfigModel

IMessageService "1" - -> "1" IMessage

'Providers'
interface IMessageProvider{
    +GetRegisterMessage(to: string, key : string) : IMessage
    +GetLoginAttemptMessage(to: string, otp : string) : IMessage
}
'Provider mapping'
IMessageProvider "1" - -> "1" IMessage

'Models'
interface IMessage{
    +Message : string
    +To : string
}


class SMTPConfigModel {
    +SenderAddress : string
    +SenderDisplayName : string
    +UserName : string
    +Password : string
    +Host : string
    +Port : string
    +EnableSSL : string
    +UseDefaultCredentials : string
    +IsBodyHtml : string
}

@enduml

@startuml API class diagram

left to right direction
skinparam linetype ortho
interface IMessageService {
    +SendMessageAsync(message : IMessage) : Task
}

class MailMessageService{
    -configuration : SMTPConfigModel
    -smtpClient : SmtpClient
    - -
    +MailMessageService(configurations : IOptions<SMTPConfigModel>)
    -CreateMailMessage(message : string, to : string) : MailMessage
    -SetupSmtpClient() : void 
}

MailMessageService .-|> IMessageService
MailMessageService"1" o- - "1" SMTPConfigModel

IMessageService "1" - -> "1" IMessage

interface IMessageProvider{
    +GetRegisterMessage(to: string, key : string) : IMessage
    +GetLoginAttemptMessage(to: string, otp : string) : IMessage
}
IMessageProvider "1" - -> "1" IMessage

interface IMessage{
    +Message : string
    +To : string
}


class SMTPConfigModel {
    +SenderAddress : string
    +SenderDisplayName : string
    +UserName : string
    +Password : string
    +Host : string
    +Port : string
    +EnableSSL : string
    +UseDefaultCredentials : string
    +IsBodyHtml : string
}

@enduml

PlantUML version 1.2022.7(Mon Aug 22 19:01:30 CEST 2022)
(GPL source distribution)
Java Runtime: OpenJDK Runtime Environment
JVM: OpenJDK 64-Bit Server VM
Default Encoding: Cp1252
Language: en
Country: US
--></g></svg>