<?xml version="1.0" encoding="UTF-8" standalone="no"?><svg xmlns="http://www.w3.org/2000/svg" xmlns:xlink="http://www.w3.org/1999/xlink" contentStyleType="text/css" height="856px" preserveAspectRatio="none" style="width:1032px;height:856px;background:#FFFFFF;" version="1.1" viewBox="0 0 1032 856" width="1032px" zoomAndPan="magnify"><defs/><g><rect fill="none" height="79.0547" style="stroke:#000000;stroke-width:1.5;" width="481" x="10" y="221.0156"/><rect fill="none" height="79.0547" style="stroke:#000000;stroke-width:1.5;" width="481" x="10" y="374.7734"/><line style="stroke:#181818;stroke-width:0.5;stroke-dasharray:5.0,5.0;" x1="37" x2="37" y1="82.6094" y2="774.3438"/><line style="stroke:#181818;stroke-width:0.5;stroke-dasharray:5.0,5.0;" x1="234" x2="234" y1="82.6094" y2="774.3438"/><line style="stroke:#181818;stroke-width:0.5;stroke-dasharray:5.0,5.0;" x1="431" x2="431" y1="82.6094" y2="774.3438"/><line style="stroke:#181818;stroke-width:0.5;stroke-dasharray:5.0,5.0;" x1="620.5" x2="620.5" y1="82.6094" y2="774.3438"/><line style="stroke:#181818;stroke-width:0.5;stroke-dasharray:5.0,5.0;" x1="733.5" x2="733.5" y1="82.6094" y2="774.3438"/><line style="stroke:#181818;stroke-width:0.5;stroke-dasharray:5.0,5.0;" x1="874.5" x2="874.5" y1="82.6094" y2="774.3438"/><line style="stroke:#181818;stroke-width:0.5;stroke-dasharray:5.0,5.0;" x1="993.5" x2="993.5" y1="82.6094" y2="774.3438"/><text fill="#000000" font-family="sans-serif" font-size="14" lengthAdjust="spacing" textLength="29" x="20" y="79.5332">User</text><ellipse cx="37.5" cy="13.5" fill="#E2E2F0" rx="8" ry="8" style="stroke:#181818;stroke-width:0.5;"/><path d="M37.5,21.5 L37.5,48.5 M24.5,29.5 L50.5,29.5 M37.5,48.5 L24.5,63.5 M37.5,48.5 L50.5,63.5 " fill="none" style="stroke:#181818;stroke-width:0.5;"/><text fill="#000000" font-family="sans-serif" font-size="14" lengthAdjust="spacing" textLength="29" x="20" y="787.877">User</text><ellipse cx="37.5" cy="799.4531" fill="#E2E2F0" rx="8" ry="8" style="stroke:#181818;stroke-width:0.5;"/><path d="M37.5,807.4531 L37.5,834.4531 M24.5,815.4531 L50.5,815.4531 M37.5,834.4531 L24.5,849.4531 M37.5,834.4531 L50.5,849.4531 " fill="none" style="stroke:#181818;stroke-width:0.5;"/><rect fill="#E2E2F0" height="31.6094" rx="2.5" ry="2.5" style="stroke:#181818;stroke-width:0.5;" width="105" x="182" y="50"/><text fill="#000000" font-family="sans-serif" font-size="14" lengthAdjust="spacing" textLength="91" x="189" y="71.5332">UserController</text><rect fill="#E2E2F0" height="31.6094" rx="2.5" ry="2.5" style="stroke:#181818;stroke-width:0.5;" width="105" x="182" y="773.3438"/><text fill="#000000" font-family="sans-serif" font-size="14" lengthAdjust="spacing" textLength="91" x="189" y="794.877">UserController</text><rect fill="#E2E2F0" height="31.6094" rx="2.5" ry="2.5" style="stroke:#181818;stroke-width:0.5;" width="99" x="382" y="50"/><text fill="#000000" font-family="sans-serif" font-size="14" lengthAdjust="spacing" textLength="85" x="389" y="71.5332">UserManager</text><rect fill="#E2E2F0" height="31.6094" rx="2.5" ry="2.5" style="stroke:#181818;stroke-width:0.5;" width="99" x="382" y="773.3438"/><text fill="#000000" font-family="sans-serif" font-size="14" lengthAdjust="spacing" textLength="85" x="389" y="794.877">UserManager</text><rect fill="#E2E2F0" height="31.6094" rx="2.5" ry="2.5" style="stroke:#181818;stroke-width:0.5;" width="96" x="572.5" y="50"/><text fill="#000000" font-family="sans-serif" font-size="14" lengthAdjust="spacing" textLength="82" x="579.5" y="71.5332">UserProvider</text><rect fill="#E2E2F0" height="31.6094" rx="2.5" ry="2.5" style="stroke:#181818;stroke-width:0.5;" width="96" x="572.5" y="773.3438"/><text fill="#000000" font-family="sans-serif" font-size="14" lengthAdjust="spacing" textLength="82" x="579.5" y="794.877">UserProvider</text><rect fill="#E2E2F0" height="31.6094" rx="2.5" ry="2.5" style="stroke:#181818;stroke-width:0.5;" width="110" x="678.5" y="50"/><text fill="#000000" font-family="sans-serif" font-size="14" lengthAdjust="spacing" textLength="96" x="685.5" y="71.5332">TokenManager</text><rect fill="#E2E2F0" height="31.6094" rx="2.5" ry="2.5" style="stroke:#181818;stroke-width:0.5;" width="110" x="678.5" y="773.3438"/><text fill="#000000" font-family="sans-serif" font-size="14" lengthAdjust="spacing" textLength="96" x="685.5" y="794.877">TokenManager</text><rect fill="#E2E2F0" height="31.6094" rx="2.5" ry="2.5" style="stroke:#181818;stroke-width:0.5;" width="153" x="798.5" y="50"/><text fill="#000000" font-family="sans-serif" font-size="14" lengthAdjust="spacing" textLength="139" x="805.5" y="71.5332">UserLocationManager</text><rect fill="#E2E2F0" height="31.6094" rx="2.5" ry="2.5" style="stroke:#181818;stroke-width:0.5;" width="153" x="798.5" y="773.3438"/><text fill="#000000" font-family="sans-serif" font-size="14" lengthAdjust="spacing" textLength="139" x="805.5" y="794.877">UserLocationManager</text><rect fill="#E2E2F0" height="31.6094" rx="2.5" ry="2.5" style="stroke:#181818;stroke-width:0.5;" width="65" x="961.5" y="50"/><text fill="#000000" font-family="sans-serif" font-size="14" lengthAdjust="spacing" textLength="51" x="968.5" y="71.5332">Security</text><rect fill="#E2E2F0" height="31.6094" rx="2.5" ry="2.5" style="stroke:#181818;stroke-width:0.5;" width="65" x="961.5" y="773.3438"/><text fill="#000000" font-family="sans-serif" font-size="14" lengthAdjust="spacing" textLength="51" x="968.5" y="794.877">Security</text><polygon fill="#181818" points="222.5,110.9609,232.5,114.9609,222.5,118.9609,226.5,114.9609" style="stroke:#181818;stroke-width:1.0;"/><line style="stroke:#181818;stroke-width:1.0;" x1="37.5" x2="228.5" y1="114.9609" y2="114.9609"/><text fill="#000000" font-family="sans-serif" font-size="13" lengthAdjust="spacing" textLength="173" x="44.5" y="110.1045">Create user (email, password)</text><polygon fill="#181818" points="419.5,141.3125,429.5,145.3125,419.5,149.3125,423.5,145.3125" style="stroke:#181818;stroke-width:1.0;"/><line style="stroke:#181818;stroke-width:1.0;" x1="234.5" x2="425.5" y1="145.3125" y2="145.3125"/><text fill="#000000" font-family="sans-serif" font-size="13" lengthAdjust="spacing" textLength="173" x="241.5" y="140.4561">Create user (email, password)</text><polygon fill="#181818" points="863,171.6641,873,175.6641,863,179.6641,867,175.6641" style="stroke:#181818;stroke-width:1.0;"/><line style="stroke:#181818;stroke-width:1.0;" x1="431.5" x2="869" y1="175.6641" y2="175.6641"/><text fill="#000000" font-family="sans-serif" font-size="13" lengthAdjust="spacing" textLength="185" x="438.5" y="170.8076">Check if ip is blocked (ipadress)</text><polygon fill="#181818" points="442.5,202.0156,432.5,206.0156,442.5,210.0156,438.5,206.0156" style="stroke:#181818;stroke-width:1.0;"/><line style="stroke:#181818;stroke-width:1.0;" x1="436.5" x2="874" y1="206.0156" y2="206.0156"/><text fill="#000000" font-family="sans-serif" font-size="13" lengthAdjust="spacing" textLength="157" x="448.5" y="201.1592">Returns whether ip is block</text><path d="M10,221.0156 L71,221.0156 L71,229.3672 L61,239.3672 L10,239.3672 L10,221.0156 " fill="#EEEEEE" style="stroke:#000000;stroke-width:1.5;"/><rect fill="none" height="79.0547" style="stroke:#000000;stroke-width:1.5;" width="481" x="10" y="221.0156"/><text fill="#000000" font-family="sans-serif" font-size="13" font-weight="bold" lengthAdjust="spacing" textLength="16" x="25" y="235.5107">alt</text><text fill="#000000" font-family="sans-serif" font-size="11" font-weight="bold" lengthAdjust="spacing" textLength="65" x="86" y="234.4346">[Ip blocked]</text><polygon fill="#181818" points="245.5,257.7188,235.5,261.7188,245.5,265.7188,241.5,261.7188" style="stroke:#181818;stroke-width:1.0;"/><line style="stroke:#181818;stroke-width:1.0;" x1="239.5" x2="430.5" y1="261.7188" y2="261.7188"/><text fill="#000000" font-family="sans-serif" font-size="13" lengthAdjust="spacing" textLength="57" x="251.5" y="256.8623">Forbidden</text><polygon fill="#181818" points="48.5,288.0703,38.5,292.0703,48.5,296.0703,44.5,292.0703" style="stroke:#181818;stroke-width:1.0;"/><line style="stroke:#181818;stroke-width:1.0;" x1="42.5" x2="233.5" y1="292.0703" y2="292.0703"/><text fill="#000000" font-family="sans-serif" font-size="13" lengthAdjust="spacing" textLength="57" x="54.5" y="287.2139">Forbidden</text><polygon fill="#181818" points="608.5,325.4219,618.5,329.4219,608.5,333.4219,612.5,329.4219" style="stroke:#181818;stroke-width:1.0;"/><line style="stroke:#181818;stroke-width:1.0;" x1="431.5" x2="614.5" y1="329.4219" y2="329.4219"/><text fill="#000000" font-family="sans-serif" font-size="13" lengthAdjust="spacing" textLength="142" x="438.5" y="324.5654">Get user by email(email)</text><polygon fill="#181818" points="442.5,355.7734,432.5,359.7734,442.5,363.7734,438.5,359.7734" style="stroke:#181818;stroke-width:1.0;"/><line style="stroke:#181818;stroke-width:1.0;" x1="436.5" x2="619.5" y1="359.7734" y2="359.7734"/><text fill="#000000" font-family="sans-serif" font-size="13" lengthAdjust="spacing" textLength="69" x="448.5" y="354.917">Return User</text><path d="M10,374.7734 L71,374.7734 L71,383.125 L61,393.125 L10,393.125 L10,374.7734 " fill="#EEEEEE" style="stroke:#000000;stroke-width:1.5;"/><rect fill="none" height="79.0547" style="stroke:#000000;stroke-width:1.5;" width="481" x="10" y="374.7734"/><text fill="#000000" font-family="sans-serif" font-size="13" font-weight="bold" lengthAdjust="spacing" textLength="16" x="25" y="389.2686">alt</text><text fill="#000000" font-family="sans-serif" font-size="11" font-weight="bold" lengthAdjust="spacing" textLength="69" x="86" y="388.1924">[User found]</text><polygon fill="#181818" points="245.5,411.4766,235.5,415.4766,245.5,419.4766,241.5,415.4766" style="stroke:#181818;stroke-width:1.0;"/><line style="stroke:#181818;stroke-width:1.0;" x1="239.5" x2="430.5" y1="415.4766" y2="415.4766"/><text fill="#000000" font-family="sans-serif" font-size="13" lengthAdjust="spacing" textLength="112" x="251.5" y="410.6201">User already exists</text><polygon fill="#181818" points="48.5,441.8281,38.5,445.8281,48.5,449.8281,44.5,445.8281" style="stroke:#181818;stroke-width:1.0;"/><line style="stroke:#181818;stroke-width:1.0;" x1="42.5" x2="233.5" y1="445.8281" y2="445.8281"/><text fill="#000000" font-family="sans-serif" font-size="13" lengthAdjust="spacing" textLength="112" x="54.5" y="440.9717">User already exists</text><polygon fill="#181818" points="982,479.1797,992,483.1797,982,487.1797,986,483.1797" style="stroke:#181818;stroke-width:1.0;"/><line style="stroke:#181818;stroke-width:1.0;" x1="431.5" x2="988" y1="483.1797" y2="483.1797"/><text fill="#000000" font-family="sans-serif" font-size="13" lengthAdjust="spacing" textLength="46" x="438.5" y="478.3232">Get salt</text><polygon fill="#181818" points="442.5,509.5313,432.5,513.5313,442.5,517.5313,438.5,513.5313" style="stroke:#181818;stroke-width:1.0;"/><line style="stroke:#181818;stroke-width:1.0;" x1="436.5" x2="993" y1="513.5313" y2="513.5313"/><text fill="#000000" font-family="sans-serif" font-size="13" lengthAdjust="spacing" textLength="63" x="448.5" y="508.6748">Return salt</text><polygon fill="#181818" points="982,539.8828,992,543.8828,982,547.8828,986,543.8828" style="stroke:#181818;stroke-width:1.0;"/><line style="stroke:#181818;stroke-width:1.0;" x1="431.5" x2="988" y1="543.8828" y2="543.8828"/><text fill="#000000" font-family="sans-serif" font-size="13" lengthAdjust="spacing" textLength="178" x="438.5" y="539.0264">Salt password (password, salt)</text><polygon fill="#181818" points="442.5,570.2344,432.5,574.2344,442.5,578.2344,438.5,574.2344" style="stroke:#181818;stroke-width:1.0;"/><line style="stroke:#181818;stroke-width:1.0;" x1="436.5" x2="993" y1="574.2344" y2="574.2344"/><text fill="#000000" font-family="sans-serif" font-size="13" lengthAdjust="spacing" textLength="136" x="448.5" y="569.3779">Return salted password</text><polygon fill="#181818" points="608.5,600.5859,618.5,604.5859,608.5,608.5859,612.5,604.5859" style="stroke:#181818;stroke-width:1.0;"/><line style="stroke:#181818;stroke-width:1.0;" x1="431.5" x2="614.5" y1="604.5859" y2="604.5859"/><text fill="#000000" font-family="sans-serif" font-size="13" lengthAdjust="spacing" textLength="165" x="438.5" y="599.7295">Save user in database (user)</text><polygon fill="#181818" points="442.5,630.9375,432.5,634.9375,442.5,638.9375,438.5,634.9375" style="stroke:#181818;stroke-width:1.0;"/><line style="stroke:#181818;stroke-width:1.0;" x1="436.5" x2="619.5" y1="634.9375" y2="634.9375"/><text fill="#000000" font-family="sans-serif" font-size="13" lengthAdjust="spacing" textLength="104" x="448.5" y="630.0811">Return saved user</text><polygon fill="#181818" points="245.5,661.2891,235.5,665.2891,245.5,669.2891,241.5,665.2891" style="stroke:#181818;stroke-width:1.0;"/><line style="stroke:#181818;stroke-width:1.0;" x1="239.5" x2="430.5" y1="665.2891" y2="665.2891"/><text fill="#000000" font-family="sans-serif" font-size="13" lengthAdjust="spacing" textLength="76" x="251.5" y="660.4326">Returns User</text><polygon fill="#181818" points="721.5,691.6406,731.5,695.6406,721.5,699.6406,725.5,695.6406" style="stroke:#181818;stroke-width:1.0;"/><line style="stroke:#181818;stroke-width:1.0;" x1="234.5" x2="727.5" y1="695.6406" y2="695.6406"/><text fill="#000000" font-family="sans-serif" font-size="13" lengthAdjust="spacing" textLength="143" x="241.5" y="690.7842">Get token for user (User)</text><polygon fill="#181818" points="245.5,721.9922,235.5,725.9922,245.5,729.9922,241.5,725.9922" style="stroke:#181818;stroke-width:1.0;"/><line style="stroke:#181818;stroke-width:1.0;" x1="239.5" x2="732.5" y1="725.9922" y2="725.9922"/><text fill="#000000" font-family="sans-serif" font-size="13" lengthAdjust="spacing" textLength="84" x="251.5" y="721.1357">Returns Token</text><polygon fill="#181818" points="48.5,752.3438,38.5,756.3438,48.5,760.3438,44.5,756.3438" style="stroke:#181818;stroke-width:1.0;"/><line style="stroke:#181818;stroke-width:1.0;" x1="42.5" x2="233.5" y1="756.3438" y2="756.3438"/><text fill="#000000" font-family="sans-serif" font-size="13" lengthAdjust="spacing" textLength="74" x="54.5" y="751.4873">Return token</text><!--MD5=[cf51f99e7d541bba13e4789d81663115]
@startuml Create User SD


actor User
participant UserController
participant UserManager
participant UserProvider
participant TokenManager
participant UserLocationManager
participant Security



User->UserController: Create user (email, password)
UserController->UserManager: Create user (email, password)
UserManager->UserLocationManager: Check if ip is blocked (ipadress)
UserLocationManager->UserManager: Returns whether ip is block

alt Ip blocked
UserManager->UserController: Forbidden
UserController->User: Forbidden
end

UserManager->UserProvider: Get user by email(email)
UserProvider->UserManager: Return User

alt User found

UserManager->UserController: User already exists
UserController->User: User already exists

end


UserManager->Security: Get salt
Security->UserManager: Return salt

UserManager->Security: Salt password (password, salt)
Security->UserManager: Return salted password

UserManager->UserProvider: Save user in database (user)
UserProvider->UserManager: Return saved user


UserManager->UserController: Returns User
UserController->TokenManager: Get token for user (User)
TokenManager->UserController: Returns Token

UserController->User: Return token

@enduml

PlantUML version 1.2022.7(Mon Aug 22 19:01:30 CEST 2022)
(GPL source distribution)
Java Runtime: Java(TM) SE Runtime Environment
JVM: Java HotSpot(TM) 64-Bit Server VM
Default Encoding: Cp1252
Language: en
Country: US
--></g></svg>