<?xml version="1.0" encoding="UTF-8" standalone="no"?><svg xmlns="http://www.w3.org/2000/svg" xmlns:xlink="http://www.w3.org/1999/xlink" contentStyleType="text/css" height="112px" preserveAspectRatio="none" style="width:452px;height:112px;background:#FFFFFF;" version="1.1" viewBox="0 0 452 112" width="452px" zoomAndPan="magnify"><defs/><g><!--MD5=[8fc3522a43f8c7199df5e09e5bb0188e]
entity user--><g id="elem_user"><ellipse cx="20.5" cy="27.8564" fill="#F1F1F1" rx="8" ry="8" style="stroke:#181818;stroke-width:0.5;"/><path d="M20.5,35.8564 L20.5,62.8564 M7.5,43.8564 L33.5,43.8564 M20.5,62.8564 L7.5,77.8564 M20.5,62.8564 L33.5,77.8564 " fill="none" style="stroke:#181818;stroke-width:0.5;"/><text fill="#000000" font-family="sans-serif" font-size="14" lengthAdjust="spacing" textLength="29" x="6" y="93.8896">User</text></g><g id="elem_Login"><ellipse cx="145.234" cy="24.3082" fill="#F1F1F1" rx="36.234" ry="15.4517" style="stroke:#181818;stroke-width:0.5;"/><text fill="#000000" font-family="sans-serif" font-size="14" lengthAdjust="spacing" textLength="35" x="127.734" y="28.0367">Login</text></g><g id="elem_Register"><ellipse cx="145.0928" cy="90.3436" fill="#F1F1F1" rx="49.0928" ry="15.4872" style="stroke:#181818;stroke-width:0.5;"/><text fill="#000000" font-family="sans-serif" font-size="14" lengthAdjust="spacing" textLength="53" x="116.1382" y="94.7371">Register</text></g><g id="elem_Verify Email"><ellipse cx="381.602" cy="90.4701" fill="#F1F1F1" rx="64.602" ry="15.6136" style="stroke:#181818;stroke-width:0.5;"/><text fill="#000000" font-family="sans-serif" font-size="14" lengthAdjust="spacing" textLength="74" x="341.602" y="94.9867">Verify Email</text></g><g id="elem_Verify Login"><ellipse cx="381.341" cy="24.4747" fill="#F1F1F1" rx="65.341" ry="15.6182" style="stroke:#181818;stroke-width:0.5;"/><text fill="#000000" font-family="sans-serif" font-size="14" lengthAdjust="spacing" textLength="75" x="340.841" y="28.9913">Verify Login</text></g><!--MD5=[3a3cfc1a5695812b32a6ddd0d7698adf]
link user to Login--><g id="link_user_Login"><path d="M35.08,54.5864 C52.83,49.6564 84.57,40.8464 109.22,34.0064 " fill="none" id="user-to-Login" style="stroke:#181818;stroke-width:1.0;"/><polygon fill="#181818" points="114.05,32.6664,104.3113,31.1974,109.2292,33.9929,106.4336,38.9107,114.05,32.6664" style="stroke:#181818;stroke-width:1.0;"/></g><!--MD5=[f90468d40988ffabbc11b4abc374ac69]
link user to Register--><g id="link_user_Register"><path d="M35.08,61.9064 C51.07,66.0764 78.41,73.2264 101.7,79.3064 " fill="none" id="user-to-Register" style="stroke:#181818;stroke-width:1.0;"/><polygon fill="#181818" points="106.6,80.5864,98.9107,74.4322,101.7639,79.3168,96.8793,82.17,106.6,80.5864" style="stroke:#181818;stroke-width:1.0;"/></g><!--MD5=[05c925b1079e25721f2430193bfdd6f7]
link Register to Verify Email--><g id="link_Register_Verify Email"><path d="M194.02,90.3564 C228,90.3564 274.08,90.3564 311.92,90.3564 " fill="none" id="Register-to-Verify Email" style="stroke:#181818;stroke-width:1.0;stroke-dasharray:7.0,7.0;"/><polygon fill="#181818" points="316.97,90.3564,307.97,86.3564,311.97,90.3564,307.97,94.3564,316.97,90.3564" style="stroke:#181818;stroke-width:1.0;"/><text fill="#000000" font-family="sans-serif" font-size="13" lengthAdjust="spacing" textLength="55" x="227.5" y="86.8516">«include»</text></g><!--MD5=[a9756bbed12996842fd5393f223fda60]
reverse link Login to Verify Login--><g id="link_Login_Verify Login"><path d="M186.23,24.3564 C221.82,24.3564 274.4,24.3564 315.88,24.3564 " fill="none" id="Login-backto-Verify Login" style="stroke:#181818;stroke-width:1.0;stroke-dasharray:7.0,7.0;"/><polygon fill="#181818" points="181.11,24.3564,190.11,28.3564,186.11,24.3564,190.11,20.3564,181.11,24.3564" style="stroke:#181818;stroke-width:1.0;"/><text fill="#000000" font-family="sans-serif" font-size="13" lengthAdjust="spacing" textLength="60" x="225" y="20.8516">«extends»</text></g><!--MD5=[e826822ee3bcfc248f21e4fbaa532da7]
@startuml Use cases
left to right direction

"User" as user

user - -> (Login)
user - -> (Register)
(Register) ..> (Verify Email): <<include>>
(Login) <.. (Verify Login): <<extends>>

@enduml

PlantUML version 1.2022.7(Mon Aug 22 19:01:30 CEST 2022)
(GPL source distribution)
Java Runtime: Java(TM) SE Runtime Environment
JVM: Java HotSpot(TM) 64-Bit Server VM
Default Encoding: Cp1252
Language: en
Country: US
--></g></svg>