<?xml version="1.0" encoding="UTF-8" standalone="no"?><svg xmlns="http://www.w3.org/2000/svg" xmlns:xlink="http://www.w3.org/1999/xlink" contentStyleType="text/css" height="331px" preserveAspectRatio="none" style="width:325px;height:331px;background:#FFFFFF;" version="1.1" viewBox="0 0 325 331" width="325px" zoomAndPan="magnify"><defs/><g><!--MD5=[99b31deea5d7419a569cd5090bf83263]
cluster System--><g id="cluster_System"><rect fill="none" height="318" rx="2.5" ry="2.5" style="stroke:#181818;stroke-width:1.0;" width="163" x="82" y="7"/><text fill="#000000" font-family="sans-serif" font-size="14" font-weight="bold" lengthAdjust="spacing" textLength="50" x="138.5" y="23.5332">System</text></g><g id="elem_u1"><ellipse cx="163.734" cy="292.9517" fill="#F1F1F1" rx="36.234" ry="15.4517" style="stroke:#181818;stroke-width:0.5;"/><text fill="#000000" font-family="sans-serif" font-size="14" lengthAdjust="spacing" textLength="35" x="146.234" y="296.6802">Login</text></g><g id="elem_u2"><ellipse cx="163.5928" cy="142.9872" fill="#F1F1F1" rx="49.0928" ry="15.4872" style="stroke:#181818;stroke-width:0.5;"/><text fill="#000000" font-family="sans-serif" font-size="14" lengthAdjust="spacing" textLength="53" x="134.6382" y="147.3807">Register</text></g><g id="elem_u3"><ellipse cx="163.602" cy="59.1136" fill="#F1F1F1" rx="64.602" ry="15.6136" style="stroke:#181818;stroke-width:0.5;"/><text fill="#000000" font-family="sans-serif" font-size="14" lengthAdjust="spacing" textLength="74" x="123.602" y="63.6302">Verify Email</text></g><g id="elem_u4"><ellipse cx="163.341" cy="209.1182" fill="#F1F1F1" rx="65.341" ry="15.6182" style="stroke:#181818;stroke-width:0.5;"/><text fill="#000000" font-family="sans-serif" font-size="14" lengthAdjust="spacing" textLength="75" x="122.841" y="213.6348">Verify Login</text></g><!--MD5=[8fc3522a43f8c7199df5e09e5bb0188e]
entity user--><g id="elem_user"><ellipse cx="20.5" cy="188.5" fill="#F1F1F1" rx="8" ry="8" style="stroke:#181818;stroke-width:0.5;"/><path d="M20.5,196.5 L20.5,223.5 M7.5,204.5 L33.5,204.5 M20.5,223.5 L7.5,238.5 M20.5,223.5 L33.5,238.5 " fill="none" style="stroke:#181818;stroke-width:0.5;"/><text fill="#000000" font-family="sans-serif" font-size="14" lengthAdjust="spacing" textLength="29" x="6" y="254.5332">User</text></g><!--MD5=[e2307af040e3f87d22824e7603ca28ec]
entity api--><g id="elem_api"><ellipse cx="305.5" cy="174.5" fill="#F1F1F1" rx="8" ry="8" style="stroke:#181818;stroke-width:0.5;"/><path d="M305.5,182.5 L305.5,209.5 M292.5,190.5 L318.5,190.5 M305.5,209.5 L292.5,224.5 M305.5,209.5 L318.5,224.5 " fill="none" style="stroke:#181818;stroke-width:0.5;"/><text fill="#000000" font-family="sans-serif" font-size="14" lengthAdjust="spacing" textLength="21" x="295" y="240.5332">API</text></g><!--MD5=[00cd1a0913fac11e59c8f7ddb037601d]
link user to u1--><g id="link_user_u1"><path d="M35.02,226.1 C58.05,238.18 105.31,262.99 135.37,278.76 " fill="none" id="user-to-u1" style="stroke:#181818;stroke-width:1.0;"/><polygon fill="#181818" points="140.04,281.21,133.9356,273.481,135.6145,278.883,130.2125,280.5619,140.04,281.21" style="stroke:#181818;stroke-width:1.0;"/></g><!--MD5=[aa6f08068a5178ce10a20232451fc4bf]
link user to u2--><g id="link_user_u2"><path d="M35.26,205.58 C45.34,196.31 59.7,184.22 74,176 C88.95,167.41 106.54,160.31 122.09,154.93 " fill="none" id="user-to-u2" style="stroke:#181818;stroke-width:1.0;"/><polygon fill="#181818" points="126.84,153.31,117.0336,152.3967,122.1023,154.9083,119.5908,159.977,126.84,153.31" style="stroke:#181818;stroke-width:1.0;"/></g><!--MD5=[b714b29b3b55099d6e573b5ea7d03601]
link u2 to u3--><g id="link_u2_u3"><path d="M163.5,127.2 C163.5,113.82 163.5,94.55 163.5,79.9 " fill="none" id="u2-to-u3" style="stroke:#181818;stroke-width:1.0;stroke-dasharray:7.0,7.0;"/><polygon fill="#181818" points="163.5,74.73,159.5,83.73,163.5,79.73,167.5,83.73,163.5,74.73" style="stroke:#181818;stroke-width:1.0;"/><text fill="#000000" font-family="sans-serif" font-size="13" lengthAdjust="spacing" textLength="55" x="124" y="106.4951">«include»</text></g><!--MD5=[7097f9702f7eb16e26d912201ce91cac]
reverse link u1 to u4--><g id="link_u1_u4"><path d="M163.5,272.02 C163.5,257.36 163.5,238.08 163.5,224.73 " fill="none" id="u1-backto-u4" style="stroke:#181818;stroke-width:1.0;stroke-dasharray:7.0,7.0;"/><polygon fill="#181818" points="163.5,277.2,167.5,268.2,163.5,272.2,159.5,268.2,163.5,277.2" style="stroke:#181818;stroke-width:1.0;"/><text fill="#000000" font-family="sans-serif" font-size="13" lengthAdjust="spacing" textLength="60" x="121.5" y="256.4951">«extends»</text></g><!--MD5=[dbe83a7c1b7f7f8d4debfab66d6af5ec]
link u1 to api--><g id="link_u1_api"><path d="M186.69,281.02 C204.81,271.05 230.95,256.23 253,242 C266.51,233.29 281.36,222.48 291.63,214.8 " fill="none" id="u1-api" style="stroke:#181818;stroke-width:1.0;"/></g><!--MD5=[7ef1909bb8b07693faf71bf40856fee7]
link u2 to api--><g id="link_u2_api"><path d="M198.2,154.17 C214.94,160.07 235.3,167.78 253,176 C266.59,182.31 281.43,190.86 291.67,197.03 " fill="none" id="u2-api" style="stroke:#181818;stroke-width:1.0;"/></g><!--MD5=[ecdbe736747aad3d5f3d897ca8d9eb12]
@startuml Use cases
left to right direction

"User" as user
"API" as api


rectangle System {
    usecase "Login" as u1
    usecase "Register" as u2
    usecase "Verify Email" as u3
    usecase "Verify Login" as u4
}

user - -> u1
user - -> u2

u2 .> u3: <<include>>
u1 <. u4: <<extends>>

u1 - - api
u2 - - api


@enduml

PlantUML version 1.2022.7(Mon Aug 22 19:01:30 CEST 2022)
(GPL source distribution)
Java Runtime: OpenJDK Runtime Environment
JVM: OpenJDK 64-Bit Server VM
Default Encoding: Cp1252
Language: en
Country: US
--></g></svg>