<?xml version="1.0" encoding="UTF-8" standalone="no"?><svg xmlns="http://www.w3.org/2000/svg" xmlns:xlink="http://www.w3.org/1999/xlink" contentStyleType="text/css" height="898px" preserveAspectRatio="none" style="width:664px;height:898px;background:#FFFFFF;" version="1.1" viewBox="0 0 664 898" width="664px" zoomAndPan="magnify"><defs/><g><ellipse cx="169.1094" cy="16" fill="#222222" rx="10" ry="10" style="stroke:none;stroke-width:1.0;"/><rect fill="#ADD8E6" height="35.0938" rx="12.5" ry="12.5" style="stroke:#181818;stroke-width:0.5;" width="156" x="91.1094" y="67"/><text fill="#000000" font-family="sans-serif" font-size="12" lengthAdjust="spacing" textLength="136" x="101.1094" y="89.457">Recieve create user data</text><g id="elem_#5"><polygon fill="#90EE90" points="169.1094,143,181.1094,155,169.1094,167,157.1094,155,169.1094,143" style="stroke:#181818;stroke-width:0.5;"/></g><rect fill="#ADD8E6" height="35.0938" rx="12.5" ry="12.5" style="stroke:#181818;stroke-width:0.5;" width="221" x="45.6094" y="208"/><text fill="#000000" font-family="sans-serif" font-size="12" lengthAdjust="spacing" textLength="201" x="55.6094" y="230.457">Return password incorrect message</text><g id="elem_#10"><polygon fill="#90EE90" points="299.1094,213.5,311.1094,225.5,299.1094,237.5,287.1094,225.5,299.1094,213.5" style="stroke:#181818;stroke-width:0.5;"/></g><rect fill="#ADD8E6" height="35.0938" rx="12.5" ry="12.5" style="stroke:#181818;stroke-width:0.5;" width="195" x="160.6094" y="298"/><text fill="#000000" font-family="sans-serif" font-size="12" lengthAdjust="spacing" textLength="175" x="170.6094" y="320.457">Return email not valid message</text><g id="elem_#15"><polygon fill="#90EE90" points="388.1094,303.5,400.1094,315.5,388.1094,327.5,376.1094,315.5,388.1094,303.5" style="stroke:#181818;stroke-width:0.5;"/></g><g id="elem_#18"><polygon fill="#90EE90" points="308.1094,393.5,320.1094,405.5,308.1094,417.5,296.1094,405.5,308.1094,393.5" style="stroke:#181818;stroke-width:0.5;"/></g><rect fill="#ADD8E6" height="35.0938" rx="12.5" ry="12.5" style="stroke:#181818;stroke-width:0.5;" width="227" x="176.6094" y="478"/><text fill="#000000" font-family="sans-serif" font-size="12" lengthAdjust="spacing" textLength="207" x="186.6094" y="500.457">Return email already in use message</text><g id="elem_#23"><polygon fill="#90EE90" points="436.1094,483.5,448.1094,495.5,436.1094,507.5,424.1094,495.5,436.1094,483.5" style="stroke:#181818;stroke-width:0.5;"/></g><rect fill="#ADD8E6" height="35.0938" rx="12.5" ry="12.5" style="stroke:#181818;stroke-width:0.5;" width="224" x="266.1094" y="568"/><text fill="#000000" font-family="sans-serif" font-size="12" lengthAdjust="spacing" textLength="204" x="276.1094" y="590.457">Return password is leaked message</text><rect fill="#ADD8E6" height="35.0938" rx="12.5" ry="12.5" style="stroke:#181818;stroke-width:0.5;" width="108" x="510.1094" y="568"/><text fill="#000000" font-family="sans-serif" font-size="12" lengthAdjust="spacing" textLength="88" x="520.1094" y="590.457">Hash password</text><rect fill="#ADD8E6" height="35.0938" rx="12.5" ry="12.5" style="stroke:#181818;stroke-width:0.5;" width="143" x="492.6094" y="644"/><text fill="#000000" font-family="sans-serif" font-size="12" lengthAdjust="spacing" textLength="123" x="502.6094" y="666.457">Save user in database</text><rect fill="#ADD8E6" height="35.0938" rx="12.5" ry="12.5" style="stroke:#181818;stroke-width:0.5;" width="178" x="475.1094" y="720"/><text fill="#000000" font-family="sans-serif" font-size="12" lengthAdjust="spacing" textLength="158" x="485.1094" y="742.457">Send verification mail to user</text><rect fill="#ADD8E6" height="35.0938" rx="12.5" ry="12.5" style="stroke:#181818;stroke-width:0.5;" width="75" x="526.6094" y="796"/><text fill="#000000" font-family="sans-serif" font-size="12" lengthAdjust="spacing" textLength="55" x="536.6094" y="818.457">Return Ok</text><ellipse cx="564.1094" cy="882" fill="none" rx="10" ry="10" style="stroke:#FF0000;stroke-width:1.0;"/><ellipse cx="564.6094" cy="882.5" fill="#FF0000" rx="6" ry="6" style="stroke:none;stroke-width:1.0;"/><rect fill="#ADD8E6" height="35.0938" rx="12.5" ry="12.5" style="stroke:#181818;stroke-width:0.5;" width="172" x="340.1094" y="388"/><text fill="#000000" font-family="sans-serif" font-size="12" lengthAdjust="spacing" textLength="152" x="350.1094" y="410.457">Return ip blocked message</text><!--MD5=[3932cca766dd937774683e8fb629e95d]
link start to Recieve create user data--><g id="link_start_Recieve create user data"><path d="M169.1094,26.25 C169.1094,35.43 169.1094,49.84 169.1094,61.9 " fill="none" id="start-to-Recieve create user data" style="stroke:#181818;stroke-width:1.0;"/><polygon fill="#181818" points="169.1094,66.91,173.1094,57.91,169.1094,61.91,165.1094,57.91,169.1094,66.91" style="stroke:#181818;stroke-width:1.0;"/></g><!--MD5=[9a4f310c66a1cf0d79eadeab6631b815]
link Recieve create user data to #5--><g id="link_Recieve create user data_#5"><path d="M169.1094,102.08 C169.1094,112.87 169.1094,126.88 169.1094,137.63 " fill="none" id="Recieve create user data-to-#5" style="stroke:#181818;stroke-width:1.0;"/><polygon fill="#181818" points="169.1094,142.92,173.1094,133.92,169.1094,137.92,165.1094,133.92,169.1094,142.92" style="stroke:#181818;stroke-width:1.0;"/><text fill="#000000" font-family="sans-serif" font-size="11" lengthAdjust="spacing" textLength="143" x="6" y="136.2309">password length &lt; 8 or &gt; 128</text></g><!--MD5=[48ffecb004d6665fcd15f83a20a04d74]
link #5 to Return password incorrect message--><g id="link_#5_Return password incorrect message"><path d="M167.2994,165.52 C165.4794,175.11 162.6094,190.23 160.2394,202.76 " fill="none" id="#5-to-Return password incorrect message" style="stroke:#181818;stroke-width:1.0;"/><polygon fill="#181818" points="159.2494,207.95,164.8508,199.8492,160.1777,203.0369,156.9899,198.3638,159.2494,207.95" style="stroke:#181818;stroke-width:1.0;"/></g><!--MD5=[46dcf2c2a445c5816f2e190415bdd366]
link #5 to #10--><g id="link_#5_#10"><path d="M177.1394,159.34 C195.2794,167.01 240.6194,186.86 276.1094,208 C280.3594,210.53 284.8194,213.62 288.6694,216.44 " fill="none" id="#5-to-#10" style="stroke:#181818;stroke-width:1.0;"/><polygon fill="#181818" points="292.8594,219.58,288.0594,210.98,288.8594,216.58,283.2594,217.38,292.8594,219.58" style="stroke:#181818;stroke-width:1.0;"/><text fill="#000000" font-family="sans-serif" font-size="11" lengthAdjust="spacing" textLength="78" x="319.8781" y="208.0973">Email is not valid</text></g><!--MD5=[6717b856b09893c2829b51a8775d289b]
link #10 to Return email not valid message--><g id="link_#10_Return email not valid message"><path d="M295.4694,234.31 C289.3594,247.42 276.8494,274.27 267.9894,293.28 " fill="none" id="#10-to-Return email not valid message" style="stroke:#181818;stroke-width:1.0;"/><polygon fill="#181818" points="265.8294,297.94,273.2366,291.449,267.9274,293.4015,265.975,288.0922,265.8294,297.94" style="stroke:#181818;stroke-width:1.0;"/><text fill="#000000" font-family="sans-serif" font-size="11" lengthAdjust="spacing" textLength="19" x="282.1094" y="275.4189">true</text></g><!--MD5=[964bdbcd74089faaa499bf5ab2d768b0]
link #10 to #15--><g id="link_#10_#15"><path d="M304.6794,232 C319.5394,246.7 360.2594,286.96 378.7494,305.25 " fill="none" id="#10-to-#15" style="stroke:#181818;stroke-width:1.0;"/><polygon fill="#181818" points="382.5394,309,378.9482,299.8292,378.9825,305.486,373.3257,305.5202,382.5394,309" style="stroke:#181818;stroke-width:1.0;"/><text fill="#000000" font-family="sans-serif" font-size="11" lengthAdjust="spacing" textLength="66" x="407.8531" y="296.4097">Ip not blocked</text></g><!--MD5=[0e1114768bb53af1996223704f2ad46c]
link #15 to #18--><g id="link_#15_#18"><path d="M382.8594,322.27 C369.4194,337.06 333.6294,376.43 316.9294,394.8 " fill="none" id="#15-to-#18" style="stroke:#181818;stroke-width:1.0;"/><polygon fill="#181818" points="313.4794,398.59,322.4978,394.6316,316.847,394.8942,316.5844,389.2434,313.4794,398.59" style="stroke:#181818;stroke-width:1.0;"/><text fill="#000000" font-family="sans-serif" font-size="11" lengthAdjust="spacing" textLength="56" x="233.1521" y="383.0425">Email exists</text></g><!--MD5=[976509b2790c1c22680f4b3c5889fb76]
link #18 to Return email already in use message--><g id="link_#18_Return email already in use message"><path d="M306.1794,415.92 C303.4094,429.45 298.2294,454.79 294.4994,473.04 " fill="none" id="#18-to-Return email already in use message" style="stroke:#181818;stroke-width:1.0;"/><polygon fill="#181818" points="293.4894,477.98,299.2082,469.9616,294.4892,473.081,291.3698,468.3619,293.4894,477.98" style="stroke:#181818;stroke-width:1.0;"/><text fill="#000000" font-family="sans-serif" font-size="11" lengthAdjust="spacing" textLength="19" x="302.1094" y="455.4189">true</text></g><!--MD5=[5724f06ad7198aebb2173aea72f26686]
link #18 to #23--><g id="link_#18_#23"><path d="M314.5794,411.51 C318.9294,414.83 324.7994,419.26 330.1094,423 C366.2694,448.51 376.6794,452.88 413.1094,478 C417.1794,480.81 421.5994,483.96 425.4794,486.75 " fill="none" id="#18-to-#23" style="stroke:#181818;stroke-width:1.0;"/><polygon fill="#181818" points="429.7094,489.81,424.7727,481.2877,425.662,486.8742,420.0755,487.7635,429.7094,489.81" style="stroke:#181818;stroke-width:1.0;"/><text fill="#000000" font-family="sans-serif" font-size="11" lengthAdjust="spacing" textLength="201" x="456.175" y="484.9181">User password exists in leaked database</text></g><!--MD5=[4c3fc2ae2b44e2b05a704debe2e9d0a5]
link #23 to Return password is leaked message--><g id="link_#23_Return password is leaked message"><path d="M431.5594,503.41 C423.1194,516.21 404.7294,544.12 391.8894,563.59 " fill="none" id="#23-to-Return password is leaked message" style="stroke:#181818;stroke-width:1.0;"/><polygon fill="#181818" points="389.0794,567.86,397.3789,562.5574,391.8364,563.6888,390.705,558.1462,389.0794,567.86" style="stroke:#181818;stroke-width:1.0;"/><text fill="#000000" font-family="sans-serif" font-size="11" lengthAdjust="spacing" textLength="22" x="412.1094" y="545.4189">True</text></g><!--MD5=[1a4bd90a42240aca3b0b14cbc9f3f803]
link #23 to Hash password--><g id="link_#23_Hash password"><path d="M442.6294,500.98 C459.4794,512.57 505.2494,544.04 535.5494,564.86 " fill="none" id="#23-to-Hash password" style="stroke:#181818;stroke-width:1.0;"/><polygon fill="#181818" points="539.8994,567.86,534.7355,559.4734,535.7746,565.034,530.214,566.0731,539.8994,567.86" style="stroke:#181818;stroke-width:1.0;"/><text fill="#000000" font-family="sans-serif" font-size="11" lengthAdjust="spacing" textLength="24" x="509.1094" y="545.4189">false</text></g><!--MD5=[c24b940335b56314a67cdd462dce68ef]
link Hash password to Save user in database--><g id="link_Hash password_Save user in database"><path d="M564.1094,603.29 C564.1094,613.79 564.1094,627.43 564.1094,638.75 " fill="none" id="Hash password-to-Save user in database" style="stroke:#181818;stroke-width:1.0;"/><polygon fill="#181818" points="564.1094,643.77,568.1094,634.77,564.1094,638.77,560.1094,634.77,564.1094,643.77" style="stroke:#181818;stroke-width:1.0;"/></g><!--MD5=[fa2c1f7f13d5961d5a4521b7a65b2a8d]
link Save user in database to Send verification mail to user--><g id="link_Save user in database_Send verification mail to user"><path d="M564.1094,679.29 C564.1094,689.79 564.1094,703.43 564.1094,714.75 " fill="none" id="Save user in database-to-Send verification mail to user" style="stroke:#181818;stroke-width:1.0;"/><polygon fill="#181818" points="564.1094,719.77,568.1094,710.77,564.1094,714.77,560.1094,710.77,564.1094,719.77" style="stroke:#181818;stroke-width:1.0;"/></g><!--MD5=[224f71504229e6875084820ec83952f5]
link Send verification mail to user to Return Ok--><g id="link_Send verification mail to user_Return Ok"><path d="M564.1094,755.29 C564.1094,765.79 564.1094,779.43 564.1094,790.75 " fill="none" id="Send verification mail to user-to-Return Ok" style="stroke:#181818;stroke-width:1.0;"/><polygon fill="#181818" points="564.1094,795.77,568.1094,786.77,564.1094,790.77,560.1094,786.77,564.1094,795.77" style="stroke:#181818;stroke-width:1.0;"/></g><!--MD5=[3301b7bb54ae2f7367459c898a9d1cb3]
link Return Ok to end--><g id="link_Return Ok_end"><path d="M564.1094,831.28 C564.1094,842.29 564.1094,856.52 564.1094,866.94 " fill="none" id="Return Ok-to-end" style="stroke:#181818;stroke-width:1.0;"/><polygon fill="#181818" points="564.1094,872,568.1094,863,564.1094,867,560.1094,863,564.1094,872" style="stroke:#181818;stroke-width:1.0;"/></g><!--MD5=[55ce135dfb706d56e1c824f45f1353f0]
link #15 to Return ip blocked message--><g id="link_#15_Return ip blocked message"><path d="M391.4794,324.31 C397.1394,337.42 408.7394,364.27 416.9494,383.28 " fill="none" id="#15-to-Return ip blocked message" style="stroke:#181818;stroke-width:1.0;"/><polygon fill="#181818" points="418.9594,387.94,419.0537,378.0916,416.9725,383.3517,411.7124,381.2705,418.9594,387.94" style="stroke:#181818;stroke-width:1.0;"/><text fill="#000000" font-family="sans-serif" font-size="11" lengthAdjust="spacing" textLength="24" x="411.1094" y="365.4189">false</text></g><!--MD5=[196884d928f4f33ab6d0693b2977f0fc]
@startuml Create User Flowchart

skinparam activity {
    BackgroundColor lightblue
    
    StartColor green
    EndColor red
    
    diamondBackgroundColor lightgreen
}


(*) - -> "Recieve create user data"
if "password length < 8 or > 128" then
  - -> "Return password incorrect message"
else
if "Email is not valid" then
	- ->[true] "Return email not valid message"
else
	if "Ip not blocked " then
		if "Email exists" then
			- ->[true] "Return email already in use message"
		else
			if "User password exists in leaked database" then
				- ->[True]"Return password is leaked message"
			else
				- ->[false] "Hash password"
				- -> "Save user in database"
				- -> "Send verification mail to user"
				- -> "Return Ok"
				- -> (*)
			end if
		end if
	else
	- ->[false] "Return ip blocked message"
end if

@enduml

PlantUML version 1.2022.7(Mon Aug 22 19:01:30 CEST 2022)
(GPL source distribution)
Java Runtime: OpenJDK Runtime Environment
JVM: OpenJDK 64-Bit Server VM
Default Encoding: Cp1252
Language: en
Country: US
--></g></svg>