<?xml version="1.0" encoding="UTF-8" standalone="no"?><svg xmlns="http://www.w3.org/2000/svg" xmlns:xlink="http://www.w3.org/1999/xlink" contentStyleType="text/css" height="642px" preserveAspectRatio="none" style="width:331px;height:642px;background:#FFFFFF;" version="1.1" viewBox="0 0 331 642" width="331px" zoomAndPan="magnify"><defs/><g><ellipse cx="158.5" cy="16" fill="#222222" rx="10" ry="10" style="stroke:none;stroke-width:1.0;"/><rect fill="#F1F1F1" height="35.0938" rx="12.5" ry="12.5" style="stroke:#181818;stroke-width:0.5;" width="156" x="80.5" y="67"/><text fill="#000000" font-family="sans-serif" font-size="12" lengthAdjust="spacing" textLength="136" x="90.5" y="89.457">Recieve create user data</text><g id="elem_#5"><polygon fill="#F1F1F1" points="158.5,143,170.5,155,158.5,167,146.5,155,158.5,143" style="stroke:#181818;stroke-width:0.5;"/></g><g id="elem_#8"><polygon fill="#F1F1F1" points="114.5,227.5,126.5,239.5,114.5,251.5,102.5,239.5,114.5,227.5" style="stroke:#181818;stroke-width:0.5;"/></g><rect fill="#F1F1F1" height="35.0938" rx="12.5" ry="12.5" style="stroke:#181818;stroke-width:0.5;" width="169" x="7" y="312"/><text fill="#000000" font-family="sans-serif" font-size="12" lengthAdjust="spacing" textLength="149" x="17" y="334.457">Throw Email already in use</text><rect fill="#F1F1F1" height="35.0938" rx="12.5" ry="12.5" style="stroke:#181818;stroke-width:0.5;" width="108" x="196.5" y="312"/><text fill="#000000" font-family="sans-serif" font-size="12" lengthAdjust="spacing" textLength="88" x="206.5" y="334.457">Hash password</text><rect fill="#F1F1F1" height="35.0938" rx="12.5" ry="12.5" style="stroke:#181818;stroke-width:0.5;" width="143" x="179" y="388"/><text fill="#000000" font-family="sans-serif" font-size="12" lengthAdjust="spacing" textLength="123" x="189" y="410.457">Save user in database</text><rect fill="#F1F1F1" height="35.0938" rx="12.5" ry="12.5" style="stroke:#181818;stroke-width:0.5;" width="149" x="176" y="464"/><text fill="#000000" font-family="sans-serif" font-size="12" lengthAdjust="spacing" textLength="129" x="186" y="486.457">Generate token for user</text><rect fill="#F1F1F1" height="35.0938" rx="12.5" ry="12.5" style="stroke:#181818;stroke-width:0.5;" width="90" x="205.5" y="540"/><text fill="#000000" font-family="sans-serif" font-size="12" lengthAdjust="spacing" textLength="70" x="215.5" y="562.457">Return token</text><ellipse cx="250.5" cy="626" fill="none" rx="10" ry="10" style="stroke:#222222;stroke-width:1.0;"/><ellipse cx="251" cy="626.5" fill="#222222" rx="6" ry="6" style="stroke:none;stroke-width:1.0;"/><rect fill="#F1F1F1" height="35.0938" rx="12.5" ry="12.5" style="stroke:#181818;stroke-width:0.5;" width="109" x="147" y="222"/><text fill="#000000" font-family="sans-serif" font-size="12" lengthAdjust="spacing" textLength="89" x="157" y="244.457">Throw forbidden</text><!--MD5=[3932cca766dd937774683e8fb629e95d]
link start to Recieve create user data--><g id="link_start_Recieve create user data"><path d="M158.5,26.25 C158.5,35.43 158.5,49.84 158.5,61.9 " fill="none" id="start-to-Recieve create user data" style="stroke:#181818;stroke-width:1.0;"/><polygon fill="#181818" points="158.5,66.91,162.5,57.91,158.5,61.91,154.5,57.91,158.5,66.91" style="stroke:#181818;stroke-width:1.0;"/></g><!--MD5=[9a4f310c66a1cf0d79eadeab6631b815]
link Recieve create user data to #5--><g id="link_Recieve create user data_#5"><path d="M158.5,102.08 C158.5,112.87 158.5,126.88 158.5,137.63 " fill="none" id="Recieve create user data-to-#5" style="stroke:#181818;stroke-width:1.0;"/><polygon fill="#181818" points="158.5,142.92,162.5,133.92,158.5,137.92,154.5,133.92,158.5,142.92" style="stroke:#181818;stroke-width:1.0;"/><text fill="#000000" font-family="sans-serif" font-size="11" lengthAdjust="spacing" textLength="66" x="72.6813" y="132.485">Ip not blocked</text></g><!--MD5=[0c0d8213b86c66ad298a167b10270357]
link #5 to #8--><g id="link_#5_#8"><path d="M154.6,163.32 C146.98,177.6 130.09,209.26 120.85,226.59 " fill="none" id="#5-to-#8" style="stroke:#181818;stroke-width:1.0;"/><polygon fill="#181818" points="118.46,231.08,126.2278,225.0251,120.8152,226.6694,119.1708,221.2568,118.46,231.08" style="stroke:#181818;stroke-width:1.0;"/><text fill="#000000" font-family="sans-serif" font-size="11" lengthAdjust="spacing" textLength="56" x="41.425" y="216.8097">Email exists</text></g><!--MD5=[fb46c95daabbe66d7a4e609be567ffdd]
link #8 to Throw Email already in use--><g id="link_#8_Throw Email already in use"><path d="M112.21,249.26 C108.74,262.53 102.05,288.15 97.2,306.67 " fill="none" id="#8-to-Throw Email already in use" style="stroke:#181818;stroke-width:1.0;"/><polygon fill="#181818" points="95.89,311.69,102.0443,304.0007,97.1597,306.8539,94.3065,301.9693,95.89,311.69" style="stroke:#181818;stroke-width:1.0;"/><text fill="#000000" font-family="sans-serif" font-size="11" lengthAdjust="spacing" textLength="19" x="105.5" y="289.4189">true</text></g><!--MD5=[aebfc591ccc6fb8b682fe7994e06f660]
link #8 to Hash password--><g id="link_#8_Hash password"><path d="M120.94,245.55 C125.27,248.9 131.15,253.32 136.5,257 C163.4,275.48 194.89,295.08 217.94,309.07 " fill="none" id="#8-to-Hash password" style="stroke:#181818;stroke-width:1.0;"/><polygon fill="#181818" points="222.44,311.8,216.8122,303.7174,218.1627,309.2107,212.6694,310.5611,222.44,311.8" style="stroke:#181818;stroke-width:1.0;"/><text fill="#000000" font-family="sans-serif" font-size="11" lengthAdjust="spacing" textLength="24" x="190.5" y="289.4189">false</text></g><!--MD5=[c24b940335b56314a67cdd462dce68ef]
link Hash password to Save user in database--><g id="link_Hash password_Save user in database"><path d="M250.5,347.29 C250.5,357.79 250.5,371.43 250.5,382.75 " fill="none" id="Hash password-to-Save user in database" style="stroke:#181818;stroke-width:1.0;"/><polygon fill="#181818" points="250.5,387.77,254.5,378.77,250.5,382.77,246.5,378.77,250.5,387.77" style="stroke:#181818;stroke-width:1.0;"/></g><!--MD5=[63fec40f8536669992f9006b48374785]
link Save user in database to Generate token for user--><g id="link_Save user in database_Generate token for user"><path d="M250.5,423.29 C250.5,433.79 250.5,447.43 250.5,458.75 " fill="none" id="Save user in database-to-Generate token for user" style="stroke:#181818;stroke-width:1.0;"/><polygon fill="#181818" points="250.5,463.77,254.5,454.77,250.5,458.77,246.5,454.77,250.5,463.77" style="stroke:#181818;stroke-width:1.0;"/></g><!--MD5=[ecc4c7a20eec23a9134f846750d4e969]
link Generate token for user to Return token--><g id="link_Generate token for user_Return token"><path d="M250.5,499.29 C250.5,509.79 250.5,523.43 250.5,534.75 " fill="none" id="Generate token for user-to-Return token" style="stroke:#181818;stroke-width:1.0;"/><polygon fill="#181818" points="250.5,539.77,254.5,530.77,250.5,534.77,246.5,530.77,250.5,539.77" style="stroke:#181818;stroke-width:1.0;"/></g><!--MD5=[e178f1f4068ee0e7f5aeacc8dbfee9ac]
link Return token to end--><g id="link_Return token_end"><path d="M250.5,575.28 C250.5,586.29 250.5,600.52 250.5,610.94 " fill="none" id="Return token-to-end" style="stroke:#181818;stroke-width:1.0;"/><polygon fill="#181818" points="250.5,616,254.5,607,250.5,611,246.5,607,250.5,616" style="stroke:#181818;stroke-width:1.0;"/></g><!--MD5=[ef3ae516c658708f685e3740e1de40d0]
link #5 to Throw forbidden--><g id="link_#5_Throw forbidden"><path d="M162.32,163.32 C168.52,175.22 181.01,199.19 190.23,216.88 " fill="none" id="#5-to-Throw forbidden" style="stroke:#181818;stroke-width:1.0;"/><polygon fill="#181818" points="192.74,221.69,192.1546,211.8586,190.4413,217.2497,185.0502,215.5364,192.74,221.69" style="stroke:#181818;stroke-width:1.0;"/><text fill="#000000" font-family="sans-serif" font-size="11" lengthAdjust="spacing" textLength="24" x="182.5" y="199.4189">false</text></g><!--MD5=[b47af36550845428be03252aec029a36]
@startuml Create User Flowchart

(*) - -> "Recieve create user data"
if "Ip not blocked " then
  if "Email exists" then
    - ->[true] "Throw Email already in use"
  else 
    - ->[false] "Hash password"
    - -> "Save user in database"
    - -> "Generate token for user"
    - -> "Return token"
    - -> (*)
  end if 
  else
  - ->[false] "Throw forbidden"
end if
@enduml

PlantUML version 1.2022.7(Mon Aug 22 19:01:30 CEST 2022)
(GPL source distribution)
Java Runtime: Java(TM) SE Runtime Environment
JVM: Java HotSpot(TM) 64-Bit Server VM
Default Encoding: Cp1252
Language: en
Country: US
--></g></svg>