<?xml version="1.0" encoding="UTF-8" standalone="no"?><svg xmlns="http://www.w3.org/2000/svg" xmlns:xlink="http://www.w3.org/1999/xlink" contentStyleType="text/css" height="808px" preserveAspectRatio="none" style="width:576px;height:808px;background:#FFFFFF;" version="1.1" viewBox="0 0 576 808" width="576px" zoomAndPan="magnify"><defs/><g><ellipse cx="169.1094" cy="16" fill="#222222" rx="10" ry="10" style="stroke:none;stroke-width:1.0;"/><rect fill="#ADD8E6" height="35.0938" rx="12.5" ry="12.5" style="stroke:#181818;stroke-width:0.5;" width="156" x="91.1094" y="67"/><text fill="#000000" font-family="sans-serif" font-size="12" lengthAdjust="spacing" textLength="136" x="101.1094" y="89.457">Recieve create user data</text><g id="elem_#5"><polygon fill="#90EE90" points="169.1094,143,181.1094,155,169.1094,167,157.1094,155,169.1094,143" style="stroke:#181818;stroke-width:0.5;"/></g><rect fill="#ADD8E6" height="35.0938" rx="12.5" ry="12.5" style="stroke:#181818;stroke-width:0.5;" width="221" x="45.6094" y="208"/><text fill="#000000" font-family="sans-serif" font-size="12" lengthAdjust="spacing" textLength="201" x="55.6094" y="230.457">Return password incorrect message</text><g id="elem_#10"><polygon fill="#90EE90" points="299.1094,213.5,311.1094,225.5,299.1094,237.5,287.1094,225.5,299.1094,213.5" style="stroke:#181818;stroke-width:0.5;"/></g><g id="elem_#13"><polygon fill="#90EE90" points="220.1094,303.5,232.1094,315.5,220.1094,327.5,208.1094,315.5,220.1094,303.5" style="stroke:#181818;stroke-width:0.5;"/></g><rect fill="#ADD8E6" height="35.0938" rx="12.5" ry="12.5" style="stroke:#181818;stroke-width:0.5;" width="227" x="88.6094" y="388"/><text fill="#000000" font-family="sans-serif" font-size="12" lengthAdjust="spacing" textLength="207" x="98.6094" y="410.457">Return email already in use message</text><g id="elem_#18"><polygon fill="#90EE90" points="348.1094,393.5,360.1094,405.5,348.1094,417.5,336.1094,405.5,348.1094,393.5" style="stroke:#181818;stroke-width:0.5;"/></g><rect fill="#ADD8E6" height="35.0938" rx="12.5" ry="12.5" style="stroke:#181818;stroke-width:0.5;" width="224" x="178.1094" y="478"/><text fill="#000000" font-family="sans-serif" font-size="12" lengthAdjust="spacing" textLength="204" x="188.1094" y="500.457">Return password is leaked message</text><rect fill="#ADD8E6" height="35.0938" rx="12.5" ry="12.5" style="stroke:#181818;stroke-width:0.5;" width="108" x="422.1094" y="478"/><text fill="#000000" font-family="sans-serif" font-size="12" lengthAdjust="spacing" textLength="88" x="432.1094" y="500.457">Hash password</text><rect fill="#ADD8E6" height="35.0938" rx="12.5" ry="12.5" style="stroke:#181818;stroke-width:0.5;" width="143" x="404.6094" y="554"/><text fill="#000000" font-family="sans-serif" font-size="12" lengthAdjust="spacing" textLength="123" x="414.6094" y="576.457">Save user in database</text><rect fill="#ADD8E6" height="35.0938" rx="12.5" ry="12.5" style="stroke:#181818;stroke-width:0.5;" width="178" x="387.1094" y="630"/><text fill="#000000" font-family="sans-serif" font-size="12" lengthAdjust="spacing" textLength="158" x="397.1094" y="652.457">Send verification mail to user</text><rect fill="#ADD8E6" height="35.0938" rx="12.5" ry="12.5" style="stroke:#181818;stroke-width:0.5;" width="75" x="438.6094" y="706"/><text fill="#000000" font-family="sans-serif" font-size="12" lengthAdjust="spacing" textLength="55" x="448.6094" y="728.457">Return Ok</text><ellipse cx="476.1094" cy="792" fill="none" rx="10" ry="10" style="stroke:#FF0000;stroke-width:1.0;"/><ellipse cx="476.6094" cy="792.5" fill="#FF0000" rx="6" ry="6" style="stroke:none;stroke-width:1.0;"/><rect fill="#ADD8E6" height="35.0938" rx="12.5" ry="12.5" style="stroke:#181818;stroke-width:0.5;" width="172" x="252.1094" y="298"/><text fill="#000000" font-family="sans-serif" font-size="12" lengthAdjust="spacing" textLength="152" x="262.1094" y="320.457">Return ip blocked message</text><!--MD5=[3932cca766dd937774683e8fb629e95d]
link start to Recieve create user data--><g id="link_start_Recieve create user data"><path d="M169.1094,26.25 C169.1094,35.43 169.1094,49.84 169.1094,61.9 " fill="none" id="start-to-Recieve create user data" style="stroke:#181818;stroke-width:1.0;"/><polygon fill="#181818" points="169.1094,66.91,173.1094,57.91,169.1094,61.91,165.1094,57.91,169.1094,66.91" style="stroke:#181818;stroke-width:1.0;"/></g><!--MD5=[9a4f310c66a1cf0d79eadeab6631b815]
link Recieve create user data to #5--><g id="link_Recieve create user data_#5"><path d="M169.1094,102.08 C169.1094,112.87 169.1094,126.88 169.1094,137.63 " fill="none" id="Recieve create user data-to-#5" style="stroke:#181818;stroke-width:1.0;"/><polygon fill="#181818" points="169.1094,142.92,173.1094,133.92,169.1094,137.92,165.1094,133.92,169.1094,142.92" style="stroke:#181818;stroke-width:1.0;"/><text fill="#000000" font-family="sans-serif" font-size="11" lengthAdjust="spacing" textLength="143" x="6" y="136.2309">password length &lt; 8 or &gt; 128</text></g><!--MD5=[48ffecb004d6665fcd15f83a20a04d74]
link #5 to Return password incorrect message--><g id="link_#5_Return password incorrect message"><path d="M167.2994,165.52 C165.4794,175.11 162.6094,190.23 160.2394,202.76 " fill="none" id="#5-to-Return password incorrect message" style="stroke:#181818;stroke-width:1.0;"/><polygon fill="#181818" points="159.2494,207.95,164.8508,199.8492,160.1777,203.0369,156.9899,198.3638,159.2494,207.95" style="stroke:#181818;stroke-width:1.0;"/></g><!--MD5=[46dcf2c2a445c5816f2e190415bdd366]
link #5 to #10--><g id="link_#5_#10"><path d="M177.1394,159.34 C195.2794,167.01 240.6194,186.86 276.1094,208 C280.3594,210.53 284.8194,213.62 288.6694,216.44 " fill="none" id="#5-to-#10" style="stroke:#181818;stroke-width:1.0;"/><polygon fill="#181818" points="292.8594,219.58,288.0594,210.98,288.8594,216.58,283.2594,217.38,292.8594,219.58" style="stroke:#181818;stroke-width:1.0;"/><text fill="#000000" font-family="sans-serif" font-size="11" lengthAdjust="spacing" textLength="66" x="318.9906" y="206.8971">Ip not blocked</text></g><!--MD5=[9538665f2ab965abc6aeb4806bf673b9]
link #10 to #13--><g id="link_#10_#13"><path d="M293.6794,232.55 C280.1994,247.57 245.1094,286.66 228.7394,304.88 " fill="none" id="#10-to-#13" style="stroke:#181818;stroke-width:1.0;"/><polygon fill="#181818" points="225.3694,308.64,234.3632,304.6262,228.7142,304.9235,228.4169,299.2745,225.3694,308.64" style="stroke:#181818;stroke-width:1.0;"/><text fill="#000000" font-family="sans-serif" font-size="11" lengthAdjust="spacing" textLength="56" x="144.9239" y="293.1463">Email exists</text></g><!--MD5=[e9f441c170fb80fe1b6c19d41bc7de47]
link #13 to Return email already in use message--><g id="link_#13_Return email already in use message"><path d="M218.1794,325.92 C215.4094,339.45 210.2294,364.79 206.4994,383.04 " fill="none" id="#13-to-Return email already in use message" style="stroke:#181818;stroke-width:1.0;"/><polygon fill="#181818" points="205.4894,387.98,211.2082,379.9616,206.4892,383.081,203.3698,378.3619,205.4894,387.98" style="stroke:#181818;stroke-width:1.0;"/><text fill="#000000" font-family="sans-serif" font-size="11" lengthAdjust="spacing" textLength="19" x="214.1094" y="365.4189">true</text></g><!--MD5=[5b14e0bfd6ed502d365557b4ed922e16]
link #13 to #18--><g id="link_#13_#18"><path d="M226.5794,321.51 C230.9294,324.83 236.7994,329.26 242.1094,333 C278.2694,358.51 288.6794,362.88 325.1094,388 C329.1794,390.81 333.5994,393.96 337.4794,396.75 " fill="none" id="#13-to-#18" style="stroke:#181818;stroke-width:1.0;"/><polygon fill="#181818" points="341.7094,399.81,336.7727,391.2877,337.662,396.8742,332.0755,397.7635,341.7094,399.81" style="stroke:#181818;stroke-width:1.0;"/><text fill="#000000" font-family="sans-serif" font-size="11" lengthAdjust="spacing" textLength="201" x="368.175" y="394.9181">User password exists in leaked database</text></g><!--MD5=[4486e63fc51498651706f7e127585f40]
link #18 to Return password is leaked message--><g id="link_#18_Return password is leaked message"><path d="M343.5594,413.41 C335.1194,426.21 316.7294,454.12 303.8894,473.59 " fill="none" id="#18-to-Return password is leaked message" style="stroke:#181818;stroke-width:1.0;"/><polygon fill="#181818" points="301.0794,477.86,309.3789,472.5574,303.8364,473.6888,302.705,468.1462,301.0794,477.86" style="stroke:#181818;stroke-width:1.0;"/><text fill="#000000" font-family="sans-serif" font-size="11" lengthAdjust="spacing" textLength="22" x="324.1094" y="455.4189">True</text></g><!--MD5=[beb7d5394fae13cd2b4c1f2144682f1e]
link #18 to Hash password--><g id="link_#18_Hash password"><path d="M354.6294,410.98 C371.4794,422.57 417.2494,454.04 447.5494,474.86 " fill="none" id="#18-to-Hash password" style="stroke:#181818;stroke-width:1.0;"/><polygon fill="#181818" points="451.8994,477.86,446.7355,469.4734,447.7746,475.034,442.214,476.0731,451.8994,477.86" style="stroke:#181818;stroke-width:1.0;"/><text fill="#000000" font-family="sans-serif" font-size="11" lengthAdjust="spacing" textLength="24" x="421.1094" y="455.4189">false</text></g><!--MD5=[c24b940335b56314a67cdd462dce68ef]
link Hash password to Save user in database--><g id="link_Hash password_Save user in database"><path d="M476.1094,513.29 C476.1094,523.79 476.1094,537.43 476.1094,548.75 " fill="none" id="Hash password-to-Save user in database" style="stroke:#181818;stroke-width:1.0;"/><polygon fill="#181818" points="476.1094,553.77,480.1094,544.77,476.1094,548.77,472.1094,544.77,476.1094,553.77" style="stroke:#181818;stroke-width:1.0;"/></g><!--MD5=[fa2c1f7f13d5961d5a4521b7a65b2a8d]
link Save user in database to Send verification mail to user--><g id="link_Save user in database_Send verification mail to user"><path d="M476.1094,589.29 C476.1094,599.79 476.1094,613.43 476.1094,624.75 " fill="none" id="Save user in database-to-Send verification mail to user" style="stroke:#181818;stroke-width:1.0;"/><polygon fill="#181818" points="476.1094,629.77,480.1094,620.77,476.1094,624.77,472.1094,620.77,476.1094,629.77" style="stroke:#181818;stroke-width:1.0;"/></g><!--MD5=[224f71504229e6875084820ec83952f5]
link Send verification mail to user to Return Ok--><g id="link_Send verification mail to user_Return Ok"><path d="M476.1094,665.29 C476.1094,675.79 476.1094,689.43 476.1094,700.75 " fill="none" id="Send verification mail to user-to-Return Ok" style="stroke:#181818;stroke-width:1.0;"/><polygon fill="#181818" points="476.1094,705.77,480.1094,696.77,476.1094,700.77,472.1094,696.77,476.1094,705.77" style="stroke:#181818;stroke-width:1.0;"/></g><!--MD5=[3301b7bb54ae2f7367459c898a9d1cb3]
link Return Ok to end--><g id="link_Return Ok_end"><path d="M476.1094,741.28 C476.1094,752.29 476.1094,766.52 476.1094,776.94 " fill="none" id="Return Ok-to-end" style="stroke:#181818;stroke-width:1.0;"/><polygon fill="#181818" points="476.1094,782,480.1094,773,476.1094,777,472.1094,773,476.1094,782" style="stroke:#181818;stroke-width:1.0;"/></g><!--MD5=[b8128726461432fe90120866ba3e02c4]
link #10 to Return ip blocked message--><g id="link_#10_Return ip blocked message"><path d="M302.5694,234.31 C308.3794,247.42 320.2794,274.27 328.7094,293.28 " fill="none" id="#10-to-Return ip blocked message" style="stroke:#181818;stroke-width:1.0;"/><polygon fill="#181818" points="330.7694,297.94,330.8008,288.0912,328.7533,293.3645,323.48,291.3169,330.7694,297.94" style="stroke:#181818;stroke-width:1.0;"/><text fill="#000000" font-family="sans-serif" font-size="11" lengthAdjust="spacing" textLength="24" x="322.1094" y="275.4189">false</text></g><!--MD5=[c97cef17698105cd7b93d9d0edda36ba]
@startuml Create User Flowchart

skinparam activity {
    BackgroundColor lightblue
    
    StartColor green
    EndColor red
    
    diamondBackgroundColor lightgreen
}


(*) - -> "Recieve create user data"
if "password length < 8 or > 128" then
  - -> "Return password incorrect message"
else
if "Ip not blocked " then
	if "Email exists" then
		- ->[true] "Return email already in use message"
	else
		if "User password exists in leaked database" then
			- ->[True]"Return password is leaked message"
		else
			- ->[false] "Hash password"
			- -> "Save user in database"
			- -> "Send verification mail to user"
			- -> "Return Ok"
			- -> (*)
		end if
	end if
else
- ->[false] "Return ip blocked message"

@enduml

PlantUML version 1.2022.7(Mon Aug 22 19:01:30 CEST 2022)
(GPL source distribution)
Java Runtime: Java(TM) SE Runtime Environment
JVM: Java HotSpot(TM) Client VM
Default Encoding: Cp1252
Language: en
Country: US
--></g></svg>