<?xml version="1.0" encoding="UTF-8" standalone="no"?><svg xmlns="http://www.w3.org/2000/svg" xmlns:xlink="http://www.w3.org/1999/xlink" contentStyleType="text/css" height="642px" preserveAspectRatio="none" style="width:491px;height:642px;background:#FFFFFF;" version="1.1" viewBox="0 0 491 642" width="491px" zoomAndPan="magnify"><defs/><g><ellipse cx="137" cy="16" fill="#222222" rx="10" ry="10" style="stroke:none;stroke-width:1.0;"/><rect fill="#F1F1F1" height="35.0938" rx="12.5" ry="12.5" style="stroke:#181818;stroke-width:0.5;" width="156" x="59" y="67"/><text fill="#000000" font-family="sans-serif" font-size="12" lengthAdjust="spacing" textLength="136" x="69" y="89.457">Recieve create user data</text><g id="elem_#5"><polygon fill="#F1F1F1" points="137,143,149,155,137,167,125,155,137,143" style="stroke:#181818;stroke-width:0.5;"/></g><rect fill="#F1F1F1" height="35.0938" rx="12.5" ry="12.5" style="stroke:#181818;stroke-width:0.5;" width="224" x="7" y="222"/><text fill="#000000" font-family="sans-serif" font-size="12" lengthAdjust="spacing" textLength="204" x="17" y="244.457">Throw Email already in use exception</text><g id="elem_#10"><polygon fill="#F1F1F1" points="263,227.5,275,239.5,263,251.5,251,239.5,263,227.5" style="stroke:#181818;stroke-width:0.5;"/></g><rect fill="#F1F1F1" height="35.0938" rx="12.5" ry="12.5" style="stroke:#181818;stroke-width:0.5;" width="207" x="103.5" y="312"/><text fill="#000000" font-family="sans-serif" font-size="12" lengthAdjust="spacing" textLength="187" x="113.5" y="334.457">Throw password leaked exception</text><rect fill="#F1F1F1" height="35.0938" rx="12.5" ry="12.5" style="stroke:#181818;stroke-width:0.5;" width="108" x="331" y="312"/><text fill="#000000" font-family="sans-serif" font-size="12" lengthAdjust="spacing" textLength="88" x="341" y="334.457">Hash password</text><rect fill="#F1F1F1" height="35.0938" rx="12.5" ry="12.5" style="stroke:#181818;stroke-width:0.5;" width="143" x="313.5" y="388"/><text fill="#000000" font-family="sans-serif" font-size="12" lengthAdjust="spacing" textLength="123" x="323.5" y="410.457">Save user in database</text><rect fill="#F1F1F1" height="35.0938" rx="12.5" ry="12.5" style="stroke:#181818;stroke-width:0.5;" width="149" x="310.5" y="464"/><text fill="#000000" font-family="sans-serif" font-size="12" lengthAdjust="spacing" textLength="129" x="320.5" y="486.457">Generate token for user</text><rect fill="#F1F1F1" height="35.0938" rx="12.5" ry="12.5" style="stroke:#181818;stroke-width:0.5;" width="90" x="340" y="540"/><text fill="#000000" font-family="sans-serif" font-size="12" lengthAdjust="spacing" textLength="70" x="350" y="562.457">Return token</text><ellipse cx="385" cy="626" fill="none" rx="10" ry="10" style="stroke:#222222;stroke-width:1.0;"/><ellipse cx="385.5" cy="626.5" fill="#222222" rx="6" ry="6" style="stroke:none;stroke-width:1.0;"/><!--MD5=[3932cca766dd937774683e8fb629e95d]
link start to Recieve create user data--><g id="link_start_Recieve create user data"><path d="M137,26.25 C137,35.43 137,49.84 137,61.9 " fill="none" id="start-to-Recieve create user data" style="stroke:#181818;stroke-width:1.0;"/><polygon fill="#181818" points="137,66.91,141,57.91,137,61.91,133,57.91,137,66.91" style="stroke:#181818;stroke-width:1.0;"/></g><!--MD5=[9a4f310c66a1cf0d79eadeab6631b815]
link Recieve create user data to #5--><g id="link_Recieve create user data_#5"><path d="M137,102.08 C137,112.87 137,126.88 137,137.63 " fill="none" id="Recieve create user data-to-#5" style="stroke:#181818;stroke-width:1.0;"/><polygon fill="#181818" points="137,142.92,141,133.92,137,137.92,133,133.92,137,142.92" style="stroke:#181818;stroke-width:1.0;"/><text fill="#000000" font-family="sans-serif" font-size="11" lengthAdjust="spacing" textLength="56" x="67.35" y="132.485">Email exists</text></g><!--MD5=[5b05cf38fa17b39ca6224bcbf1451753]
link #5 to Throw Email already in use exception--><g id="link_#5_Throw Email already in use exception"><path d="M135,165.14 C132.3,177.54 127.39,200.05 123.72,216.88 " fill="none" id="#5-to-Throw Email already in use exception" style="stroke:#181818;stroke-width:1.0;"/><polygon fill="#181818" points="122.62,221.91,128.4329,213.9595,123.6774,217.0231,120.6138,212.2676,122.62,221.91" style="stroke:#181818;stroke-width:1.0;"/><text fill="#000000" font-family="sans-serif" font-size="11" lengthAdjust="spacing" textLength="19" x="132" y="199.4189">true</text></g><!--MD5=[46dcf2c2a445c5816f2e190415bdd366]
link #5 to #10--><g id="link_#5_#10"><path d="M144.19,160.29 C161.25,170.55 205.46,197.45 241,222 C244.84,224.65 248.95,227.68 252.58,230.42 " fill="none" id="#5-to-#10" style="stroke:#181818;stroke-width:1.0;"/><polygon fill="#181818" points="256.55,233.45,251.819,224.8118,252.5742,230.4181,246.9679,231.1732,256.55,233.45" style="stroke:#181818;stroke-width:1.0;"/><text fill="#000000" font-family="sans-serif" font-size="11" lengthAdjust="spacing" textLength="201" x="283.0016" y="228.4568">User password exists in leaked database</text></g><!--MD5=[861e413cd1c6a94b0573dbf161b7cb5e]
link #10 to Throw password leaked exception--><g id="link_#10_Throw password leaked exception"><path d="M258.61,247.41 C250.46,260.21 232.7,288.12 220.3,307.59 " fill="none" id="#10-to-Throw password leaked exception" style="stroke:#181818;stroke-width:1.0;"/><polygon fill="#181818" points="217.59,311.86,225.8001,306.4199,220.2772,307.6435,219.0536,302.1205,217.59,311.86" style="stroke:#181818;stroke-width:1.0;"/><text fill="#000000" font-family="sans-serif" font-size="11" lengthAdjust="spacing" textLength="22" x="240" y="289.4189">True</text></g><!--MD5=[fdeb4337d2c523d93ac3981afd67dd3a]
link #10 to Hash password--><g id="link_#10_Hash password"><path d="M269.56,245.23 C285.88,257 329.07,288.16 357.74,308.84 " fill="none" id="#10-to-Hash password" style="stroke:#181818;stroke-width:1.0;"/><polygon fill="#181818" points="361.86,311.81,356.8839,303.3107,357.7991,308.893,352.2167,309.8081,361.86,311.81" style="stroke:#181818;stroke-width:1.0;"/><text fill="#000000" font-family="sans-serif" font-size="11" lengthAdjust="spacing" textLength="24" x="332" y="289.4189">false</text></g><!--MD5=[c24b940335b56314a67cdd462dce68ef]
link Hash password to Save user in database--><g id="link_Hash password_Save user in database"><path d="M385,347.29 C385,357.79 385,371.43 385,382.75 " fill="none" id="Hash password-to-Save user in database" style="stroke:#181818;stroke-width:1.0;"/><polygon fill="#181818" points="385,387.77,389,378.77,385,382.77,381,378.77,385,387.77" style="stroke:#181818;stroke-width:1.0;"/></g><!--MD5=[63fec40f8536669992f9006b48374785]
link Save user in database to Generate token for user--><g id="link_Save user in database_Generate token for user"><path d="M385,423.29 C385,433.79 385,447.43 385,458.75 " fill="none" id="Save user in database-to-Generate token for user" style="stroke:#181818;stroke-width:1.0;"/><polygon fill="#181818" points="385,463.77,389,454.77,385,458.77,381,454.77,385,463.77" style="stroke:#181818;stroke-width:1.0;"/></g><!--MD5=[ecc4c7a20eec23a9134f846750d4e969]
link Generate token for user to Return token--><g id="link_Generate token for user_Return token"><path d="M385,499.29 C385,509.79 385,523.43 385,534.75 " fill="none" id="Generate token for user-to-Return token" style="stroke:#181818;stroke-width:1.0;"/><polygon fill="#181818" points="385,539.77,389,530.77,385,534.77,381,530.77,385,539.77" style="stroke:#181818;stroke-width:1.0;"/></g><!--MD5=[e178f1f4068ee0e7f5aeacc8dbfee9ac]
link Return token to end--><g id="link_Return token_end"><path d="M385,575.28 C385,586.29 385,600.52 385,610.94 " fill="none" id="Return token-to-end" style="stroke:#181818;stroke-width:1.0;"/><polygon fill="#181818" points="385,616,389,607,385,611,381,607,385,616" style="stroke:#181818;stroke-width:1.0;"/></g><!--MD5=[c7729443d3e6bfc92d1a46afd32b6df3]
@startuml Create User Flowchart

(*) - -> "Recieve create user data"
if "Email exists" then
  - ->[true] "Throw Email already in use exception"
else 
  if "User password exists in leaked database" then
    - ->[True]"Throw password leaked exception"
  else
    - ->[false] "Hash password"
    - -> "Save user in database"
    - -> "Generate token for user"
    - -> "Return token"
    - -> (*)
end if 

@enduml

PlantUML version 1.2022.7(Mon Aug 22 19:01:30 CEST 2022)
(GPL source distribution)
Java Runtime: Java(TM) SE Runtime Environment
JVM: Java HotSpot(TM) Client VM
Default Encoding: Cp1252
Language: en
Country: US
--></g></svg>