<?xml version="1.0" encoding="UTF-8" standalone="no"?><svg xmlns="http://www.w3.org/2000/svg" xmlns:xlink="http://www.w3.org/1999/xlink" contentStyleType="text/css" height="447px" preserveAspectRatio="none" style="width:793px;height:447px;background:#FFFFFF;" version="1.1" viewBox="0 0 793 447" width="793px" zoomAndPan="magnify"><defs/><g><!--MD5=[c440d0ec62d52438887050ab68cf2994]
class up--><g id="elem_up"><rect codeLine="3" fill="#F1F1F1" height="118.4375" id="up" rx="2.5" ry="2.5" style="stroke:#181818;stroke-width:0.5;" width="207" x="28" y="129.5"/><ellipse cx="78.75" cy="145.5" fill="#ADD1B2" rx="11" ry="11" style="stroke:#181818;stroke-width:1.0;"/><path d="M77.6094,146.2969 L77.6094,148.7969 L81.9375,148.7969 L81.9375,147.875 Q81.9375,147.2656 82.1797,147 Q82.4219,146.7344 82.7969,146.7344 Q83.1719,146.7344 83.4063,147 Q83.6406,147.2656 83.6406,147.875 L83.6406,150.5 L75.6406,150.5 Q75.0156,150.5 74.7578,150.2656 Q74.5,150.0313 74.5,149.6406 Q74.5,149.2656 74.7656,149.0313 Q75.0313,148.7969 75.6406,148.7969 L75.9063,148.7969 L75.9063,142.1406 L75.6406,142.1406 Q75.0156,142.1406 74.7578,141.9063 Q74.5,141.6719 74.5,141.2813 Q74.5,140.9063 74.7578,140.6719 Q75.0156,140.4375 75.6406,140.4375 L83.2656,140.4375 L83.2656,143.0313 Q83.2656,143.6406 83.0391,143.8984 Q82.8125,144.1563 82.4219,144.1563 Q82.0469,144.1563 81.8125,143.8984 Q81.5781,143.6406 81.5781,143.0313 L81.5781,142.1406 L77.6094,142.1406 L77.6094,144.5938 L79.0938,144.5938 Q79.0938,143.9375 79.2188,143.75 Q79.4844,143.3438 79.9531,143.3438 Q80.3281,143.3438 80.5625,143.6016 Q80.7969,143.8594 80.7969,144.4688 L80.7969,146.4375 Q80.7969,146.9844 80.6719,147.1719 Q80.4063,147.5625 79.9531,147.5625 Q79.4844,147.5625 79.2188,147.1563 Q79.0938,146.9688 79.0938,146.2969 L77.6094,146.2969 Z " fill="#000000"/><text fill="#000000" font-family="sans-serif" font-size="14" lengthAdjust="spacing" textLength="97" x="99.25" y="151.2285">UserPasswords</text><line style="stroke:#181818;stroke-width:0.5;" x1="29" x2="234" y1="161.5" y2="161.5"/><text fill="#000000" font-family="sans-serif" font-size="14" lengthAdjust="spacing" textLength="64" x="34" y="180.0332">ID int (PK)</text><text fill="#000000" font-family="sans-serif" font-size="14" lengthAdjust="spacing" textLength="100" x="34" y="197.6426">UsersID int (FK)</text><line style="stroke:#181818;stroke-width:1.0;" x1="29" x2="234" y1="204.7188" y2="204.7188"/><text fill="#000000" font-family="sans-serif" font-size="14" lengthAdjust="spacing" textLength="195" x="34" y="223.252">HashedPassword varchar(200)</text><text fill="#000000" font-family="sans-serif" font-size="14" lengthAdjust="spacing" textLength="110" x="34" y="240.8613">Salt varchar(200)</text></g><!--MD5=[09a5b4adb0ee554eafb73b413209c7bf]
class Users--><g id="elem_Users"><rect codeLine="11" fill="#F1F1F1" height="171.2656" id="Users" rx="2.5" ry="2.5" style="stroke:#181818;stroke-width:0.5;" width="216" x="324" y="144.5"/><ellipse cx="409.75" cy="160.5" fill="#ADD1B2" rx="11" ry="11" style="stroke:#181818;stroke-width:1.0;"/><path d="M408.6094,161.2969 L408.6094,163.7969 L412.9375,163.7969 L412.9375,162.875 Q412.9375,162.2656 413.1797,162 Q413.4219,161.7344 413.7969,161.7344 Q414.1719,161.7344 414.4063,162 Q414.6406,162.2656 414.6406,162.875 L414.6406,165.5 L406.6406,165.5 Q406.0156,165.5 405.7578,165.2656 Q405.5,165.0313 405.5,164.6406 Q405.5,164.2656 405.7656,164.0313 Q406.0313,163.7969 406.6406,163.7969 L406.9063,163.7969 L406.9063,157.1406 L406.6406,157.1406 Q406.0156,157.1406 405.7578,156.9063 Q405.5,156.6719 405.5,156.2813 Q405.5,155.9063 405.7578,155.6719 Q406.0156,155.4375 406.6406,155.4375 L414.2656,155.4375 L414.2656,158.0313 Q414.2656,158.6406 414.0391,158.8984 Q413.8125,159.1563 413.4219,159.1563 Q413.0469,159.1563 412.8125,158.8984 Q412.5781,158.6406 412.5781,158.0313 L412.5781,157.1406 L408.6094,157.1406 L408.6094,159.5938 L410.0938,159.5938 Q410.0938,158.9375 410.2188,158.75 Q410.4844,158.3438 410.9531,158.3438 Q411.3281,158.3438 411.5625,158.6016 Q411.7969,158.8594 411.7969,159.4688 L411.7969,161.4375 Q411.7969,161.9844 411.6719,162.1719 Q411.4063,162.5625 410.9531,162.5625 Q410.4844,162.5625 410.2188,162.1563 Q410.0938,161.9688 410.0938,161.2969 L408.6094,161.2969 Z " fill="#000000"/><text fill="#000000" font-family="sans-serif" font-size="14" lengthAdjust="spacing" textLength="36" x="430.25" y="166.2285">Users</text><line style="stroke:#181818;stroke-width:0.5;" x1="325" x2="539" y1="176.5" y2="176.5"/><text fill="#000000" font-family="sans-serif" font-size="14" lengthAdjust="spacing" textLength="64" x="330" y="195.0332">ID int (PK)</text><line style="stroke:#181818;stroke-width:1.0;" x1="325" x2="539" y1="202.1094" y2="202.1094"/><text fill="#000000" font-family="sans-serif" font-size="14" lengthAdjust="spacing" textLength="120" x="330" y="220.6426">Email varchar(100)</text><text fill="#000000" font-family="sans-serif" font-size="14" lengthAdjust="spacing" textLength="204" x="330" y="238.252">HashedVerification varchar(200)</text><text fill="#000000" font-family="sans-serif" font-size="14" lengthAdjust="spacing" textLength="113" x="330" y="255.8613">IsVerified boolean</text><text fill="#000000" font-family="sans-serif" font-size="14" lengthAdjust="spacing" textLength="142" x="330" y="273.4707">FirstName varchar(50)</text><text fill="#000000" font-family="sans-serif" font-size="14" lengthAdjust="spacing" textLength="141" x="330" y="291.0801">LastName varchar(50)</text><text fill="#000000" font-family="sans-serif" font-size="14" lengthAdjust="spacing" textLength="168" x="330" y="308.6895">PhoneNumber varcher(20)</text></g><!--MD5=[07e4f24bf6e57ed64741ef994efa961d]
class vul--><g id="elem_vul"><rect codeLine="21" fill="#F1F1F1" height="136.0469" id="vul" rx="2.5" ry="2.5" style="stroke:#181818;stroke-width:0.5;" width="170" x="616" y="127.5"/><ellipse cx="631" cy="143.5" fill="#ADD1B2" rx="11" ry="11" style="stroke:#181818;stroke-width:1.0;"/><path d="M629.8594,144.2969 L629.8594,146.7969 L634.1875,146.7969 L634.1875,145.875 Q634.1875,145.2656 634.4297,145 Q634.6719,144.7344 635.0469,144.7344 Q635.4219,144.7344 635.6563,145 Q635.8906,145.2656 635.8906,145.875 L635.8906,148.5 L627.8906,148.5 Q627.2656,148.5 627.0078,148.2656 Q626.75,148.0313 626.75,147.6406 Q626.75,147.2656 627.0156,147.0313 Q627.2813,146.7969 627.8906,146.7969 L628.1563,146.7969 L628.1563,140.1406 L627.8906,140.1406 Q627.2656,140.1406 627.0078,139.9063 Q626.75,139.6719 626.75,139.2813 Q626.75,138.9063 627.0078,138.6719 Q627.2656,138.4375 627.8906,138.4375 L635.5156,138.4375 L635.5156,141.0313 Q635.5156,141.6406 635.2891,141.8984 Q635.0625,142.1563 634.6719,142.1563 Q634.2969,142.1563 634.0625,141.8984 Q633.8281,141.6406 633.8281,141.0313 L633.8281,140.1406 L629.8594,140.1406 L629.8594,142.5938 L631.3438,142.5938 Q631.3438,141.9375 631.4688,141.75 Q631.7344,141.3438 632.2031,141.3438 Q632.5781,141.3438 632.8125,141.6016 Q633.0469,141.8594 633.0469,142.4688 L633.0469,144.4375 Q633.0469,144.9844 632.9219,145.1719 Q632.6563,145.5625 632.2031,145.5625 Q631.7344,145.5625 631.4688,145.1563 Q631.3438,144.9688 631.3438,144.2969 L629.8594,144.2969 Z " fill="#000000"/><text fill="#000000" font-family="sans-serif" font-size="14" lengthAdjust="spacing" textLength="138" x="645" y="149.2285">VerifiedUserLocations</text><line style="stroke:#181818;stroke-width:0.5;" x1="617" x2="785" y1="159.5" y2="159.5"/><text fill="#000000" font-family="sans-serif" font-size="14" lengthAdjust="spacing" textLength="64" x="622" y="178.0332">ID int (PK)</text><text fill="#000000" font-family="sans-serif" font-size="14" lengthAdjust="spacing" textLength="100" x="622" y="195.6426">UsersID int (FK)</text><line style="stroke:#181818;stroke-width:1.0;" x1="617" x2="785" y1="202.7188" y2="202.7188"/><text fill="#000000" font-family="sans-serif" font-size="14" lengthAdjust="spacing" textLength="81" x="622" y="221.252">IP binary(16)</text><text fill="#000000" font-family="sans-serif" font-size="14" lengthAdjust="spacing" textLength="75" x="622" y="238.8613">IPType byte</text><text fill="#000000" font-family="sans-serif" font-size="14" lengthAdjust="spacing" textLength="152" x="622" y="256.4707">UserAgent varchar(256)</text></g><!--MD5=[8281ac038f47a4bc5c79e57c7ea9f7a2]
class ur--><g id="elem_ur"><rect codeLine="30" fill="#F1F1F1" height="83.2188" id="ur" rx="2.5" ry="2.5" style="stroke:#181818;stroke-width:0.5;" width="112" x="645" y="322.5"/><ellipse cx="660" cy="338.5" fill="#ADD1B2" rx="11" ry="11" style="stroke:#181818;stroke-width:1.0;"/><path d="M658.8594,339.2969 L658.8594,341.7969 L663.1875,341.7969 L663.1875,340.875 Q663.1875,340.2656 663.4297,340 Q663.6719,339.7344 664.0469,339.7344 Q664.4219,339.7344 664.6563,340 Q664.8906,340.2656 664.8906,340.875 L664.8906,343.5 L656.8906,343.5 Q656.2656,343.5 656.0078,343.2656 Q655.75,343.0313 655.75,342.6406 Q655.75,342.2656 656.0156,342.0313 Q656.2813,341.7969 656.8906,341.7969 L657.1563,341.7969 L657.1563,335.1406 L656.8906,335.1406 Q656.2656,335.1406 656.0078,334.9063 Q655.75,334.6719 655.75,334.2813 Q655.75,333.9063 656.0078,333.6719 Q656.2656,333.4375 656.8906,333.4375 L664.5156,333.4375 L664.5156,336.0313 Q664.5156,336.6406 664.2891,336.8984 Q664.0625,337.1563 663.6719,337.1563 Q663.2969,337.1563 663.0625,336.8984 Q662.8281,336.6406 662.8281,336.0313 L662.8281,335.1406 L658.8594,335.1406 L658.8594,337.5938 L660.3438,337.5938 Q660.3438,336.9375 660.4688,336.75 Q660.7344,336.3438 661.2031,336.3438 Q661.5781,336.3438 661.8125,336.6016 Q662.0469,336.8594 662.0469,337.4688 L662.0469,339.4375 Q662.0469,339.9844 661.9219,340.1719 Q661.6563,340.5625 661.2031,340.5625 Q660.7344,340.5625 660.4688,340.1563 Q660.3438,339.9688 660.3438,339.2969 L658.8594,339.2969 Z " fill="#000000"/><text fill="#000000" font-family="sans-serif" font-size="14" lengthAdjust="spacing" textLength="80" x="674" y="344.2285">Users_Roles</text><line style="stroke:#181818;stroke-width:0.5;" x1="646" x2="756" y1="354.5" y2="354.5"/><text fill="#000000" font-family="sans-serif" font-size="14" lengthAdjust="spacing" textLength="100" x="651" y="373.0332">UsersID int (FK)</text><text fill="#000000" font-family="sans-serif" font-size="14" lengthAdjust="spacing" textLength="100" x="651" y="390.6426">RolesID int (FK)</text><line style="stroke:#181818;stroke-width:1.0;" x1="646" x2="756" y1="397.7188" y2="397.7188"/></g><!--MD5=[d880429f06877f77d04df3530938df96]
class Roles--><g id="elem_Roles"><rect codeLine="36" fill="#F1F1F1" height="83.2188" id="Roles" rx="2.5" ry="2.5" style="stroke:#181818;stroke-width:0.5;" width="126" x="369" y="357.5"/><ellipse cx="410.1" cy="373.5" fill="#ADD1B2" rx="11" ry="11" style="stroke:#181818;stroke-width:1.0;"/><path d="M408.9594,374.2969 L408.9594,376.7969 L413.2875,376.7969 L413.2875,375.875 Q413.2875,375.2656 413.5297,375 Q413.7719,374.7344 414.1469,374.7344 Q414.5219,374.7344 414.7563,375 Q414.9906,375.2656 414.9906,375.875 L414.9906,378.5 L406.9906,378.5 Q406.3656,378.5 406.1078,378.2656 Q405.85,378.0313 405.85,377.6406 Q405.85,377.2656 406.1156,377.0313 Q406.3813,376.7969 406.9906,376.7969 L407.2563,376.7969 L407.2563,370.1406 L406.9906,370.1406 Q406.3656,370.1406 406.1078,369.9063 Q405.85,369.6719 405.85,369.2813 Q405.85,368.9063 406.1078,368.6719 Q406.3656,368.4375 406.9906,368.4375 L414.6156,368.4375 L414.6156,371.0313 Q414.6156,371.6406 414.3891,371.8984 Q414.1625,372.1563 413.7719,372.1563 Q413.3969,372.1563 413.1625,371.8984 Q412.9281,371.6406 412.9281,371.0313 L412.9281,370.1406 L408.9594,370.1406 L408.9594,372.5938 L410.4438,372.5938 Q410.4438,371.9375 410.5688,371.75 Q410.8344,371.3438 411.3031,371.3438 Q411.6781,371.3438 411.9125,371.6016 Q412.1469,371.8594 412.1469,372.4688 L412.1469,374.4375 Q412.1469,374.9844 412.0219,375.1719 Q411.7563,375.5625 411.3031,375.5625 Q410.8344,375.5625 410.5688,375.1563 Q410.4438,374.9688 410.4438,374.2969 L408.9594,374.2969 Z " fill="#000000"/><text fill="#000000" font-family="sans-serif" font-size="14" lengthAdjust="spacing" textLength="36" x="429.9" y="379.2285">Roles</text><line style="stroke:#181818;stroke-width:0.5;" x1="370" x2="494" y1="389.5" y2="389.5"/><text fill="#000000" font-family="sans-serif" font-size="14" lengthAdjust="spacing" textLength="64" x="375" y="408.0332">ID int (PK)</text><line style="stroke:#181818;stroke-width:1.0;" x1="370" x2="494" y1="415.1094" y2="415.1094"/><text fill="#000000" font-family="sans-serif" font-size="14" lengthAdjust="spacing" textLength="114" x="375" y="433.6426">Name varchar(50)</text></g><!--MD5=[677de6b3a66eab4fe26e6430158f0459]
class lp--><g id="elem_lp"><rect codeLine="42" fill="#F1F1F1" height="83.2188" id="lp" rx="2.5" ry="2.5" style="stroke:#181818;stroke-width:0.5;" width="249" x="7" y="7"/><ellipse cx="69.75" cy="23" fill="#ADD1B2" rx="11" ry="11" style="stroke:#181818;stroke-width:1.0;"/><path d="M68.6094,23.7969 L68.6094,26.2969 L72.9375,26.2969 L72.9375,25.375 Q72.9375,24.7656 73.1797,24.5 Q73.4219,24.2344 73.7969,24.2344 Q74.1719,24.2344 74.4063,24.5 Q74.6406,24.7656 74.6406,25.375 L74.6406,28 L66.6406,28 Q66.0156,28 65.7578,27.7656 Q65.5,27.5313 65.5,27.1406 Q65.5,26.7656 65.7656,26.5313 Q66.0313,26.2969 66.6406,26.2969 L66.9063,26.2969 L66.9063,19.6406 L66.6406,19.6406 Q66.0156,19.6406 65.7578,19.4063 Q65.5,19.1719 65.5,18.7813 Q65.5,18.4063 65.7578,18.1719 Q66.0156,17.9375 66.6406,17.9375 L74.2656,17.9375 L74.2656,20.5313 Q74.2656,21.1406 74.0391,21.3984 Q73.8125,21.6563 73.4219,21.6563 Q73.0469,21.6563 72.8125,21.3984 Q72.5781,21.1406 72.5781,20.5313 L72.5781,19.6406 L68.6094,19.6406 L68.6094,22.0938 L70.0938,22.0938 Q70.0938,21.4375 70.2188,21.25 Q70.4844,20.8438 70.9531,20.8438 Q71.3281,20.8438 71.5625,21.1016 Q71.7969,21.3594 71.7969,21.9688 L71.7969,23.9375 Q71.7969,24.4844 71.6719,24.6719 Q71.4063,25.0625 70.9531,25.0625 Q70.4844,25.0625 70.2188,24.6563 Q70.0938,24.4688 70.0938,23.7969 L68.6094,23.7969 Z " fill="#000000"/><text fill="#000000" font-family="sans-serif" font-size="14" lengthAdjust="spacing" textLength="115" x="90.25" y="28.7285">LeakedPasswords</text><line style="stroke:#181818;stroke-width:0.5;" x1="8" x2="255" y1="39" y2="39"/><text fill="#000000" font-family="sans-serif" font-size="14" lengthAdjust="spacing" textLength="237" x="13" y="57.5332">lp : HashedPassword nvchar(60) (PK)</text><line style="stroke:#181818;stroke-width:1.0;" x1="8" x2="255" y1="64.6094" y2="64.6094"/><text fill="#000000" font-family="sans-serif" font-size="14" lengthAdjust="spacing" textLength="106" x="13" y="83.1426">lp : PwnCount int</text></g><!--MD5=[53cecbcd42bab5beb58cbd342cf11955]
link Users to ur--><g id="link_Users_ur"><path codeLine="48" d="M541,188.5 C632.79,188.5 552.21,367.5 644,367.5 " fill="none" id="Users-ur" style="stroke:#181818;stroke-width:1.0;"/><text fill="#000000" font-family="sans-serif" font-size="13" lengthAdjust="spacing" textLength="7" x="571.8086" y="183.2904">1</text><text fill="#000000" font-family="sans-serif" font-size="13" lengthAdjust="spacing" textLength="5" x="632.1203" y="382.3325">*</text></g><!--MD5=[7f7be4dff37132cd7a40cf15801652a6]
link Roles to ur--><g id="link_Roles_ur"><path codeLine="49" d="M496,402.5 C562.26,402.5 577.74,384.5 644,384.5 " fill="none" id="Roles-ur" style="stroke:#181818;stroke-width:1.0;"/><text fill="#000000" font-family="sans-serif" font-size="13" lengthAdjust="spacing" textLength="7" x="502.9906" y="418.6698">1</text><text fill="#000000" font-family="sans-serif" font-size="13" lengthAdjust="spacing" textLength="5" x="632.1203" y="401.2981">*</text></g><!--MD5=[7580b634bffd886b36ac37643de085ea]
link Users to vul--><g id="link_Users_vul"><path codeLine="51" d="M541,188.5 C573.89,188.5 582.11,188.5 615,188.5 " fill="none" id="Users-vul" style="stroke:#181818;stroke-width:1.0;"/><text fill="#000000" font-family="sans-serif" font-size="13" lengthAdjust="spacing" textLength="7" x="571.8086" y="200.1654">1</text><text fill="#000000" font-family="sans-serif" font-size="13" lengthAdjust="spacing" textLength="5" x="602.9477" y="202.0869">*</text></g><!--MD5=[c7190fd7402f7f6abf89e286247c61d6]
link up to Users--><g id="link_up_Users"><path codeLine="53" d="M243.06,188.5 C269.26,188.5 297.12,188.5 323,188.5 " fill="none" id="up-Users" style="stroke:#181818;stroke-width:1.0;"/><text fill="#000000" font-family="sans-serif" font-size="13" lengthAdjust="spacing" textLength="7" x="243.06" y="201.9951">1</text><text fill="#000000" font-family="sans-serif" font-size="13" lengthAdjust="spacing" textLength="7" x="309.1445" y="199.9563">1</text></g><!--MD5=[cc6eb092b3b51455fbfcf693aca5d538]
@startuml ERD
left to right direction

entity "UserPasswords" as up{
    ID int (PK)
    UsersID int (FK)
    - -
    HashedPassword varchar(200)
    Salt varchar(200)
}

entity Users {
    ID int (PK)
    - -
    Email varchar(100)
    HashedVerification varchar(200)
    IsVerified boolean
    FirstName varchar(50)
    LastName varchar(50)
    PhoneNumber varcher(20)
}
entity "VerifiedUserLocations" as vul {
    ID int (PK)
    UsersID int (FK)
    - -
    IP binary(16)
    IPType byte
    UserAgent varchar(256)
}

entity "Users_Roles" as ur {
    UsersID int (FK)
    RolesID int (FK)
    - -
}

entity Roles {
    ID int (PK)
    - -
    Name varchar(50)
}

entity "LeakedPasswords" as lp {
    lp : HashedPassword nvchar(60) (PK)
    - -
    lp : PwnCount int
}

Users::ID"      1" - - "*"ur::UsersID
Roles::ID"1" - - "*"ur::RolesID

Users::ID"      1" - - "*"vul::UsersID

up::UserID"1" - - "1"Users::ID


@enduml

PlantUML version 1.2022.7(Mon Aug 22 19:01:30 CEST 2022)
(GPL source distribution)
Java Runtime: Java(TM) SE Runtime Environment
JVM: Java HotSpot(TM) 64-Bit Server VM
Default Encoding: Cp1252
Language: en
Country: US
--></g></svg>