<?xml version="1.0" encoding="UTF-8" standalone="no"?><svg xmlns="http://www.w3.org/2000/svg" xmlns:xlink="http://www.w3.org/1999/xlink" contentStyleType="text/css" height="467px" preserveAspectRatio="none" style="width:501px;height:467px;background:#FFFFFF;" version="1.1" viewBox="0 0 501 467" width="501px" zoomAndPan="magnify"><defs/><g><!--MD5=[09a5b4adb0ee554eafb73b413209c7bf]
class Users--><g id="elem_Users"><rect codeLine="3" fill="#F1F1F1" height="206.4844" id="Users" rx="2.5" ry="2.5" style="stroke:#181818;stroke-width:0.5;" width="216" x="23.5" y="129"/><ellipse cx="109.25" cy="145" fill="#ADD1B2" rx="11" ry="11" style="stroke:#181818;stroke-width:1.0;"/><path d="M108.1094,145.7969 L108.1094,148.2969 L112.4375,148.2969 L112.4375,147.375 Q112.4375,146.7656 112.6797,146.5 Q112.9219,146.2344 113.2969,146.2344 Q113.6719,146.2344 113.9063,146.5 Q114.1406,146.7656 114.1406,147.375 L114.1406,150 L106.1406,150 Q105.5156,150 105.2578,149.7656 Q105,149.5313 105,149.1406 Q105,148.7656 105.2656,148.5313 Q105.5313,148.2969 106.1406,148.2969 L106.4063,148.2969 L106.4063,141.6406 L106.1406,141.6406 Q105.5156,141.6406 105.2578,141.4063 Q105,141.1719 105,140.7813 Q105,140.4063 105.2578,140.1719 Q105.5156,139.9375 106.1406,139.9375 L113.7656,139.9375 L113.7656,142.5313 Q113.7656,143.1406 113.5391,143.3984 Q113.3125,143.6563 112.9219,143.6563 Q112.5469,143.6563 112.3125,143.3984 Q112.0781,143.1406 112.0781,142.5313 L112.0781,141.6406 L108.1094,141.6406 L108.1094,144.0938 L109.5938,144.0938 Q109.5938,143.4375 109.7188,143.25 Q109.9844,142.8438 110.4531,142.8438 Q110.8281,142.8438 111.0625,143.1016 Q111.2969,143.3594 111.2969,143.9688 L111.2969,145.9375 Q111.2969,146.4844 111.1719,146.6719 Q110.9063,147.0625 110.4531,147.0625 Q109.9844,147.0625 109.7188,146.6563 Q109.5938,146.4688 109.5938,145.7969 L108.1094,145.7969 Z " fill="#000000"/><text fill="#000000" font-family="sans-serif" font-size="14" lengthAdjust="spacing" textLength="36" x="129.75" y="150.7285">Users</text><line style="stroke:#181818;stroke-width:0.5;" x1="24.5" x2="238.5" y1="161" y2="161"/><text fill="#000000" font-family="sans-serif" font-size="14" lengthAdjust="spacing" textLength="64" x="29.5" y="179.5332">ID int (PK)</text><line style="stroke:#181818;stroke-width:1.0;" x1="24.5" x2="238.5" y1="186.6094" y2="186.6094"/><text fill="#000000" font-family="sans-serif" font-size="14" lengthAdjust="spacing" textLength="120" x="29.5" y="205.1426">Email varchar(100)</text><text fill="#000000" font-family="sans-serif" font-size="14" lengthAdjust="spacing" textLength="195" x="29.5" y="222.752">HashedPassword varchar(200)</text><text fill="#000000" font-family="sans-serif" font-size="14" lengthAdjust="spacing" textLength="110" x="29.5" y="240.3613">Salt varchar(200)</text><text fill="#000000" font-family="sans-serif" font-size="14" lengthAdjust="spacing" textLength="204" x="29.5" y="257.9707">HashedVerification varchar(200)</text><text fill="#000000" font-family="sans-serif" font-size="14" lengthAdjust="spacing" textLength="113" x="29.5" y="275.5801">IsVerified boolean</text><text fill="#000000" font-family="sans-serif" font-size="14" lengthAdjust="spacing" textLength="142" x="29.5" y="293.1895">FirstName varchar(50)</text><text fill="#000000" font-family="sans-serif" font-size="14" lengthAdjust="spacing" textLength="141" x="29.5" y="310.7988">LastName varchar(50)</text><text fill="#000000" font-family="sans-serif" font-size="14" lengthAdjust="spacing" textLength="168" x="29.5" y="328.4082">PhoneNumber varcher(20)</text></g><!--MD5=[07e4f24bf6e57ed64741ef994efa961d]
class vul--><g id="elem_vul"><rect codeLine="15" fill="#F1F1F1" height="136.0469" id="vul" rx="2.5" ry="2.5" style="stroke:#181818;stroke-width:0.5;" width="170" x="324" y="112.5"/><ellipse cx="339" cy="128.5" fill="#ADD1B2" rx="11" ry="11" style="stroke:#181818;stroke-width:1.0;"/><path d="M337.8594,129.2969 L337.8594,131.7969 L342.1875,131.7969 L342.1875,130.875 Q342.1875,130.2656 342.4297,130 Q342.6719,129.7344 343.0469,129.7344 Q343.4219,129.7344 343.6563,130 Q343.8906,130.2656 343.8906,130.875 L343.8906,133.5 L335.8906,133.5 Q335.2656,133.5 335.0078,133.2656 Q334.75,133.0313 334.75,132.6406 Q334.75,132.2656 335.0156,132.0313 Q335.2813,131.7969 335.8906,131.7969 L336.1563,131.7969 L336.1563,125.1406 L335.8906,125.1406 Q335.2656,125.1406 335.0078,124.9063 Q334.75,124.6719 334.75,124.2813 Q334.75,123.9063 335.0078,123.6719 Q335.2656,123.4375 335.8906,123.4375 L343.5156,123.4375 L343.5156,126.0313 Q343.5156,126.6406 343.2891,126.8984 Q343.0625,127.1563 342.6719,127.1563 Q342.2969,127.1563 342.0625,126.8984 Q341.8281,126.6406 341.8281,126.0313 L341.8281,125.1406 L337.8594,125.1406 L337.8594,127.5938 L339.3438,127.5938 Q339.3438,126.9375 339.4688,126.75 Q339.7344,126.3438 340.2031,126.3438 Q340.5781,126.3438 340.8125,126.6016 Q341.0469,126.8594 341.0469,127.4688 L341.0469,129.4375 Q341.0469,129.9844 340.9219,130.1719 Q340.6563,130.5625 340.2031,130.5625 Q339.7344,130.5625 339.4688,130.1563 Q339.3438,129.9688 339.3438,129.2969 L337.8594,129.2969 Z " fill="#000000"/><text fill="#000000" font-family="sans-serif" font-size="14" lengthAdjust="spacing" textLength="138" x="353" y="134.2285">VerifiedUserLocations</text><line style="stroke:#181818;stroke-width:0.5;" x1="325" x2="493" y1="144.5" y2="144.5"/><text fill="#000000" font-family="sans-serif" font-size="14" lengthAdjust="spacing" textLength="64" x="330" y="163.0332">ID int (PK)</text><text fill="#000000" font-family="sans-serif" font-size="14" lengthAdjust="spacing" textLength="100" x="330" y="180.6426">UsersID int (FK)</text><line style="stroke:#181818;stroke-width:1.0;" x1="325" x2="493" y1="187.7188" y2="187.7188"/><text fill="#000000" font-family="sans-serif" font-size="14" lengthAdjust="spacing" textLength="81" x="330" y="206.252">IP binary(16)</text><text fill="#000000" font-family="sans-serif" font-size="14" lengthAdjust="spacing" textLength="75" x="330" y="223.8613">IPType byte</text><text fill="#000000" font-family="sans-serif" font-size="14" lengthAdjust="spacing" textLength="152" x="330" y="241.4707">UserAgent varchar(256)</text></g><!--MD5=[8281ac038f47a4bc5c79e57c7ea9f7a2]
class ur--><g id="elem_ur"><rect codeLine="24" fill="#F1F1F1" height="83.2188" id="ur" rx="2.5" ry="2.5" style="stroke:#181818;stroke-width:0.5;" width="112" x="353" y="324.5"/><ellipse cx="368" cy="340.5" fill="#ADD1B2" rx="11" ry="11" style="stroke:#181818;stroke-width:1.0;"/><path d="M366.8594,341.2969 L366.8594,343.7969 L371.1875,343.7969 L371.1875,342.875 Q371.1875,342.2656 371.4297,342 Q371.6719,341.7344 372.0469,341.7344 Q372.4219,341.7344 372.6563,342 Q372.8906,342.2656 372.8906,342.875 L372.8906,345.5 L364.8906,345.5 Q364.2656,345.5 364.0078,345.2656 Q363.75,345.0313 363.75,344.6406 Q363.75,344.2656 364.0156,344.0313 Q364.2813,343.7969 364.8906,343.7969 L365.1563,343.7969 L365.1563,337.1406 L364.8906,337.1406 Q364.2656,337.1406 364.0078,336.9063 Q363.75,336.6719 363.75,336.2813 Q363.75,335.9063 364.0078,335.6719 Q364.2656,335.4375 364.8906,335.4375 L372.5156,335.4375 L372.5156,338.0313 Q372.5156,338.6406 372.2891,338.8984 Q372.0625,339.1563 371.6719,339.1563 Q371.2969,339.1563 371.0625,338.8984 Q370.8281,338.6406 370.8281,338.0313 L370.8281,337.1406 L366.8594,337.1406 L366.8594,339.5938 L368.3438,339.5938 Q368.3438,338.9375 368.4688,338.75 Q368.7344,338.3438 369.2031,338.3438 Q369.5781,338.3438 369.8125,338.6016 Q370.0469,338.8594 370.0469,339.4688 L370.0469,341.4375 Q370.0469,341.9844 369.9219,342.1719 Q369.6563,342.5625 369.2031,342.5625 Q368.7344,342.5625 368.4688,342.1563 Q368.3438,341.9688 368.3438,341.2969 L366.8594,341.2969 Z " fill="#000000"/><text fill="#000000" font-family="sans-serif" font-size="14" lengthAdjust="spacing" textLength="80" x="382" y="346.2285">Users_Roles</text><line style="stroke:#181818;stroke-width:0.5;" x1="354" x2="464" y1="356.5" y2="356.5"/><text fill="#000000" font-family="sans-serif" font-size="14" lengthAdjust="spacing" textLength="100" x="359" y="375.0332">UsersID int (FK)</text><text fill="#000000" font-family="sans-serif" font-size="14" lengthAdjust="spacing" textLength="100" x="359" y="392.6426">RolesID int (FK)</text><line style="stroke:#181818;stroke-width:1.0;" x1="354" x2="464" y1="399.7188" y2="399.7188"/></g><!--MD5=[d880429f06877f77d04df3530938df96]
class Roles--><g id="elem_Roles"><rect codeLine="30" fill="#F1F1F1" height="83.2188" id="Roles" rx="2.5" ry="2.5" style="stroke:#181818;stroke-width:0.5;" width="126" x="68.5" y="377.5"/><ellipse cx="109.6" cy="393.5" fill="#ADD1B2" rx="11" ry="11" style="stroke:#181818;stroke-width:1.0;"/><path d="M108.4594,394.2969 L108.4594,396.7969 L112.7875,396.7969 L112.7875,395.875 Q112.7875,395.2656 113.0297,395 Q113.2719,394.7344 113.6469,394.7344 Q114.0219,394.7344 114.2563,395 Q114.4906,395.2656 114.4906,395.875 L114.4906,398.5 L106.4906,398.5 Q105.8656,398.5 105.6078,398.2656 Q105.35,398.0313 105.35,397.6406 Q105.35,397.2656 105.6156,397.0313 Q105.8813,396.7969 106.4906,396.7969 L106.7563,396.7969 L106.7563,390.1406 L106.4906,390.1406 Q105.8656,390.1406 105.6078,389.9063 Q105.35,389.6719 105.35,389.2813 Q105.35,388.9063 105.6078,388.6719 Q105.8656,388.4375 106.4906,388.4375 L114.1156,388.4375 L114.1156,391.0313 Q114.1156,391.6406 113.8891,391.8984 Q113.6625,392.1563 113.2719,392.1563 Q112.8969,392.1563 112.6625,391.8984 Q112.4281,391.6406 112.4281,391.0313 L112.4281,390.1406 L108.4594,390.1406 L108.4594,392.5938 L109.9438,392.5938 Q109.9438,391.9375 110.0688,391.75 Q110.3344,391.3438 110.8031,391.3438 Q111.1781,391.3438 111.4125,391.6016 Q111.6469,391.8594 111.6469,392.4688 L111.6469,394.4375 Q111.6469,394.9844 111.5219,395.1719 Q111.2563,395.5625 110.8031,395.5625 Q110.3344,395.5625 110.0688,395.1563 Q109.9438,394.9688 109.9438,394.2969 L108.4594,394.2969 Z " fill="#000000"/><text fill="#000000" font-family="sans-serif" font-size="14" lengthAdjust="spacing" textLength="36" x="129.4" y="399.2285">Roles</text><line style="stroke:#181818;stroke-width:0.5;" x1="69.5" x2="193.5" y1="409.5" y2="409.5"/><text fill="#000000" font-family="sans-serif" font-size="14" lengthAdjust="spacing" textLength="64" x="74.5" y="428.0332">ID int (PK)</text><line style="stroke:#181818;stroke-width:1.0;" x1="69.5" x2="193.5" y1="435.1094" y2="435.1094"/><text fill="#000000" font-family="sans-serif" font-size="14" lengthAdjust="spacing" textLength="114" x="74.5" y="453.6426">Name varchar(50)</text></g><!--MD5=[677de6b3a66eab4fe26e6430158f0459]
class lp--><g id="elem_lp"><rect codeLine="36" fill="#F1F1F1" height="83.2188" id="lp" rx="2.5" ry="2.5" style="stroke:#181818;stroke-width:0.5;" width="249" x="7" y="7"/><ellipse cx="69.75" cy="23" fill="#ADD1B2" rx="11" ry="11" style="stroke:#181818;stroke-width:1.0;"/><path d="M68.6094,23.7969 L68.6094,26.2969 L72.9375,26.2969 L72.9375,25.375 Q72.9375,24.7656 73.1797,24.5 Q73.4219,24.2344 73.7969,24.2344 Q74.1719,24.2344 74.4063,24.5 Q74.6406,24.7656 74.6406,25.375 L74.6406,28 L66.6406,28 Q66.0156,28 65.7578,27.7656 Q65.5,27.5313 65.5,27.1406 Q65.5,26.7656 65.7656,26.5313 Q66.0313,26.2969 66.6406,26.2969 L66.9063,26.2969 L66.9063,19.6406 L66.6406,19.6406 Q66.0156,19.6406 65.7578,19.4063 Q65.5,19.1719 65.5,18.7813 Q65.5,18.4063 65.7578,18.1719 Q66.0156,17.9375 66.6406,17.9375 L74.2656,17.9375 L74.2656,20.5313 Q74.2656,21.1406 74.0391,21.3984 Q73.8125,21.6563 73.4219,21.6563 Q73.0469,21.6563 72.8125,21.3984 Q72.5781,21.1406 72.5781,20.5313 L72.5781,19.6406 L68.6094,19.6406 L68.6094,22.0938 L70.0938,22.0938 Q70.0938,21.4375 70.2188,21.25 Q70.4844,20.8438 70.9531,20.8438 Q71.3281,20.8438 71.5625,21.1016 Q71.7969,21.3594 71.7969,21.9688 L71.7969,23.9375 Q71.7969,24.4844 71.6719,24.6719 Q71.4063,25.0625 70.9531,25.0625 Q70.4844,25.0625 70.2188,24.6563 Q70.0938,24.4688 70.0938,23.7969 L68.6094,23.7969 Z " fill="#000000"/><text fill="#000000" font-family="sans-serif" font-size="14" lengthAdjust="spacing" textLength="115" x="90.25" y="28.7285">LeakedPasswords</text><line style="stroke:#181818;stroke-width:0.5;" x1="8" x2="255" y1="39" y2="39"/><text fill="#000000" font-family="sans-serif" font-size="14" lengthAdjust="spacing" textLength="237" x="13" y="57.5332">lp : HashedPassword nvchar(60) (PK)</text><line style="stroke:#181818;stroke-width:1.0;" x1="8" x2="255" y1="64.6094" y2="64.6094"/><text fill="#000000" font-family="sans-serif" font-size="14" lengthAdjust="spacing" textLength="106" x="13" y="83.1426">lp : PwnCount int</text></g><!--MD5=[53cecbcd42bab5beb58cbd342cf11955]
link Users to ur--><g id="link_Users_ur"><path codeLine="42" d="M240.5,173.5 C340.72,173.5 251.78,369.5 352,369.5 " fill="none" id="Users-ur" style="stroke:#181818;stroke-width:1.0;"/><text fill="#000000" font-family="sans-serif" font-size="13" lengthAdjust="spacing" textLength="7" x="271.3086" y="167.3548">1</text><text fill="#000000" font-family="sans-serif" font-size="13" lengthAdjust="spacing" textLength="5" x="340.1203" y="384.3325">*</text></g><!--MD5=[7f7be4dff37132cd7a40cf15801652a6]
link Roles to ur--><g id="link_Roles_ur"><path codeLine="43" d="M195.5,422.5 C266.87,422.5 280.63,386.5 352,386.5 " fill="none" id="Roles-ur" style="stroke:#181818;stroke-width:1.0;"/><text fill="#000000" font-family="sans-serif" font-size="13" lengthAdjust="spacing" textLength="7" x="202.4906" y="438.6698">1</text><text fill="#000000" font-family="sans-serif" font-size="13" lengthAdjust="spacing" textLength="5" x="340.1203" y="403.2981">*</text></g><!--MD5=[7580b634bffd886b36ac37643de085ea]
link Users to vul--><g id="link_Users_vul"><path codeLine="45" d="M240.5,173.5 C277.17,173.5 286.33,173.5 323,173.5 " fill="none" id="Users-vul" style="stroke:#181818;stroke-width:1.0;"/><text fill="#000000" font-family="sans-serif" font-size="13" lengthAdjust="spacing" textLength="7" x="271.3086" y="184.2298">1</text><text fill="#000000" font-family="sans-serif" font-size="13" lengthAdjust="spacing" textLength="5" x="310.9477" y="187.0869">*</text></g><!--MD5=[2f589d5d4b8d790b7702380bd41c7ee2]
@startuml ERD
left to right direction

entity Users {
    ID int (PK)
    - -
    Email varchar(100)
    HashedPassword varchar(200)
    Salt varchar(200)
    HashedVerification varchar(200)
    IsVerified boolean
    FirstName varchar(50)
    LastName varchar(50)
    PhoneNumber varcher(20)
}
entity "VerifiedUserLocations" as vul {
    ID int (PK)
    UsersID int (FK)
    - -
    IP binary(16)
    IPType byte
    UserAgent varchar(256)
}

entity "Users_Roles" as ur {
    UsersID int (FK)
    RolesID int (FK)
    - -
}

entity Roles {
    ID int (PK)
    - -
    Name varchar(50)
}

entity "LeakedPasswords" as lp {
    lp : HashedPassword nvchar(60) (PK)
    - -
    lp : PwnCount int
}

Users::ID"      1" - - "*"ur::UsersID
Roles::ID"1" - - "*"ur::RolesID

Users::ID"      1" - - "*"vul::UsersID
@enduml

PlantUML version 1.2022.7(Mon Aug 22 19:01:30 CEST 2022)
(GPL source distribution)
Java Runtime: Java(TM) SE Runtime Environment
JVM: Java HotSpot(TM) 64-Bit Server VM
Default Encoding: Cp1252
Language: en
Country: US
--></g></svg>