<?xml version="1.0" encoding="UTF-8" standalone="no"?><svg xmlns="http://www.w3.org/2000/svg" xmlns:xlink="http://www.w3.org/1999/xlink" contentStyleType="text/css" height="1551px" preserveAspectRatio="none" style="width:1168px;height:1551px;background:#FFFFFF;" version="1.1" viewBox="0 0 1168 1551" width="1168px" zoomAndPan="magnify"><defs/><g><!--MD5=[99b31deea5d7419a569cd5090bf83263]
cluster System--><g id="cluster_System"><rect fill="none" height="1523" rx="2.5" ry="2.5" style="stroke:#181818;stroke-width:1.0;" width="926" x="82" y="7"/><text fill="#000000" font-family="sans-serif" font-size="14" font-weight="bold" lengthAdjust="spacing" textLength="50" x="520" y="23.5332">System</text></g><g id="elem_u1"><ellipse cx="192.734" cy="657.9517" fill="#F1F1F1" rx="36.234" ry="15.4517" style="stroke:#181818;stroke-width:0.5;"/><text fill="#000000" font-family="sans-serif" font-size="14" lengthAdjust="spacing" textLength="35" x="175.234" y="661.6802">Login</text></g><g id="elem_u2"><ellipse cx="192.5928" cy="404.9872" fill="#F1F1F1" rx="49.0928" ry="15.4872" style="stroke:#181818;stroke-width:0.5;"/><text fill="#000000" font-family="sans-serif" font-size="14" lengthAdjust="spacing" textLength="53" x="163.6382" y="409.3807">Register</text></g><g id="elem_u3"><ellipse cx="192.602" cy="321.1136" fill="#F1F1F1" rx="64.602" ry="15.6136" style="stroke:#181818;stroke-width:0.5;"/><text fill="#000000" font-family="sans-serif" font-size="14" lengthAdjust="spacing" textLength="74" x="152.602" y="325.6302">Verify Email</text></g><g id="elem_u4"><ellipse cx="192.341" cy="574.1182" fill="#F1F1F1" rx="65.341" ry="15.6182" style="stroke:#181818;stroke-width:0.5;"/><text fill="#000000" font-family="sans-serif" font-size="14" lengthAdjust="spacing" textLength="75" x="151.841" y="578.6348">Verify Login</text></g><g id="elem_h1"><ellipse cx="877.4763" cy="746.0953" fill="#F1F1F1" rx="75.9763" ry="17.5953" style="stroke:#181818;stroke-width:0.5;"/><text fill="#000000" font-family="sans-serif" font-size="14" lengthAdjust="spacing" textLength="104" x="822.5467" y="750.5957">Stolen password</text></g><g id="elem_h2"><ellipse cx="877.605" cy="592.221" fill="#F1F1F1" rx="89.105" ry="20.221" style="stroke:#181818;stroke-width:0.5;"/><text fill="#000000" font-family="sans-serif" font-size="14" lengthAdjust="spacing" textLength="136" x="809.605" y="595.9495">Brute force user login</text></g><g id="elem_h3"><ellipse cx="877.6819" cy="1009.1364" fill="#F1F1F1" rx="78.6819" ry="18.1364" style="stroke:#181818;stroke-width:0.5;"/><text fill="#000000" font-family="sans-serif" font-size="14" lengthAdjust="spacing" textLength="111" x="820.5947" y="1013.3083">Stolen user token</text></g><g id="elem_h4"><ellipse cx="877.535" cy="235.807" fill="#F1F1F1" rx="89.535" ry="20.307" style="stroke:#181818;stroke-width:0.5;"/><text fill="#000000" font-family="sans-serif" font-size="14" lengthAdjust="spacing" textLength="137" x="809.035" y="239.5355">Tampering parameter</text></g><g id="elem_h5"><ellipse cx="525.9525" cy="1264.7905" fill="#F1F1F1" rx="96.9525" ry="21.7905" style="stroke:#181818;stroke-width:0.5;"/><text fill="#000000" font-family="sans-serif" font-size="14" lengthAdjust="spacing" textLength="154" x="448.9525" y="1268.519">Tampering configuration</text></g><g id="elem_h6"><ellipse cx="525.8945" cy="1343.8789" fill="#F1F1F1" rx="97.3945" ry="21.8789" style="stroke:#181818;stroke-width:0.5;"/><text fill="#000000" font-family="sans-serif" font-size="14" lengthAdjust="spacing" textLength="155" x="448.3945" y="1347.6074">Reading of configuration</text></g><g id="elem_h7"><ellipse cx="877.6904" cy="875.9381" fill="#F1F1F1" rx="95.1904" ry="21.4381" style="stroke:#181818;stroke-width:0.5;"/><text fill="#000000" font-family="sans-serif" font-size="14" lengthAdjust="spacing" textLength="150" x="802.6904" y="879.6666">Leaked error messages</text></g><g id="elem_h8"><ellipse cx="526.035" cy="1421.807" fill="#F1F1F1" rx="89.535" ry="20.307" style="stroke:#181818;stroke-width:0.5;"/><text fill="#000000" font-family="sans-serif" font-size="14" lengthAdjust="spacing" textLength="137" x="457.535" y="1425.5355">Source code exposed</text></g><g id="elem_h9"><ellipse cx="526.1819" cy="1496.1364" fill="#F1F1F1" rx="78.6819" ry="18.1364" style="stroke:#181818;stroke-width:0.5;"/><text fill="#000000" font-family="sans-serif" font-size="14" lengthAdjust="spacing" textLength="111" x="469.0947" y="1500.3083">Network clear text</text></g><g id="elem_h10"><ellipse cx="526.0948" cy="1183.219" fill="#F1F1F1" rx="114.0948" ry="25.219" style="stroke:#181818;stroke-width:0.5;"/><text fill="#000000" font-family="sans-serif" font-size="14" lengthAdjust="spacing" textLength="192" x="430.0948" y="1186.9475">Select query against database</text></g><g id="elem_h11"><ellipse cx="877.5541" cy="460.8108" fill="#F1F1F1" rx="114.5541" ry="25.3108" style="stroke:#181818;stroke-width:0.5;"/><text fill="#000000" font-family="sans-serif" font-size="14" lengthAdjust="spacing" textLength="193" x="781.0541" y="464.5393">Automatically creation of users</text></g><g id="elem_h12"><ellipse cx="877.7192" cy="342.9438" fill="#F1F1F1" rx="112.7192" ry="24.9438" style="stroke:#181818;stroke-width:0.5;"/><text fill="#000000" font-family="sans-serif" font-size="14" lengthAdjust="spacing" textLength="189" x="783.2192" y="346.6724">Repeated verification of token</text></g><g id="elem_m1"><ellipse cx="525.9467" cy="489.7893" fill="#F1F1F1" rx="121.9467" ry="26.7893" style="stroke:#181818;stroke-width:0.5;"/><text fill="#000000" font-family="sans-serif" font-size="14" lengthAdjust="spacing" textLength="209" x="421.4467" y="493.5179">Obstruction of unauthorized login</text></g><g id="elem_m2"><ellipse cx="525.8945" cy="1009.1789" fill="#F1F1F1" rx="116.3945" ry="25.6789" style="stroke:#181818;stroke-width:0.5;"/><text fill="#000000" font-family="sans-serif" font-size="14" lengthAdjust="spacing" textLength="197" x="427.3945" y="1012.9074">Prevention of stolen user token</text></g><g id="elem_m3"><ellipse cx="525.9736" cy="156.9947" fill="#F1F1F1" rx="115.4736" ry="25.4947" style="stroke:#181818;stroke-width:0.5;"/><text fill="#000000" font-family="sans-serif" font-size="14" lengthAdjust="spacing" textLength="195" x="428.4736" y="160.7232">Prevention of applikation crash</text></g><g id="elem_m4"><ellipse cx="192.6756" cy="1265.1351" fill="#F1F1F1" rx="88.6756" ry="20.1351" style="stroke:#181818;stroke-width:0.5;"/><text fill="#000000" font-family="sans-serif" font-size="14" lengthAdjust="spacing" textLength="135" x="125.1756" y="1268.8636">User roles prevention</text></g><g id="elem_m5"><ellipse cx="526.011" cy="838.2022" fill="#F1F1F1" rx="96.511" ry="21.7022" style="stroke:#181818;stroke-width:0.5;"/><text fill="#000000" font-family="sans-serif" font-size="14" lengthAdjust="spacing" textLength="153" x="449.511" y="841.9307">Generic error messages</text></g><g id="elem_m6"><ellipse cx="192.313" cy="1406.7626" fill="#F1F1F1" rx="94.313" ry="21.2626" style="stroke:#181818;stroke-width:0.5;"/><text fill="#000000" font-family="sans-serif" font-size="14" lengthAdjust="spacing" textLength="148" x="118.313" y="1410.4911">Visibility of source code</text></g><g id="elem_m7"><ellipse cx="192.3974" cy="1483.9795" fill="#F1F1F1" rx="90.3974" ry="20.4795" style="stroke:#181818;stroke-width:0.5;"/><text fill="#000000" font-family="sans-serif" font-size="14" lengthAdjust="spacing" textLength="139" x="122.8974" y="1487.708">Encrypt sensitive data</text></g><g id="elem_m8"><ellipse cx="526.2427" cy="411.1485" fill="#F1F1F1" rx="73.7427" ry="17.1485" style="stroke:#181818;stroke-width:0.5;"/><text fill="#000000" font-family="sans-serif" font-size="14" lengthAdjust="spacing" textLength="98" x="474.2427" y="415.6651">Log user action</text></g><!--MD5=[8fc3522a43f8c7199df5e09e5bb0188e]
entity user--><g id="elem_user"><ellipse cx="20.5" cy="544.5" fill="#F1F1F1" rx="8" ry="8" style="stroke:#181818;stroke-width:0.5;"/><path d="M20.5,552.5 L20.5,579.5 M7.5,560.5 L33.5,560.5 M20.5,579.5 L7.5,594.5 M20.5,579.5 L33.5,594.5 " fill="none" style="stroke:#181818;stroke-width:0.5;"/><text fill="#000000" font-family="sans-serif" font-size="14" lengthAdjust="spacing" textLength="29" x="6" y="610.5332">User</text></g><!--MD5=[ac8c53f4295e0d4643b14ec64b4a531b]
entity hacker--><g id="elem_hacker"><ellipse cx="1139" cy="928.5" fill="#F1F1F1" rx="8" ry="8" style="stroke:#181818;stroke-width:0.5;"/><path d="M1139,936.5 L1139,963.5 M1126,944.5 L1152,944.5 M1139,963.5 L1126,978.5 M1139,963.5 L1152,978.5 " fill="none" style="stroke:#181818;stroke-width:0.5;"/><text fill="#000000" font-family="sans-serif" font-size="14" lengthAdjust="spacing" textLength="44" x="1117" y="994.5332">Hacker</text></g><!--MD5=[00cd1a0913fac11e59c8f7ddb037601d]
link user to u1--><g id="link_user_u1"><path d="M35.02,583.95 C45.45,590.68 60.36,599.92 74,607 C102.5,621.78 136.23,636.11 160.22,645.8 " fill="none" id="user-to-u1" style="stroke:#181818;stroke-width:1.0;"/><polygon fill="#181818" points="164.88,647.67,158.028,640.5954,160.2426,645.8008,155.0372,648.0153,164.88,647.67" style="stroke:#181818;stroke-width:1.0;"/></g><!--MD5=[aa6f08068a5178ce10a20232451fc4bf]
link user to u2--><g id="link_user_u2"><path d="M35.12,561.38 C65.38,531.12 138.22,458.28 172.74,423.76 " fill="none" id="user-to-u2" style="stroke:#181818;stroke-width:1.0;"/><polygon fill="#181818" points="176.36,420.14,167.1676,423.6755,172.8245,423.6755,172.8245,429.3324,176.36,420.14" style="stroke:#181818;stroke-width:1.0;"/></g><!--MD5=[3439040e135ef944c8cd5b0d2b41b99b]
reverse link h1 to hacker--><g id="link_h1_hacker"><path d="M910.99,764.94 C939.69,782.26 982.12,809.32 1016,837 C1054.04,868.08 1093.41,909.41 1116.8,935.1 " fill="none" id="h1-backto-hacker" style="stroke:#181818;stroke-width:1.0;"/><polygon fill="#181818" points="906.51,762.25,912.1695,770.3104,910.7975,764.8225,916.2854,763.4505,906.51,762.25" style="stroke:#181818;stroke-width:1.0;"/></g><!--MD5=[53380cd57d650c3c3209bfb9fa38cede]
reverse link h2 to hacker--><g id="link_h2_hacker"><path d="M910.82,614.11 C940.98,635.99 985.76,671.81 1016,711 C1067.16,777.29 1105.26,868.43 1124.33,919.75 " fill="none" id="h2-backto-hacker" style="stroke:#181818;stroke-width:1.0;"/><polygon fill="#181818" points="906.48,610.98,911.4505,619.4826,910.539,613.8996,916.122,612.9881,906.48,610.98" style="stroke:#181818;stroke-width:1.0;"/></g><!--MD5=[dfbe1f28ce2845bb8d49fd2221953462]
reverse link h3 to hacker--><g id="link_h3_hacker"><path d="M943.12,996.55 C1000.03,985.58 1079.5,970.27 1116.93,963.06 " fill="none" id="h3-backto-hacker" style="stroke:#181818;stroke-width:1.0;"/><polygon fill="#181818" points="938.03,997.53,947.6287,999.7356,942.9378,996.5741,946.0993,991.8832,938.03,997.53" style="stroke:#181818;stroke-width:1.0;"/></g><!--MD5=[ad5c2b11ee72c695836640e8c7060c74]
reverse link h4 to hacker--><g id="link_h4_hacker"><path d="M943.67,252.79 C969.63,262.57 997.64,277.55 1016,300 C1094.89,396.5 1127.18,793.06 1135.62,919.83 " fill="none" id="h4-backto-hacker" style="stroke:#181818;stroke-width:1.0;"/><polygon fill="#181818" points="938.85,251.02,945.9278,257.8687,943.5456,252.7379,948.6764,250.3557,938.85,251.02" style="stroke:#181818;stroke-width:1.0;"/></g><!--MD5=[77d5628fcecef2a59042fbca0087b8a6]
reverse link h5 to hacker--><g id="link_h5_hacker"><path d="M627.05,1260.42 C732.49,1251.14 899.17,1223.41 1016,1141 C1067.13,1104.93 1102.93,1040.07 1121.98,998.31 " fill="none" id="h5-backto-hacker" style="stroke:#181818;stroke-width:1.0;"/><polygon fill="#181818" points="621.77,1260.87,631.0795,1264.0845,626.7516,1260.4418,630.3944,1256.1139,621.77,1260.87" style="stroke:#181818;stroke-width:1.0;"/></g><!--MD5=[0990636936ba4135f4792380a039be66]
reverse link h6 to hacker--><g id="link_h6_hacker"><path d="M624.28,1350.59 C731.81,1352.61 904.5,1339.58 1016,1249 C1094.75,1185.03 1123.45,1061.21 1133.27,998.08 " fill="none" id="h6-backto-hacker" style="stroke:#181818;stroke-width:1.0;"/><polygon fill="#181818" points="619.21,1350.48,628.1162,1354.6846,624.2087,1350.5943,628.2991,1346.6867,619.21,1350.48" style="stroke:#181818;stroke-width:1.0;"/></g><!--MD5=[66442aec40483a6696d498c015dac818]
reverse link h7 to hacker--><g id="link_h7_hacker"><path d="M938.31,895.13 C995.35,913.38 1078.12,939.85 1116.71,952.19 " fill="none" id="h7-backto-hacker" style="stroke:#181818;stroke-width:1.0;"/><polygon fill="#181818" points="933.22,893.5,940.5827,900.0414,937.9844,895.0166,943.0093,892.4183,933.22,893.5" style="stroke:#181818;stroke-width:1.0;"/></g><!--MD5=[03ce5cb82e7e6396e1acfc0ef5566d71]
reverse link h8 to hacker--><g id="link_h8_hacker"><path d="M607.61,1433.35 C713.24,1443.56 898.78,1444.86 1016,1351 C1072.12,1306.06 1115.56,1088.49 1131.45,998.3 " fill="none" id="h8-backto-hacker" style="stroke:#181818;stroke-width:1.0;"/><polygon fill="#181818" points="602.33,1432.82,610.8845,1437.7006,607.3049,1433.3203,611.6851,1429.7407,602.33,1432.82" style="stroke:#181818;stroke-width:1.0;"/></g><!--MD5=[37e5504b37182a5477f81efc4cd6e73b]
reverse link h9 to hacker--><g id="link_h9_hacker"><path d="M589.49,1509.05 C691.28,1526.43 893.8,1544.28 1016,1443 C1085.22,1385.63 1122.38,1103.28 1133.98,998.36 " fill="none" id="h9-backto-hacker" style="stroke:#181818;stroke-width:1.0;"/><polygon fill="#181818" points="584.42,1508.17,592.6169,1513.6299,589.3485,1509.0128,593.9655,1505.7443,584.42,1508.17" style="stroke:#181818;stroke-width:1.0;"/></g><!--MD5=[a5d383802465edf7b0f1568b11815f74]
reverse link h10 to hacker--><g id="link_h10_hacker"><path d="M619.98,1166.16 C720.85,1145.73 885.03,1106.1 1016,1044 C1054.25,1025.86 1093.56,996.08 1116.88,977.02 " fill="none" id="h10-backto-hacker" style="stroke:#181818;stroke-width:1.0;"/><polygon fill="#181818" points="614.92,1167.18,624.5321,1169.3265,619.8218,1166.1939,622.9544,1161.4836,614.92,1167.18" style="stroke:#181818;stroke-width:1.0;"/></g><!--MD5=[3cf58ed837cc981e16eb54e1dfd58ddc]
reverse link h11 to hacker--><g id="link_h11_hacker"><path d="M933.02,486.41 C961.46,502.2 994.68,525.03 1016,554 C1100.54,668.89 1127.03,842.61 1134.89,919.73 " fill="none" id="h11-backto-hacker" style="stroke:#181818;stroke-width:1.0;"/><polygon fill="#181818" points="928.49,483.93,934.4649,491.7594,932.8762,486.3303,938.3054,484.7415,928.49,483.93" style="stroke:#181818;stroke-width:1.0;"/></g><!--MD5=[0801d266e57582d31f3b022c346cf565]
reverse link h12 to hacker--><g id="link_h12_hacker"><path d="M944.67,366.13 C970.2,378.04 997.63,395 1016,418 C1078.95,496.8 1120.57,808.94 1133.62,919.74 " fill="none" id="h12-backto-hacker" style="stroke:#181818;stroke-width:1.0;"/><polygon fill="#181818" points="939.92,363.96,946.4581,371.3257,944.4718,366.029,949.7685,364.0428,939.92,363.96" style="stroke:#181818;stroke-width:1.0;"/></g><!--MD5=[b714b29b3b55099d6e573b5ea7d03601]
link u2 to u3--><g id="link_u2_u3"><path d="M192.5,389.2 C192.5,375.82 192.5,356.55 192.5,341.9 " fill="none" id="u2-to-u3" style="stroke:#181818;stroke-width:1.0;stroke-dasharray:7.0,7.0;"/><polygon fill="#181818" points="192.5,336.73,188.5,345.73,192.5,341.73,196.5,345.73,192.5,336.73" style="stroke:#181818;stroke-width:1.0;"/><text fill="#000000" font-family="sans-serif" font-size="13" lengthAdjust="spacing" textLength="55" x="153" y="368.4951">«include»</text></g><!--MD5=[7097f9702f7eb16e26d912201ce91cac]
reverse link u1 to u4--><g id="link_u1_u4"><path d="M192.5,637.02 C192.5,622.36 192.5,603.08 192.5,589.73 " fill="none" id="u1-backto-u4" style="stroke:#181818;stroke-width:1.0;stroke-dasharray:7.0,7.0;"/><polygon fill="#181818" points="192.5,642.2,196.5,633.2,192.5,637.2,188.5,633.2,192.5,642.2" style="stroke:#181818;stroke-width:1.0;"/><text fill="#000000" font-family="sans-serif" font-size="13" lengthAdjust="spacing" textLength="60" x="150.5" y="621.4951">«extends»</text></g><!--MD5=[ecdddfa33d159b43230f5e4737c067af]
reverse link u1 to h1--><g id="link_u1_h1"><path d="M232.56,663.03 C345.01,677.52 670.39,719.44 810.76,737.53 " fill="none" id="u1-backto-h1" style="stroke:#181818;stroke-width:1.0;"/><polygon fill="#181818" points="227.37,662.36,235.7953,667.4604,232.3303,662.989,236.8017,659.5239,227.37,662.36" style="stroke:#181818;stroke-width:1.0;"/><text fill="#000000" font-family="sans-serif" font-size="13" lengthAdjust="spacing" textLength="57" x="497.5" y="683.4951">Threatens</text></g><!--MD5=[aec65cbbf590468c2eee25509933ecdd]
link m1 to h1--><g id="link_m1_h1"><path d="M590.26,513.05 C609.59,521.43 630.37,531.87 648,544 C663.54,554.69 664.2,561.15 678,574 C739.02,630.81 814.13,694.21 852.08,725.81 " fill="none" id="m1-to-h1" style="stroke:#181818;stroke-width:1.0;"/><polygon fill="#181818" points="856.08,729.13,851.7041,720.3067,852.2307,725.9389,846.5984,726.4655,856.08,729.13" style="stroke:#181818;stroke-width:1.0;"/><text fill="#000000" font-family="sans-serif" font-size="13" lengthAdjust="spacing" textLength="53" x="679" y="570.4951">Mitigates</text></g><!--MD5=[f423ff875d92e3fd1674fe387ad9670c]
link u1 to m1--><g id="link_u1_m1"><path d="M215.62,645.96 C267.72,617.61 394.54,548.66 404,544 C423.31,534.48 444.66,524.71 464,516.14 " fill="none" id="u1-to-m1" style="stroke:#181818;stroke-width:1.0;"/><polygon fill="#181818" points="468.86,513.98,459.0112,513.9629,464.2874,516.0028,462.2476,521.279,468.86,513.98" style="stroke:#181818;stroke-width:1.0;"/><text fill="#000000" font-family="sans-serif" font-size="13" lengthAdjust="spacing" textLength="55" x="318" y="557.4951">«include»</text></g><!--MD5=[73b002be7274f07d1f894273a3a4f654]
reverse link u1 to h2--><g id="link_u1_h2"><path d="M233.7,658.93 C323.74,660.37 548.21,660.38 733,631 C764.49,625.99 798.99,616.74 826.27,608.5 " fill="none" id="u1-backto-h2" style="stroke:#181818;stroke-width:1.0;"/><polygon fill="#181818" points="228.48,658.84,237.4101,662.9937,233.4793,658.9257,237.5472,654.9949,228.48,658.84" style="stroke:#181818;stroke-width:1.0;"/><text fill="#000000" font-family="sans-serif" font-size="13" lengthAdjust="spacing" textLength="57" x="497.5" y="639.4951">Threatens</text></g><!--MD5=[19e08ca2a2eaea4af6b7c2b9e6d059c5]
link m1 to h2--><g id="link_m1_h2"><path d="M600.69,511.51 C665.17,530.32 757.61,557.3 817.36,574.74 " fill="none" id="m1-to-h2" style="stroke:#181818;stroke-width:1.0;"/><polygon fill="#181818" points="822.32,576.19,814.8,569.83,817.52,574.79,812.56,577.51,822.32,576.19" style="stroke:#181818;stroke-width:1.0;"/><text fill="#000000" font-family="sans-serif" font-size="13" lengthAdjust="spacing" textLength="53" x="679" y="531.4951">Mitigates</text></g><!--MD5=[7af6643d222564640c8ca6b57f31ff4b]
link m8 to h2--><g id="link_m8_h2"><path d="M576.93,423.39 C598.94,429.27 624.98,436.8 648,445 C686.81,458.83 697.5,461.09 733,482 C739.07,485.57 807.15,538.19 847.32,569.34 " fill="none" id="m8-to-h2" style="stroke:#181818;stroke-width:1.0;"/><polygon fill="#181818" points="851.59,572.66,846.9285,563.9841,847.6386,569.5962,842.0265,570.3064,851.59,572.66" style="stroke:#181818;stroke-width:1.0;"/><text fill="#000000" font-family="sans-serif" font-size="13" lengthAdjust="spacing" textLength="53" x="679" y="452.4951">Mitigates</text></g><!--MD5=[d3c630ca03f41fd023efd61e4f34407e]
link u1 to m8--><g id="link_u1_m8"><path d="M222.88,649.39 C243.95,641.69 271.29,628.27 287,607 C326.63,553.37 270.56,507.85 317,460 C350.52,425.45 403.5,413.34 447.59,409.79 " fill="none" id="u1-to-m8" style="stroke:#181818;stroke-width:1.0;"/><polygon fill="#181818" points="452.65,409.42,443.3777,406.0997,447.6638,409.7915,443.972,414.0776,452.65,409.42" style="stroke:#181818;stroke-width:1.0;"/><text fill="#000000" font-family="sans-serif" font-size="13" lengthAdjust="spacing" textLength="55" x="318" y="423.4951">«include»</text></g><!--MD5=[73d375901045b199b9930e6e79a1184c]
reverse link u1 to h3--><g id="link_u1_h3"><path d="M195.42,678.84 C203.58,752.99 242.76,1003.21 404,1070 C557.6,1133.62 761.28,1059.73 841.71,1025.05 " fill="none" id="u1-backto-h3" style="stroke:#181818;stroke-width:1.0;"/><polygon fill="#181818" points="194.89,673.81,191.864,683.1825,195.4186,678.782,199.8191,682.3367,194.89,673.81" style="stroke:#181818;stroke-width:1.0;"/><text fill="#000000" font-family="sans-serif" font-size="13" lengthAdjust="spacing" textLength="57" x="497.5" y="1066.4951">Threatens</text></g><!--MD5=[273f7158b4086becbf0aa4c772a89a41]
link m2 to h3--><g id="link_m2_h3"><path d="M642.89,1009 C692.26,1009 748.71,1009 793.76,1009 " fill="none" id="m2-to-h3" style="stroke:#181818;stroke-width:1.0;"/><polygon fill="#181818" points="798.92,1009,789.92,1005,793.92,1009,789.92,1013,798.92,1009" style="stroke:#181818;stroke-width:1.0;"/><text fill="#000000" font-family="sans-serif" font-size="13" lengthAdjust="spacing" textLength="53" x="679" y="1005.4951">Mitigates</text></g><!--MD5=[845dde8f126139446f17409c5a30c9d0]
link u1 to m2--><g id="link_u1_m2"><path d="M195.82,673.7 C203.66,721.04 233.46,863.85 317,940 C346.53,966.92 386.85,983.37 424.12,993.4 " fill="none" id="u1-to-m2" style="stroke:#181818;stroke-width:1.0;"/><polygon fill="#181818" points="429.12,994.71,421.4307,988.5557,424.2839,993.4403,419.3993,996.2935,429.12,994.71" style="stroke:#181818;stroke-width:1.0;"/><text fill="#000000" font-family="sans-serif" font-size="13" lengthAdjust="spacing" textLength="55" x="318" y="936.4951">«include»</text></g><!--MD5=[2199d65d30d345aa9b0dcc791ea41892]
reverse link u1 to h4--><g id="link_u1_h4"><path d="M228.07,647.86 C248.49,640.04 273.02,627.09 287,607 C339.85,531.06 283.16,487.11 317,401 C323.22,385.17 389.27,283.52 404,275 C467.19,238.45 669.65,233.83 788.05,234.43 " fill="none" id="u1-backto-h4" style="stroke:#181818;stroke-width:1.0;"/><polygon fill="#181818" points="223.24,649.65,233.0692,650.2713,227.9281,647.9116,230.2878,642.7704,223.24,649.65" style="stroke:#181818;stroke-width:1.0;"/><text fill="#000000" font-family="sans-serif" font-size="13" lengthAdjust="spacing" textLength="57" x="497.5" y="233.4951">Threatens</text></g><!--MD5=[2be9f0783bd1e1ca954215d0f3c39908]
reverse link u2 to h4--><g id="link_u2_h4"><path d="M233.93,392.47 C252.99,384.49 274.29,372.15 287,354 C338.05,281.09 264.15,227.62 317,156 C342.49,121.45 362.14,123.57 404,114 C509.71,89.82 542.8,87.67 648,114 C727.4,133.87 809.39,187.15 850.16,216.29 " fill="none" id="u2-backto-h4" style="stroke:#181818;stroke-width:1.0;"/><polygon fill="#181818" points="229.13,394.41,238.9737,394.7293,233.7625,392.5285,235.9633,387.3173,229.13,394.41" style="stroke:#181818;stroke-width:1.0;"/><text fill="#000000" font-family="sans-serif" font-size="13" lengthAdjust="spacing" textLength="57" x="497.5" y="92.4951">Threatens</text></g><!--MD5=[1619e40c8f9c97d86edcde1f8d66d99b]
link m3 to h4--><g id="link_m3_h4"><path d="M607.62,175.22 C668.28,188.94 750.52,207.52 808.01,220.52 " fill="none" id="m3-to-h4" style="stroke:#181818;stroke-width:1.0;"/><polygon fill="#181818" points="813.15,221.68,805.2521,215.7959,808.2728,220.5787,803.49,223.5994,813.15,221.68" style="stroke:#181818;stroke-width:1.0;"/><text fill="#000000" font-family="sans-serif" font-size="13" lengthAdjust="spacing" textLength="53" x="679" y="188.4951">Mitigates</text></g><!--MD5=[7e556b3cbb03a422d5c6a1ceb64edb09]
link m8 to h4--><g id="link_m8_h4"><path d="M571.75,397.57 C595.05,389.88 623.67,379.31 648,367 C662.3,359.77 664.33,355.36 678,347 C731.73,314.14 795.57,279.13 836.06,257.41 " fill="none" id="m8-to-h4" style="stroke:#181818;stroke-width:1.0;"/><polygon fill="#181818" points="840.88,254.83,831.0578,255.5541,836.4726,257.1911,834.8356,262.6059,840.88,254.83" style="stroke:#181818;stroke-width:1.0;"/><text fill="#000000" font-family="sans-serif" font-size="13" lengthAdjust="spacing" textLength="53" x="679" y="312.4951">Mitigates</text></g><!--MD5=[bd2b4b0b419a8c2c706751228a77238b]
link u1 to m3--><g id="link_u1_m3"><path d="M223.52,649.84 C244.91,642.36 272.37,629.02 287,607 C359.93,497.23 244.75,422.21 317,312 C332.93,287.7 354.58,301.61 374,280 C396.62,254.82 380.16,234.03 404,210 C416.92,196.98 433.58,186.92 450.37,179.24 " fill="none" id="u1-to-m3" style="stroke:#181818;stroke-width:1.0;"/><polygon fill="#181818" points="455.11,177.14,445.2611,177.1343,450.5398,179.168,448.506,184.4467,455.11,177.14" style="stroke:#181818;stroke-width:1.0;"/><text fill="#000000" font-family="sans-serif" font-size="13" lengthAdjust="spacing" textLength="55" x="318" y="276.4951">«include»</text></g><!--MD5=[6a6b6529e6c4c8f37dfc0ab6eef74701]
link u2 to m3--><g id="link_u2_m3"><path d="M228.21,394.26 C248.32,386.28 272.47,373.38 287,354 C324.4,304.14 274.39,262.49 317,217 C341.8,190.53 377.46,175.49 412.26,167.03 " fill="none" id="u2-to-m3" style="stroke:#181818;stroke-width:1.0;"/><polygon fill="#181818" points="417.39,165.82,407.7143,163.9814,412.5222,166.962,409.5415,171.7699,417.39,165.82" style="stroke:#181818;stroke-width:1.0;"/><text fill="#000000" font-family="sans-serif" font-size="13" lengthAdjust="spacing" textLength="55" x="318" y="178.4951">«include»</text></g><!--MD5=[f58221a8b8bedcc95908455ba7d78ae1]
link u2 to m8--><g id="link_u2_m8"><path d="M227.24,394.04 C247.25,385.92 271.63,372.96 287,354 C316.23,317.96 279.77,281.7 317,254 C337.32,238.88 353.92,238.55 374,254 C415.19,285.68 368.93,328.65 404,367 C418.73,383.11 439.84,393.33 460.31,399.81 " fill="none" id="u2-to-m8" style="stroke:#181818;stroke-width:1.0;"/><polygon fill="#181818" points="465.21,401.3,457.7653,394.852,460.4268,399.8436,455.4351,402.5051,465.21,401.3" style="stroke:#181818;stroke-width:1.0;"/><text fill="#000000" font-family="sans-serif" font-size="13" lengthAdjust="spacing" textLength="55" x="318" y="239.4951">«include»</text></g><!--MD5=[d287a4f3aeec643520cecf6360639e37]
link m4 to h5--><g id="link_m4_h5"><path d="M281.03,1265 C324.81,1265 378.03,1265 423.57,1265 " fill="none" id="m4-to-h5" style="stroke:#181818;stroke-width:1.0;"/><polygon fill="#181818" points="428.81,1265,419.81,1261,423.81,1265,419.81,1269,428.81,1265" style="stroke:#181818;stroke-width:1.0;"/><text fill="#000000" font-family="sans-serif" font-size="13" lengthAdjust="spacing" textLength="53" x="319" y="1261.4951">Mitigates</text></g><!--MD5=[1321f28976b9b4b4a4e5510503ebb1ee]
link m4 to h6--><g id="link_m4_h6"><path d="M254.3,1279.49 C310.48,1292.88 393.98,1312.78 453.37,1326.93 " fill="none" id="m4-to-h6" style="stroke:#181818;stroke-width:1.0;"/><polygon fill="#181818" points="458.32,1328.11,450.492,1322.1332,453.4561,1326.9513,448.638,1329.9154,458.32,1328.11" style="stroke:#181818;stroke-width:1.0;"/><text fill="#000000" font-family="sans-serif" font-size="13" lengthAdjust="spacing" textLength="53" x="319" y="1291.4951">Mitigates</text></g><!--MD5=[289ded780686dbc6ce97cbc03afcb61e]
reverse link u1 to h7--><g id="link_u1_h7"><path d="M200.76,678.43 C216.08,718.79 255.47,809.34 317,861 C348.79,887.69 363.2,887.31 404,895 C542.76,921.15 708.36,903.59 802.09,889.24 " fill="none" id="u1-backto-h7" style="stroke:#181818;stroke-width:1.0;"/><polygon fill="#181818" points="198.84,673.3,198.2548,683.1315,200.5956,677.9816,205.7454,680.3225,198.84,673.3" style="stroke:#181818;stroke-width:1.0;"/><text fill="#000000" font-family="sans-serif" font-size="13" lengthAdjust="spacing" textLength="57" x="497.5" y="891.4951">Threatens</text></g><!--MD5=[fcf8e1ba8149898f259323a0e5c5fb9c]
reverse link u2 to h7--><g id="link_u2_h7"><path d="M214.49,423.01 C238.51,443.26 279.4,476.62 317,502 C353.97,526.95 362.77,535 404,552 C507.76,594.77 556,552.73 648,617 C720.98,667.98 702.79,715.42 763,781 C789.07,809.39 823.55,837.13 847.64,855.23 " fill="none" id="u2-backto-h7" style="stroke:#181818;stroke-width:1.0;"/><polygon fill="#181818" points="210.49,419.63,214.7752,428.4977,214.3064,422.8604,219.9438,422.3915,210.49,419.63" style="stroke:#181818;stroke-width:1.0;"/><text fill="#000000" font-family="sans-serif" font-size="13" lengthAdjust="spacing" textLength="57" x="497.5" y="548.4951">Threatens</text></g><!--MD5=[c0974b4d3afe297369aa71860fafcab1]
link m5 to h7--><g id="link_m5_h7"><path d="M612.94,847.34 C665.62,853.07 732.94,860.39 786.37,866.2 " fill="none" id="m5-to-h7" style="stroke:#181818;stroke-width:1.0;"/><polygon fill="#181818" points="791.49,866.76,782.9774,861.8067,786.5195,866.2172,782.109,869.7594,791.49,866.76" style="stroke:#181818;stroke-width:1.0;"/><text fill="#000000" font-family="sans-serif" font-size="13" lengthAdjust="spacing" textLength="53" x="679" y="851.4951">Mitigates</text></g><!--MD5=[cde8b1b13f9af9f206f4222a86df7511]
link u1 to m5--><g id="link_u1_m5"><path d="M198.61,673.4 C211.59,709.73 249.69,800.36 317,836 C357.48,857.43 408.91,858.12 450.5,853.35 " fill="none" id="u1-to-m5" style="stroke:#181818;stroke-width:1.0;"/><polygon fill="#181818" points="455.53,852.75,446.1146,849.8604,450.5662,853.3508,447.0759,857.8025,455.53,852.75" style="stroke:#181818;stroke-width:1.0;"/><text fill="#000000" font-family="sans-serif" font-size="13" lengthAdjust="spacing" textLength="55" x="318" y="832.4951">«include»</text></g><!--MD5=[a7887a8dede60d0f48673995a3b43987]
link u2 to m5--><g id="link_u2_m5"><path d="M205.62,420.19 C224.7,444.6 262.12,494.52 287,541 C303.94,572.65 302.26,583.27 317,616 C352.35,694.47 340.72,730.66 404,789 C418.82,802.67 437.96,812.75 456.61,820.09 " fill="none" id="u2-to-m5" style="stroke:#181818;stroke-width:1.0;"/><polygon fill="#181818" points="461.34,821.9,454.3615,814.9501,456.6696,820.1147,451.505,822.4227,461.34,821.9" style="stroke:#181818;stroke-width:1.0;"/><text fill="#000000" font-family="sans-serif" font-size="13" lengthAdjust="spacing" textLength="55" x="318" y="612.4951">«include»</text></g><!--MD5=[debdac7c8920abf4dd9b88694e4c83ad]
link m6 to h8--><g id="link_m6_h8"><path d="M285.4,1411.16 C331.34,1413.24 386.8,1415.75 432.78,1417.83 " fill="none" id="m6-to-h8" style="stroke:#181818;stroke-width:1.0;"/><polygon fill="#181818" points="438.06,1418.07,429.2521,1413.6632,433.0652,1417.8417,428.8867,1421.6548,438.06,1418.07" style="stroke:#181818;stroke-width:1.0;"/><text fill="#000000" font-family="sans-serif" font-size="13" lengthAdjust="spacing" textLength="53" x="319" y="1408.4951">Mitigates</text></g><!--MD5=[a2c9caa6342976a28470c237951d2893]
link m7 to h9--><g id="link_m7_h9"><path d="M281.9,1487.2 C332.06,1489.02 394.4,1491.27 443.4,1493.05 " fill="none" id="m7-to-h9" style="stroke:#181818;stroke-width:1.0;"/><polygon fill="#181818" points="448.39,1493.23,439.5451,1488.8978,443.3935,1493.0439,439.2473,1496.8922,448.39,1493.23" style="stroke:#181818;stroke-width:1.0;"/><text fill="#000000" font-family="sans-serif" font-size="13" lengthAdjust="spacing" textLength="53" x="319" y="1484.4951">Mitigates</text></g><!--MD5=[079db88053a2767b06c5b68d778cbf1f]
link m4 to h10--><g id="link_m4_h10"><path d="M252.77,1250.34 C306.29,1237.1 385.51,1217.5 444.71,1202.86 " fill="none" id="m4-to-h10" style="stroke:#181818;stroke-width:1.0;"/><polygon fill="#181818" points="449.66,1201.64,439.9633,1199.9154,444.8059,1202.8392,441.8821,1207.6819,449.66,1201.64" style="stroke:#181818;stroke-width:1.0;"/><text fill="#000000" font-family="sans-serif" font-size="13" lengthAdjust="spacing" textLength="53" x="319" y="1218.4951">Mitigates</text></g><!--MD5=[2f295129c61d7251e2bebc432141d8a5]
reverse link u2 to h11--><g id="link_u2_h11"><path d="M237.37,394.57 C356.4,366.27 676.6,290.16 678,290 C702.28,287.16 713.28,275.55 733,290 C768.71,316.17 736.44,349.57 763,385 C779.71,407.29 805,425.13 827.46,437.91 " fill="none" id="u2-backto-h11" style="stroke:#181818;stroke-width:1.0;"/><polygon fill="#181818" points="232.2,395.8,241.882,397.6054,237.0639,394.6413,240.028,389.8232,232.2,395.8" style="stroke:#181818;stroke-width:1.0;"/><text fill="#000000" font-family="sans-serif" font-size="13" lengthAdjust="spacing" textLength="57" x="497.5" y="294.4951">Threatens</text></g><!--MD5=[43ff026c948ac69a38a28ab3e8faf505]
link m1 to h11--><g id="link_m1_h11"><path d="M626.61,505.31 C660.49,508.25 698.51,509.06 733,504 C759.66,500.09 788.24,492.31 812.82,484.42 " fill="none" id="m1-to-h11" style="stroke:#181818;stroke-width:1.0;"/><polygon fill="#181818" points="817.68,482.84,807.885,481.8117,812.9239,484.3825,810.353,489.4214,817.68,482.84" style="stroke:#181818;stroke-width:1.0;"/><text fill="#000000" font-family="sans-serif" font-size="13" lengthAdjust="spacing" textLength="53" x="679" y="500.4951">Mitigates</text></g><!--MD5=[84c5a121ada631aaace47dc3f38c0088]
link m8 to h11--><g id="link_m8_h11"><path d="M599.35,412.22 C639.01,413.73 688.94,416.99 733,424 C756.15,427.68 781,433.43 803.4,439.3 " fill="none" id="m8-to-h11" style="stroke:#181818;stroke-width:1.0;"/><polygon fill="#181818" points="808.44,440.64,800.7723,434.4589,803.6084,439.3535,798.7138,442.1896,808.44,440.64" style="stroke:#181818;stroke-width:1.0;"/><text fill="#000000" font-family="sans-serif" font-size="13" lengthAdjust="spacing" textLength="53" x="679" y="414.4951">Mitigates</text></g><!--MD5=[ee148696cef332413654258a0918605c]
link u2 to m1--><g id="link_u2_m1"><path d="M210.46,419.67 C233.02,438.16 274.97,469.09 317,482 C343.75,490.22 373.35,494.19 401.62,495.74 " fill="none" id="u2-to-m1" style="stroke:#181818;stroke-width:1.0;"/><polygon fill="#181818" points="406.88,496.01,398.0973,491.553,401.8866,495.7532,397.6864,499.5425,406.88,496.01" style="stroke:#181818;stroke-width:1.0;"/><text fill="#000000" font-family="sans-serif" font-size="13" lengthAdjust="spacing" textLength="55" x="318" y="478.4951">«include»</text></g><!--MD5=[77aef18e20c67ccace690b734deb87dd]
link m8 to h12--><g id="link_m8_h12"><path d="M582.77,400.15 C637.8,389.44 722.82,372.9 787.25,360.36 " fill="none" id="m8-to-h12" style="stroke:#181818;stroke-width:1.0;"/><polygon fill="#181818" points="792.24,359.39,782.6413,357.1844,787.3322,360.3459,784.1707,365.0368,792.24,359.39" style="stroke:#181818;stroke-width:1.0;"/><text fill="#000000" font-family="sans-serif" font-size="13" lengthAdjust="spacing" textLength="53" x="679" y="369.4951">Mitigates</text></g><!--MD5=[69a6b8c4c0b792ec2991491178fe2f83]
@startuml Misuse cases

left to right direction

"User" as user
"Hacker" as hacker


rectangle System {
    usecase "Login" as u1
    usecase "Register" as u2
    usecase "Verify Email" as u3
    usecase "Verify Login" as u4

    usecase "Stolen password" as h1
    usecase "Brute force user login" as h2
    usecase "Stolen user token" as h3
    usecase "Tampering parameter" as h4
    usecase "Tampering configuration" as h5
    usecase "Reading of configuration" as h6
    usecase "Leaked error messages" as h7
    usecase "Source code exposed" as h8
    usecase "Network clear text" as h9
    usecase "Select query against database" as h10
    usecase "Automatically creation of users" as h11
    usecase "Repeated verification of token" as h12
    
    usecase "Obstruction of unauthorized login" as m1
    usecase "Prevention of stolen user token" as m2
    usecase "Prevention of applikation crash" as m3
    usecase "User roles prevention" as m4
    usecase "Generic error messages" as m5
    usecase "Visibility of source code" as m6
    usecase "Encrypt sensitive data" as m7
    usecase "Log user action" as m8
}

user - -> u1
user - -> u2

h1 <- - - hacker
h2 <- - - hacker
h3 <- - - hacker
h4 <- - - hacker
h5 <- - - hacker
h6 <- - - hacker
h7 <- - - hacker
h8 <- - - hacker
h9 <- - - hacker
h10 <- - - hacker
h11 <- - - hacker
h12 <- - - hacker

u2 .> u3: <<include>>
u1 <. u4: <<extends>>

'Stolen password'
u1 <- - h1 : Threatens
m1 - -> h1 : Mitigates
u1 - -> m1 : <<include>>

'Brute force'
u1 <- - h2 : Threatens
m1 - -> h2 : Mitigates
m8 - -> h2 : Mitigates
u1 - -> m8 : <<include>>

'Stolen user token'
u1 <- - h3 : Threatens
m2 - -> h3 : Mitigates
u1 - -> m2 : <<include>>

'tampering parameter'
u1 <- - h4 : Threatens
u2 <- - h4 : Threatens
m3 - -> h4 : Mitigates
m8 - -> h4 : Mitigates
u1 - -> m3 : <<include>>
u2 - -> m3 : <<include>>
u2 - -> m8 : <<include>>

'Tampering config'
m4 - -> h5 : Mitigates

'read config'
m4 - -> h6 : Mitigates

'Fullstack messages'
u1 <- - h7 : Threatens
u2 <- - h7 : Threatens
m5 - -> h7 : Mitigates
u1 - -> m5 : <<include>>
u2 - -> m5 : <<include>>

'source code leaked'
m6 - -> h8 : Mitigates

'Network clear text'
m7 - -> h9 : Mitigates

'Select query'
m4 - -> h10 : Mitigates

'Automatic user registration'
u2 <- - h11 : Threatens
m1 - -> h11 : Mitigates
m8 - -> h11 : Mitigates
u2 - -> m1 : <<include>>

'repeated verification of token'
m8 - -> h12 : Mitigates


@enduml

@startuml Misuse cases

left to right direction

"User" as user
"Hacker" as hacker


rectangle System {
    usecase "Login" as u1
    usecase "Register" as u2
    usecase "Verify Email" as u3
    usecase "Verify Login" as u4

    usecase "Stolen password" as h1
    usecase "Brute force user login" as h2
    usecase "Stolen user token" as h3
    usecase "Tampering parameter" as h4
    usecase "Tampering configuration" as h5
    usecase "Reading of configuration" as h6
    usecase "Leaked error messages" as h7
    usecase "Source code exposed" as h8
    usecase "Network clear text" as h9
    usecase "Select query against database" as h10
    usecase "Automatically creation of users" as h11
    usecase "Repeated verification of token" as h12
    
    usecase "Obstruction of unauthorized login" as m1
    usecase "Prevention of stolen user token" as m2
    usecase "Prevention of applikation crash" as m3
    usecase "User roles prevention" as m4
    usecase "Generic error messages" as m5
    usecase "Visibility of source code" as m6
    usecase "Encrypt sensitive data" as m7
    usecase "Log user action" as m8
}

user - -> u1
user - -> u2

h1 <- - - hacker
h2 <- - - hacker
h3 <- - - hacker
h4 <- - - hacker
h5 <- - - hacker
h6 <- - - hacker
h7 <- - - hacker
h8 <- - - hacker
h9 <- - - hacker
h10 <- - - hacker
h11 <- - - hacker
h12 <- - - hacker

u2 .> u3: <<include>>
u1 <. u4: <<extends>>

u1 <- - h1 : Threatens
m1 - -> h1 : Mitigates
u1 - -> m1 : <<include>>

u1 <- - h2 : Threatens
m1 - -> h2 : Mitigates
m8 - -> h2 : Mitigates
u1 - -> m8 : <<include>>

u1 <- - h3 : Threatens
m2 - -> h3 : Mitigates
u1 - -> m2 : <<include>>

u1 <- - h4 : Threatens
u2 <- - h4 : Threatens
m3 - -> h4 : Mitigates
m8 - -> h4 : Mitigates
u1 - -> m3 : <<include>>
u2 - -> m3 : <<include>>
u2 - -> m8 : <<include>>

m4 - -> h5 : Mitigates

m4 - -> h6 : Mitigates

u1 <- - h7 : Threatens
u2 <- - h7 : Threatens
m5 - -> h7 : Mitigates
u1 - -> m5 : <<include>>
u2 - -> m5 : <<include>>

m6 - -> h8 : Mitigates

m7 - -> h9 : Mitigates

m4 - -> h10 : Mitigates

u2 <- - h11 : Threatens
m1 - -> h11 : Mitigates
m8 - -> h11 : Mitigates
u2 - -> m1 : <<include>>

m8 - -> h12 : Mitigates


@enduml

PlantUML version 1.2022.7(Mon Aug 22 19:01:30 CEST 2022)
(GPL source distribution)
Java Runtime: OpenJDK Runtime Environment
JVM: OpenJDK 64-Bit Server VM
Default Encoding: Cp1252
Language: en
Country: US
--></g></svg>