<?xml version="1.0" encoding="UTF-8" standalone="no"?><svg xmlns="http://www.w3.org/2000/svg" xmlns:xlink="http://www.w3.org/1999/xlink" contentStyleType="text/css" height="104px" preserveAspectRatio="none" style="width:270px;height:104px;background:#FFFFFF;" version="1.1" viewBox="0 0 270 104" width="270px" zoomAndPan="magnify"><defs/><g><!--MD5=[677de6b3a66eab4fe26e6430158f0459]
class lp--><g id="elem_lp"><rect codeLine="2" fill="#F1F1F1" height="83.2188" id="lp" rx="2.5" ry="2.5" style="stroke:#181818;stroke-width:0.5;" width="249" x="7" y="7"/><ellipse cx="69.75" cy="23" fill="#ADD1B2" rx="11" ry="11" style="stroke:#181818;stroke-width:1.0;"/><path d="M68.6094,23.7969 L68.6094,26.2969 L72.9375,26.2969 L72.9375,25.375 Q72.9375,24.7656 73.1797,24.5 Q73.4219,24.2344 73.7969,24.2344 Q74.1719,24.2344 74.4063,24.5 Q74.6406,24.7656 74.6406,25.375 L74.6406,28 L66.6406,28 Q66.0156,28 65.7578,27.7656 Q65.5,27.5313 65.5,27.1406 Q65.5,26.7656 65.7656,26.5313 Q66.0313,26.2969 66.6406,26.2969 L66.9063,26.2969 L66.9063,19.6406 L66.6406,19.6406 Q66.0156,19.6406 65.7578,19.4063 Q65.5,19.1719 65.5,18.7813 Q65.5,18.4063 65.7578,18.1719 Q66.0156,17.9375 66.6406,17.9375 L74.2656,17.9375 L74.2656,20.5313 Q74.2656,21.1406 74.0391,21.3984 Q73.8125,21.6563 73.4219,21.6563 Q73.0469,21.6563 72.8125,21.3984 Q72.5781,21.1406 72.5781,20.5313 L72.5781,19.6406 L68.6094,19.6406 L68.6094,22.0938 L70.0938,22.0938 Q70.0938,21.4375 70.2188,21.25 Q70.4844,20.8438 70.9531,20.8438 Q71.3281,20.8438 71.5625,21.1016 Q71.7969,21.3594 71.7969,21.9688 L71.7969,23.9375 Q71.7969,24.4844 71.6719,24.6719 Q71.4063,25.0625 70.9531,25.0625 Q70.4844,25.0625 70.2188,24.6563 Q70.0938,24.4688 70.0938,23.7969 L68.6094,23.7969 Z " fill="#000000"/><text fill="#000000" font-family="sans-serif" font-size="14" lengthAdjust="spacing" textLength="115" x="90.25" y="28.7285">LeakedPasswords</text><line style="stroke:#181818;stroke-width:0.5;" x1="8" x2="255" y1="39" y2="39"/><text fill="#000000" font-family="sans-serif" font-size="14" lengthAdjust="spacing" textLength="237" x="13" y="57.5332">lp : HashedPassword nvchar(60) (PK)</text><line style="stroke:#181818;stroke-width:1.0;" x1="8" x2="255" y1="64.6094" y2="64.6094"/><text fill="#000000" font-family="sans-serif" font-size="14" lengthAdjust="spacing" textLength="106" x="13" y="83.1426">lp : PwnCount int</text></g><!--MD5=[a904245e9f708ffe4affd72d8a1bd733]
@startuml LeakedPasswords

entity "LeakedPasswords" as lp {
    lp : HashedPassword nvchar(60) (PK)
    - -
    lp : PwnCount int
}

@enduml

PlantUML version 1.2022.7(Mon Aug 22 19:01:30 CEST 2022)
(GPL source distribution)
Java Runtime: Java(TM) SE Runtime Environment
JVM: Java HotSpot(TM) 64-Bit Server VM
Default Encoding: Cp1252
Language: en
Country: US
--></g></svg>