<?xml version="1.0" encoding="UTF-8" standalone="no"?><svg xmlns="http://www.w3.org/2000/svg" xmlns:xlink="http://www.w3.org/1999/xlink" contentStyleType="text/css" height="104px" preserveAspectRatio="none" style="width:252px;height:104px;background:#FFFFFF;" version="1.1" viewBox="0 0 252 104" width="252px" zoomAndPan="magnify"><defs/><g><!--MD5=[677de6b3a66eab4fe26e6430158f0459]
class lp--><g id="elem_lp"><rect codeLine="2" fill="#F1F1F1" height="83.2188" id="lp" rx="2.5" ry="2.5" style="stroke:#181818;stroke-width:0.5;" width="231" x="7" y="7"/><ellipse cx="60.75" cy="23" fill="#ADD1B2" rx="11" ry="11" style="stroke:#181818;stroke-width:1.0;"/><path d="M59.6094,23.7969 L59.6094,26.2969 L63.9375,26.2969 L63.9375,25.375 Q63.9375,24.7656 64.1797,24.5 Q64.4219,24.2344 64.7969,24.2344 Q65.1719,24.2344 65.4063,24.5 Q65.6406,24.7656 65.6406,25.375 L65.6406,28 L57.6406,28 Q57.0156,28 56.7578,27.7656 Q56.5,27.5313 56.5,27.1406 Q56.5,26.7656 56.7656,26.5313 Q57.0313,26.2969 57.6406,26.2969 L57.9063,26.2969 L57.9063,19.6406 L57.6406,19.6406 Q57.0156,19.6406 56.7578,19.4063 Q56.5,19.1719 56.5,18.7813 Q56.5,18.4063 56.7578,18.1719 Q57.0156,17.9375 57.6406,17.9375 L65.2656,17.9375 L65.2656,20.5313 Q65.2656,21.1406 65.0391,21.3984 Q64.8125,21.6563 64.4219,21.6563 Q64.0469,21.6563 63.8125,21.3984 Q63.5781,21.1406 63.5781,20.5313 L63.5781,19.6406 L59.6094,19.6406 L59.6094,22.0938 L61.0938,22.0938 Q61.0938,21.4375 61.2188,21.25 Q61.4844,20.8438 61.9531,20.8438 Q62.3281,20.8438 62.5625,21.1016 Q62.7969,21.3594 62.7969,21.9688 L62.7969,23.9375 Q62.7969,24.4844 62.6719,24.6719 Q62.4063,25.0625 61.9531,25.0625 Q61.4844,25.0625 61.2188,24.6563 Q61.0938,24.4688 61.0938,23.7969 L59.6094,23.7969 Z " fill="#000000"/><text fill="#000000" font-family="sans-serif" font-size="14" lengthAdjust="spacing" textLength="115" x="81.25" y="28.7285">LeakedPasswords</text><line style="stroke:#181818;stroke-width:0.5;" x1="8" x2="237" y1="39" y2="39"/><text fill="#000000" font-family="sans-serif" font-size="14" lengthAdjust="spacing" textLength="219" x="13" y="57.5332">HashedPassword varchar(80) (PK)</text><line style="stroke:#181818;stroke-width:1.0;" x1="8" x2="237" y1="64.6094" y2="64.6094"/><text fill="#000000" font-family="sans-serif" font-size="14" lengthAdjust="spacing" textLength="83" x="13" y="83.1426">PwnCount int</text></g><!--MD5=[0681c97a3d3b524df633fc13f91033cb]
@startuml LeakedPasswords

entity "LeakedPasswords" as lp{
    HashedPassword varchar(80) (PK)
    - -
    PwnCount int
}

@enduml

PlantUML version 1.2022.7(Mon Aug 22 19:01:30 CEST 2022)
(GPL source distribution)
Java Runtime: Java(TM) SE Runtime Environment
JVM: Java HotSpot(TM) Client VM
Default Encoding: Cp1252
Language: en
Country: US
--></g></svg>