<?xml version="1.0" encoding="UTF-8" standalone="no"?><svg xmlns="http://www.w3.org/2000/svg" xmlns:xlink="http://www.w3.org/1999/xlink" contentStyleType="text/css" height="254px" preserveAspectRatio="none" style="width:753px;height:254px;background:#FFFFFF;" version="1.1" viewBox="0 0 753 254" width="753px" zoomAndPan="magnify"><defs/><g><!--MD5=[c440d0ec62d52438887050ab68cf2994]
class up--><g id="elem_up"><rect codeLine="3" fill="#F1F1F1" height="118.4375" id="up" rx="2.5" ry="2.5" style="stroke:#181818;stroke-width:0.5;" width="207" x="7" y="9"/><ellipse cx="57.75" cy="25" fill="#ADD1B2" rx="11" ry="11" style="stroke:#181818;stroke-width:1.0;"/><path d="M56.6094,25.7969 L56.6094,28.2969 L60.9375,28.2969 L60.9375,27.375 Q60.9375,26.7656 61.1797,26.5 Q61.4219,26.2344 61.7969,26.2344 Q62.1719,26.2344 62.4063,26.5 Q62.6406,26.7656 62.6406,27.375 L62.6406,30 L54.6406,30 Q54.0156,30 53.7578,29.7656 Q53.5,29.5313 53.5,29.1406 Q53.5,28.7656 53.7656,28.5313 Q54.0313,28.2969 54.6406,28.2969 L54.9063,28.2969 L54.9063,21.6406 L54.6406,21.6406 Q54.0156,21.6406 53.7578,21.4063 Q53.5,21.1719 53.5,20.7813 Q53.5,20.4063 53.7578,20.1719 Q54.0156,19.9375 54.6406,19.9375 L62.2656,19.9375 L62.2656,22.5313 Q62.2656,23.1406 62.0391,23.3984 Q61.8125,23.6563 61.4219,23.6563 Q61.0469,23.6563 60.8125,23.3984 Q60.5781,23.1406 60.5781,22.5313 L60.5781,21.6406 L56.6094,21.6406 L56.6094,24.0938 L58.0938,24.0938 Q58.0938,23.4375 58.2188,23.25 Q58.4844,22.8438 58.9531,22.8438 Q59.3281,22.8438 59.5625,23.1016 Q59.7969,23.3594 59.7969,23.9688 L59.7969,25.9375 Q59.7969,26.4844 59.6719,26.6719 Q59.4063,27.0625 58.9531,27.0625 Q58.4844,27.0625 58.2188,26.6563 Q58.0938,26.4688 58.0938,25.7969 L56.6094,25.7969 Z " fill="#000000"/><text fill="#000000" font-family="sans-serif" font-size="14" lengthAdjust="spacing" textLength="97" x="78.25" y="30.7285">UserPasswords</text><line style="stroke:#181818;stroke-width:0.5;" x1="8" x2="213" y1="41" y2="41"/><text fill="#000000" font-family="sans-serif" font-size="14" lengthAdjust="spacing" textLength="64" x="13" y="59.5332">ID int (PK)</text><text fill="#000000" font-family="sans-serif" font-size="14" lengthAdjust="spacing" textLength="100" x="13" y="77.1426">UsersID int (FK)</text><line style="stroke:#181818;stroke-width:1.0;" x1="8" x2="213" y1="84.2188" y2="84.2188"/><text fill="#000000" font-family="sans-serif" font-size="14" lengthAdjust="spacing" textLength="195" x="13" y="102.752">HashedPassword varchar(200)</text><text fill="#000000" font-family="sans-serif" font-size="14" lengthAdjust="spacing" textLength="110" x="13" y="120.3613">Salt varchar(200)</text></g><!--MD5=[09a5b4adb0ee554eafb73b413209c7bf]
class Users--><g id="elem_Users"><rect codeLine="11" fill="#F1F1F1" height="224.0938" id="Users" rx="2.5" ry="2.5" style="stroke:#181818;stroke-width:0.5;" width="216" x="290" y="23.5"/><ellipse cx="375.75" cy="39.5" fill="#ADD1B2" rx="11" ry="11" style="stroke:#181818;stroke-width:1.0;"/><path d="M374.6094,40.2969 L374.6094,42.7969 L378.9375,42.7969 L378.9375,41.875 Q378.9375,41.2656 379.1797,41 Q379.4219,40.7344 379.7969,40.7344 Q380.1719,40.7344 380.4063,41 Q380.6406,41.2656 380.6406,41.875 L380.6406,44.5 L372.6406,44.5 Q372.0156,44.5 371.7578,44.2656 Q371.5,44.0313 371.5,43.6406 Q371.5,43.2656 371.7656,43.0313 Q372.0313,42.7969 372.6406,42.7969 L372.9063,42.7969 L372.9063,36.1406 L372.6406,36.1406 Q372.0156,36.1406 371.7578,35.9063 Q371.5,35.6719 371.5,35.2813 Q371.5,34.9063 371.7578,34.6719 Q372.0156,34.4375 372.6406,34.4375 L380.2656,34.4375 L380.2656,37.0313 Q380.2656,37.6406 380.0391,37.8984 Q379.8125,38.1563 379.4219,38.1563 Q379.0469,38.1563 378.8125,37.8984 Q378.5781,37.6406 378.5781,37.0313 L378.5781,36.1406 L374.6094,36.1406 L374.6094,38.5938 L376.0938,38.5938 Q376.0938,37.9375 376.2188,37.75 Q376.4844,37.3438 376.9531,37.3438 Q377.3281,37.3438 377.5625,37.6016 Q377.7969,37.8594 377.7969,38.4688 L377.7969,40.4375 Q377.7969,40.9844 377.6719,41.1719 Q377.4063,41.5625 376.9531,41.5625 Q376.4844,41.5625 376.2188,41.1563 Q376.0938,40.9688 376.0938,40.2969 L374.6094,40.2969 Z " fill="#000000"/><text fill="#000000" font-family="sans-serif" font-size="14" lengthAdjust="spacing" textLength="36" x="396.25" y="45.2285">Users</text><line style="stroke:#181818;stroke-width:0.5;" x1="291" x2="505" y1="55.5" y2="55.5"/><text fill="#000000" font-family="sans-serif" font-size="14" lengthAdjust="spacing" textLength="64" x="296" y="74.0332">ID int (PK)</text><line style="stroke:#181818;stroke-width:1.0;" x1="291" x2="505" y1="81.1094" y2="81.1094"/><text fill="#000000" font-family="sans-serif" font-size="14" lengthAdjust="spacing" textLength="120" x="296" y="99.6426">Email varchar(100)</text><text fill="#000000" font-family="sans-serif" font-size="14" lengthAdjust="spacing" textLength="204" x="296" y="117.252">HashedVerification varchar(200)</text><text fill="#000000" font-family="sans-serif" font-size="14" lengthAdjust="spacing" textLength="77" x="296" y="134.8613">IsVerified bit</text><text fill="#000000" font-family="sans-serif" font-size="14" lengthAdjust="spacing" textLength="142" x="296" y="152.4707">FirstName varchar(50)</text><text fill="#000000" font-family="sans-serif" font-size="14" lengthAdjust="spacing" textLength="141" x="296" y="170.0801">LastName varchar(50)</text><text fill="#000000" font-family="sans-serif" font-size="14" lengthAdjust="spacing" textLength="168" x="296" y="187.6895">PhoneNumber varcher(20)</text><text fill="#000000" font-family="sans-serif" font-size="14" lengthAdjust="spacing" textLength="90" x="296" y="205.2988">FailedTries int</text><text fill="#000000" font-family="sans-serif" font-size="14" lengthAdjust="spacing" textLength="75" x="296" y="222.9082">IsLocked bit</text><text fill="#000000" font-family="sans-serif" font-size="14" lengthAdjust="spacing" textLength="134" x="296" y="240.5176">LockedDate datetime</text></g><!--MD5=[07e4f24bf6e57ed64741ef994efa961d]
class vul--><g id="elem_vul"><rect codeLine="24" fill="#F1F1F1" height="153.6563" id="vul" rx="2.5" ry="2.5" style="stroke:#181818;stroke-width:0.5;" width="164" x="582" y="7"/><ellipse cx="619.05" cy="23" fill="#ADD1B2" rx="11" ry="11" style="stroke:#181818;stroke-width:1.0;"/><path d="M617.9094,23.7969 L617.9094,26.2969 L622.2375,26.2969 L622.2375,25.375 Q622.2375,24.7656 622.4797,24.5 Q622.7219,24.2344 623.0969,24.2344 Q623.4719,24.2344 623.7063,24.5 Q623.9406,24.7656 623.9406,25.375 L623.9406,28 L615.9406,28 Q615.3156,28 615.0578,27.7656 Q614.8,27.5313 614.8,27.1406 Q614.8,26.7656 615.0656,26.5313 Q615.3313,26.2969 615.9406,26.2969 L616.2063,26.2969 L616.2063,19.6406 L615.9406,19.6406 Q615.3156,19.6406 615.0578,19.4063 Q614.8,19.1719 614.8,18.7813 Q614.8,18.4063 615.0578,18.1719 Q615.3156,17.9375 615.9406,17.9375 L623.5656,17.9375 L623.5656,20.5313 Q623.5656,21.1406 623.3391,21.3984 Q623.1125,21.6563 622.7219,21.6563 Q622.3469,21.6563 622.1125,21.3984 Q621.8781,21.1406 621.8781,20.5313 L621.8781,19.6406 L617.9094,19.6406 L617.9094,22.0938 L619.3938,22.0938 Q619.3938,21.4375 619.5188,21.25 Q619.7844,20.8438 620.2531,20.8438 Q620.6281,20.8438 620.8625,21.1016 Q621.0969,21.3594 621.0969,21.9688 L621.0969,23.9375 Q621.0969,24.4844 620.9719,24.6719 Q620.7063,25.0625 620.2531,25.0625 Q619.7844,25.0625 619.5188,24.6563 Q619.3938,24.4688 619.3938,23.7969 L617.9094,23.7969 Z " fill="#000000"/><text fill="#000000" font-family="sans-serif" font-size="14" lengthAdjust="spacing" textLength="83" x="637.95" y="28.7285">UserLocation</text><line style="stroke:#181818;stroke-width:0.5;" x1="583" x2="745" y1="39" y2="39"/><text fill="#000000" font-family="sans-serif" font-size="14" lengthAdjust="spacing" textLength="64" x="588" y="57.5332">ID int (PK)</text><text fill="#000000" font-family="sans-serif" font-size="14" lengthAdjust="spacing" textLength="68" x="588" y="75.1426">UsersID int</text><line style="stroke:#181818;stroke-width:1.0;" x1="583" x2="745" y1="82.2188" y2="82.2188"/><text fill="#000000" font-family="sans-serif" font-size="14" lengthAdjust="spacing" textLength="77" x="588" y="100.752">IP string(50)</text><text fill="#000000" font-family="sans-serif" font-size="14" lengthAdjust="spacing" textLength="152" x="588" y="118.3613">UserAgent varchar(256)</text><text fill="#000000" font-family="sans-serif" font-size="14" lengthAdjust="spacing" textLength="87" x="588" y="135.9707">Successful bit</text><text fill="#000000" font-family="sans-serif" font-size="14" lengthAdjust="spacing" textLength="131" x="588" y="153.5801">CreateDate datetime</text></g><!--MD5=[7580b634bffd886b36ac37643de085ea]
link Users to vul--><g id="link_Users_vul"><path codeLine="34" d="M507,68 C539.89,68 548.11,68 581,68 " fill="none" id="Users-vul" style="stroke:#181818;stroke-width:1.0;"/><text fill="#000000" font-family="sans-serif" font-size="13" lengthAdjust="spacing" textLength="7" x="537.8086" y="78.2483">1</text><text fill="#000000" font-family="sans-serif" font-size="13" lengthAdjust="spacing" textLength="5" x="568.9195" y="80.8614">*</text></g><!--MD5=[c7190fd7402f7f6abf89e286247c61d6]
link up to Users--><g id="link_up_Users"><path codeLine="36" d="M222.28,68 C244.38,68 267.43,68 289,68 " fill="none" id="up-Users" style="stroke:#181818;stroke-width:1.0;"/><text fill="#000000" font-family="sans-serif" font-size="13" lengthAdjust="spacing" textLength="7" x="222.28" y="81.4951">1</text><text fill="#000000" font-family="sans-serif" font-size="13" lengthAdjust="spacing" textLength="7" x="275.1445" y="77.8772">1</text></g><!--MD5=[906b123698b174a3db9cabd01e861a04]
@startuml ERD
left to right direction

entity "UserPasswords" as up{
    ID int (PK)
    UsersID int (FK)
    - -
    HashedPassword varchar(200)
    Salt varchar(200)
}

entity Users {
    ID int (PK)
    - -
    Email varchar(100)
    HashedVerification varchar(200)
    IsVerified bit
    FirstName varchar(50)
    LastName varchar(50)
    PhoneNumber varcher(20)
    FailedTries int
    IsLocked bit
    LockedDate datetime
}
entity "UserLocation" as vul {
    ID int (PK)
    UsersID int
    - -
    IP string(50)
    UserAgent varchar(256)
    Successful bit
    CreateDate datetime
}

Users::ID"      1" - - "*"vul::UsersID

up::UserID"1" - - "1"Users::ID


@enduml

PlantUML version 1.2022.7(Mon Aug 22 19:01:30 CEST 2022)
(GPL source distribution)
Java Runtime: Java(TM) SE Runtime Environment
JVM: Java HotSpot(TM) 64-Bit Server VM
Default Encoding: Cp1252
Language: en
Country: US
--></g></svg>