<?xml version="1.0" encoding="UTF-8" standalone="no"?><svg xmlns="http://www.w3.org/2000/svg" xmlns:xlink="http://www.w3.org/1999/xlink" contentStyleType="text/css" height="327px" preserveAspectRatio="none" style="width:759px;height:327px;background:#FFFFFF;" version="1.1" viewBox="0 0 759 327" width="759px" zoomAndPan="magnify"><defs/><g><!--MD5=[c440d0ec62d52438887050ab68cf2994]
class up--><g id="elem_up"><rect codeLine="3" fill="#F1F1F1" height="118.4375" id="up" rx="2.5" ry="2.5" style="stroke:#181818;stroke-width:0.5;" width="207" x="7" y="9"/><ellipse cx="57.75" cy="25" fill="#ADD1B2" rx="11" ry="11" style="stroke:#181818;stroke-width:1.0;"/><path d="M56.6094,25.7969 L56.6094,28.2969 L60.9375,28.2969 L60.9375,27.375 Q60.9375,26.7656 61.1797,26.5 Q61.4219,26.2344 61.7969,26.2344 Q62.1719,26.2344 62.4063,26.5 Q62.6406,26.7656 62.6406,27.375 L62.6406,30 L54.6406,30 Q54.0156,30 53.7578,29.7656 Q53.5,29.5313 53.5,29.1406 Q53.5,28.7656 53.7656,28.5313 Q54.0313,28.2969 54.6406,28.2969 L54.9063,28.2969 L54.9063,21.6406 L54.6406,21.6406 Q54.0156,21.6406 53.7578,21.4063 Q53.5,21.1719 53.5,20.7813 Q53.5,20.4063 53.7578,20.1719 Q54.0156,19.9375 54.6406,19.9375 L62.2656,19.9375 L62.2656,22.5313 Q62.2656,23.1406 62.0391,23.3984 Q61.8125,23.6563 61.4219,23.6563 Q61.0469,23.6563 60.8125,23.3984 Q60.5781,23.1406 60.5781,22.5313 L60.5781,21.6406 L56.6094,21.6406 L56.6094,24.0938 L58.0938,24.0938 Q58.0938,23.4375 58.2188,23.25 Q58.4844,22.8438 58.9531,22.8438 Q59.3281,22.8438 59.5625,23.1016 Q59.7969,23.3594 59.7969,23.9688 L59.7969,25.9375 Q59.7969,26.4844 59.6719,26.6719 Q59.4063,27.0625 58.9531,27.0625 Q58.4844,27.0625 58.2188,26.6563 Q58.0938,26.4688 58.0938,25.7969 L56.6094,25.7969 Z " fill="#000000"/><text fill="#000000" font-family="sans-serif" font-size="14" lengthAdjust="spacing" textLength="97" x="78.25" y="30.7285">UserPasswords</text><line style="stroke:#181818;stroke-width:0.5;" x1="8" x2="213" y1="41" y2="41"/><text fill="#000000" font-family="sans-serif" font-size="14" lengthAdjust="spacing" textLength="64" x="13" y="59.5332">ID int (PK)</text><text fill="#000000" font-family="sans-serif" font-size="14" lengthAdjust="spacing" textLength="100" x="13" y="77.1426">UsersID int (FK)</text><line style="stroke:#181818;stroke-width:1.0;" x1="8" x2="213" y1="84.2188" y2="84.2188"/><text fill="#000000" font-family="sans-serif" font-size="14" lengthAdjust="spacing" textLength="195" x="13" y="102.752">HashedPassword varchar(200)</text><text fill="#000000" font-family="sans-serif" font-size="14" lengthAdjust="spacing" textLength="110" x="13" y="120.3613">Salt varchar(200)</text></g><!--MD5=[09a5b4adb0ee554eafb73b413209c7bf]
class Users--><g id="elem_Users"><rect codeLine="11" fill="#F1F1F1" height="171.2656" id="Users" rx="2.5" ry="2.5" style="stroke:#181818;stroke-width:0.5;" width="216" x="290" y="24"/><ellipse cx="375.75" cy="40" fill="#ADD1B2" rx="11" ry="11" style="stroke:#181818;stroke-width:1.0;"/><path d="M374.6094,40.7969 L374.6094,43.2969 L378.9375,43.2969 L378.9375,42.375 Q378.9375,41.7656 379.1797,41.5 Q379.4219,41.2344 379.7969,41.2344 Q380.1719,41.2344 380.4063,41.5 Q380.6406,41.7656 380.6406,42.375 L380.6406,45 L372.6406,45 Q372.0156,45 371.7578,44.7656 Q371.5,44.5313 371.5,44.1406 Q371.5,43.7656 371.7656,43.5313 Q372.0313,43.2969 372.6406,43.2969 L372.9063,43.2969 L372.9063,36.6406 L372.6406,36.6406 Q372.0156,36.6406 371.7578,36.4063 Q371.5,36.1719 371.5,35.7813 Q371.5,35.4063 371.7578,35.1719 Q372.0156,34.9375 372.6406,34.9375 L380.2656,34.9375 L380.2656,37.5313 Q380.2656,38.1406 380.0391,38.3984 Q379.8125,38.6563 379.4219,38.6563 Q379.0469,38.6563 378.8125,38.3984 Q378.5781,38.1406 378.5781,37.5313 L378.5781,36.6406 L374.6094,36.6406 L374.6094,39.0938 L376.0938,39.0938 Q376.0938,38.4375 376.2188,38.25 Q376.4844,37.8438 376.9531,37.8438 Q377.3281,37.8438 377.5625,38.1016 Q377.7969,38.3594 377.7969,38.9688 L377.7969,40.9375 Q377.7969,41.4844 377.6719,41.6719 Q377.4063,42.0625 376.9531,42.0625 Q376.4844,42.0625 376.2188,41.6563 Q376.0938,41.4688 376.0938,40.7969 L374.6094,40.7969 Z " fill="#000000"/><text fill="#000000" font-family="sans-serif" font-size="14" lengthAdjust="spacing" textLength="36" x="396.25" y="45.7285">Users</text><line style="stroke:#181818;stroke-width:0.5;" x1="291" x2="505" y1="56" y2="56"/><text fill="#000000" font-family="sans-serif" font-size="14" lengthAdjust="spacing" textLength="64" x="296" y="74.5332">ID int (PK)</text><line style="stroke:#181818;stroke-width:1.0;" x1="291" x2="505" y1="81.6094" y2="81.6094"/><text fill="#000000" font-family="sans-serif" font-size="14" lengthAdjust="spacing" textLength="120" x="296" y="100.1426">Email varchar(100)</text><text fill="#000000" font-family="sans-serif" font-size="14" lengthAdjust="spacing" textLength="204" x="296" y="117.752">HashedVerification varchar(200)</text><text fill="#000000" font-family="sans-serif" font-size="14" lengthAdjust="spacing" textLength="113" x="296" y="135.3613">IsVerified boolean</text><text fill="#000000" font-family="sans-serif" font-size="14" lengthAdjust="spacing" textLength="142" x="296" y="152.9707">FirstName varchar(50)</text><text fill="#000000" font-family="sans-serif" font-size="14" lengthAdjust="spacing" textLength="141" x="296" y="170.5801">LastName varchar(50)</text><text fill="#000000" font-family="sans-serif" font-size="14" lengthAdjust="spacing" textLength="168" x="296" y="188.1895">PhoneNumber varcher(20)</text></g><!--MD5=[07e4f24bf6e57ed64741ef994efa961d]
class vul--><g id="elem_vul"><rect codeLine="21" fill="#F1F1F1" height="136.0469" id="vul" rx="2.5" ry="2.5" style="stroke:#181818;stroke-width:0.5;" width="170" x="582" y="7"/><ellipse cx="597" cy="23" fill="#ADD1B2" rx="11" ry="11" style="stroke:#181818;stroke-width:1.0;"/><path d="M595.8594,23.7969 L595.8594,26.2969 L600.1875,26.2969 L600.1875,25.375 Q600.1875,24.7656 600.4297,24.5 Q600.6719,24.2344 601.0469,24.2344 Q601.4219,24.2344 601.6563,24.5 Q601.8906,24.7656 601.8906,25.375 L601.8906,28 L593.8906,28 Q593.2656,28 593.0078,27.7656 Q592.75,27.5313 592.75,27.1406 Q592.75,26.7656 593.0156,26.5313 Q593.2813,26.2969 593.8906,26.2969 L594.1563,26.2969 L594.1563,19.6406 L593.8906,19.6406 Q593.2656,19.6406 593.0078,19.4063 Q592.75,19.1719 592.75,18.7813 Q592.75,18.4063 593.0078,18.1719 Q593.2656,17.9375 593.8906,17.9375 L601.5156,17.9375 L601.5156,20.5313 Q601.5156,21.1406 601.2891,21.3984 Q601.0625,21.6563 600.6719,21.6563 Q600.2969,21.6563 600.0625,21.3984 Q599.8281,21.1406 599.8281,20.5313 L599.8281,19.6406 L595.8594,19.6406 L595.8594,22.0938 L597.3438,22.0938 Q597.3438,21.4375 597.4688,21.25 Q597.7344,20.8438 598.2031,20.8438 Q598.5781,20.8438 598.8125,21.1016 Q599.0469,21.3594 599.0469,21.9688 L599.0469,23.9375 Q599.0469,24.4844 598.9219,24.6719 Q598.6563,25.0625 598.2031,25.0625 Q597.7344,25.0625 597.4688,24.6563 Q597.3438,24.4688 597.3438,23.7969 L595.8594,23.7969 Z " fill="#000000"/><text fill="#000000" font-family="sans-serif" font-size="14" lengthAdjust="spacing" textLength="138" x="611" y="28.7285">VerifiedUserLocations</text><line style="stroke:#181818;stroke-width:0.5;" x1="583" x2="751" y1="39" y2="39"/><text fill="#000000" font-family="sans-serif" font-size="14" lengthAdjust="spacing" textLength="64" x="588" y="57.5332">ID int (PK)</text><text fill="#000000" font-family="sans-serif" font-size="14" lengthAdjust="spacing" textLength="100" x="588" y="75.1426">UsersID int (FK)</text><line style="stroke:#181818;stroke-width:1.0;" x1="583" x2="751" y1="82.2188" y2="82.2188"/><text fill="#000000" font-family="sans-serif" font-size="14" lengthAdjust="spacing" textLength="81" x="588" y="100.752">IP binary(16)</text><text fill="#000000" font-family="sans-serif" font-size="14" lengthAdjust="spacing" textLength="75" x="588" y="118.3613">IPType byte</text><text fill="#000000" font-family="sans-serif" font-size="14" lengthAdjust="spacing" textLength="152" x="588" y="135.9707">UserAgent varchar(256)</text></g><!--MD5=[8281ac038f47a4bc5c79e57c7ea9f7a2]
class ur--><g id="elem_ur"><rect codeLine="30" fill="#F1F1F1" height="83.2188" id="ur" rx="2.5" ry="2.5" style="stroke:#181818;stroke-width:0.5;" width="112" x="611" y="202"/><ellipse cx="626" cy="218" fill="#ADD1B2" rx="11" ry="11" style="stroke:#181818;stroke-width:1.0;"/><path d="M624.8594,218.7969 L624.8594,221.2969 L629.1875,221.2969 L629.1875,220.375 Q629.1875,219.7656 629.4297,219.5 Q629.6719,219.2344 630.0469,219.2344 Q630.4219,219.2344 630.6563,219.5 Q630.8906,219.7656 630.8906,220.375 L630.8906,223 L622.8906,223 Q622.2656,223 622.0078,222.7656 Q621.75,222.5313 621.75,222.1406 Q621.75,221.7656 622.0156,221.5313 Q622.2813,221.2969 622.8906,221.2969 L623.1563,221.2969 L623.1563,214.6406 L622.8906,214.6406 Q622.2656,214.6406 622.0078,214.4063 Q621.75,214.1719 621.75,213.7813 Q621.75,213.4063 622.0078,213.1719 Q622.2656,212.9375 622.8906,212.9375 L630.5156,212.9375 L630.5156,215.5313 Q630.5156,216.1406 630.2891,216.3984 Q630.0625,216.6563 629.6719,216.6563 Q629.2969,216.6563 629.0625,216.3984 Q628.8281,216.1406 628.8281,215.5313 L628.8281,214.6406 L624.8594,214.6406 L624.8594,217.0938 L626.3438,217.0938 Q626.3438,216.4375 626.4688,216.25 Q626.7344,215.8438 627.2031,215.8438 Q627.5781,215.8438 627.8125,216.1016 Q628.0469,216.3594 628.0469,216.9688 L628.0469,218.9375 Q628.0469,219.4844 627.9219,219.6719 Q627.6563,220.0625 627.2031,220.0625 Q626.7344,220.0625 626.4688,219.6563 Q626.3438,219.4688 626.3438,218.7969 L624.8594,218.7969 Z " fill="#000000"/><text fill="#000000" font-family="sans-serif" font-size="14" lengthAdjust="spacing" textLength="80" x="640" y="223.7285">Users_Roles</text><line style="stroke:#181818;stroke-width:0.5;" x1="612" x2="722" y1="234" y2="234"/><text fill="#000000" font-family="sans-serif" font-size="14" lengthAdjust="spacing" textLength="100" x="617" y="252.5332">UsersID int (FK)</text><text fill="#000000" font-family="sans-serif" font-size="14" lengthAdjust="spacing" textLength="100" x="617" y="270.1426">RolesID int (FK)</text><line style="stroke:#181818;stroke-width:1.0;" x1="612" x2="722" y1="277.2188" y2="277.2188"/></g><!--MD5=[d880429f06877f77d04df3530938df96]
class Roles--><g id="elem_Roles"><rect codeLine="36" fill="#F1F1F1" height="83.2188" id="Roles" rx="2.5" ry="2.5" style="stroke:#181818;stroke-width:0.5;" width="126" x="335" y="237"/><ellipse cx="376.1" cy="253" fill="#ADD1B2" rx="11" ry="11" style="stroke:#181818;stroke-width:1.0;"/><path d="M374.9594,253.7969 L374.9594,256.2969 L379.2875,256.2969 L379.2875,255.375 Q379.2875,254.7656 379.5297,254.5 Q379.7719,254.2344 380.1469,254.2344 Q380.5219,254.2344 380.7563,254.5 Q380.9906,254.7656 380.9906,255.375 L380.9906,258 L372.9906,258 Q372.3656,258 372.1078,257.7656 Q371.85,257.5313 371.85,257.1406 Q371.85,256.7656 372.1156,256.5313 Q372.3813,256.2969 372.9906,256.2969 L373.2563,256.2969 L373.2563,249.6406 L372.9906,249.6406 Q372.3656,249.6406 372.1078,249.4063 Q371.85,249.1719 371.85,248.7813 Q371.85,248.4063 372.1078,248.1719 Q372.3656,247.9375 372.9906,247.9375 L380.6156,247.9375 L380.6156,250.5313 Q380.6156,251.1406 380.3891,251.3984 Q380.1625,251.6563 379.7719,251.6563 Q379.3969,251.6563 379.1625,251.3984 Q378.9281,251.1406 378.9281,250.5313 L378.9281,249.6406 L374.9594,249.6406 L374.9594,252.0938 L376.4438,252.0938 Q376.4438,251.4375 376.5688,251.25 Q376.8344,250.8438 377.3031,250.8438 Q377.6781,250.8438 377.9125,251.1016 Q378.1469,251.3594 378.1469,251.9688 L378.1469,253.9375 Q378.1469,254.4844 378.0219,254.6719 Q377.7563,255.0625 377.3031,255.0625 Q376.8344,255.0625 376.5688,254.6563 Q376.4438,254.4688 376.4438,253.7969 L374.9594,253.7969 Z " fill="#000000"/><text fill="#000000" font-family="sans-serif" font-size="14" lengthAdjust="spacing" textLength="36" x="395.9" y="258.7285">Roles</text><line style="stroke:#181818;stroke-width:0.5;" x1="336" x2="460" y1="269" y2="269"/><text fill="#000000" font-family="sans-serif" font-size="14" lengthAdjust="spacing" textLength="64" x="341" y="287.5332">ID int (PK)</text><line style="stroke:#181818;stroke-width:1.0;" x1="336" x2="460" y1="294.6094" y2="294.6094"/><text fill="#000000" font-family="sans-serif" font-size="14" lengthAdjust="spacing" textLength="114" x="341" y="313.1426">Name varchar(50)</text></g><!--MD5=[53cecbcd42bab5beb58cbd342cf11955]
link Users to ur--><g id="link_Users_ur"><path codeLine="42" d="M507,68 C598.79,68 518.21,247 610,247 " fill="none" id="Users-ur" style="stroke:#181818;stroke-width:1.0;"/><text fill="#000000" font-family="sans-serif" font-size="13" lengthAdjust="spacing" textLength="7" x="537.8086" y="62.7904">1</text><text fill="#000000" font-family="sans-serif" font-size="13" lengthAdjust="spacing" textLength="5" x="598.1203" y="261.8325">*</text></g><!--MD5=[7f7be4dff37132cd7a40cf15801652a6]
link Roles to ur--><g id="link_Roles_ur"><path codeLine="43" d="M462,282 C528.26,282 543.74,264 610,264 " fill="none" id="Roles-ur" style="stroke:#181818;stroke-width:1.0;"/><text fill="#000000" font-family="sans-serif" font-size="13" lengthAdjust="spacing" textLength="7" x="468.9906" y="298.1698">1</text><text fill="#000000" font-family="sans-serif" font-size="13" lengthAdjust="spacing" textLength="5" x="598.1203" y="280.7981">*</text></g><!--MD5=[7580b634bffd886b36ac37643de085ea]
link Users to vul--><g id="link_Users_vul"><path codeLine="45" d="M507,68 C539.89,68 548.11,68 581,68 " fill="none" id="Users-vul" style="stroke:#181818;stroke-width:1.0;"/><text fill="#000000" font-family="sans-serif" font-size="13" lengthAdjust="spacing" textLength="7" x="537.8086" y="79.6654">1</text><text fill="#000000" font-family="sans-serif" font-size="13" lengthAdjust="spacing" textLength="5" x="568.9477" y="81.5869">*</text></g><!--MD5=[c7190fd7402f7f6abf89e286247c61d6]
link up to Users--><g id="link_up_Users"><path codeLine="47" d="M222.28,68 C244.38,68 267.43,68 289,68 " fill="none" id="up-Users" style="stroke:#181818;stroke-width:1.0;"/><text fill="#000000" font-family="sans-serif" font-size="13" lengthAdjust="spacing" textLength="7" x="222.28" y="81.4951">1</text><text fill="#000000" font-family="sans-serif" font-size="13" lengthAdjust="spacing" textLength="7" x="275.1445" y="79.4563">1</text></g><!--MD5=[d0a89c26fa584925a3977dc1ed4fbe0a]
@startuml ERD
left to right direction

entity "UserPasswords" as up{
    ID int (PK)
    UsersID int (FK)
    - -
    HashedPassword varchar(200)
    Salt varchar(200)
}

entity Users {
    ID int (PK)
    - -
    Email varchar(100)
    HashedVerification varchar(200)
    IsVerified boolean
    FirstName varchar(50)
    LastName varchar(50)
    PhoneNumber varcher(20)
}
entity "VerifiedUserLocations" as vul {
    ID int (PK)
    UsersID int (FK)
    - -
    IP binary(16)
    IPType byte
    UserAgent varchar(256)
}

entity "Users_Roles" as ur {
    UsersID int (FK)
    RolesID int (FK)
    - -
}

entity Roles {
    ID int (PK)
    - -
    Name varchar(50)
}

Users::ID"      1" - - "*"ur::UsersID
Roles::ID"1" - - "*"ur::RolesID

Users::ID"      1" - - "*"vul::UsersID

up::UserID"1" - - "1"Users::ID


@enduml

PlantUML version 1.2022.7(Mon Aug 22 19:01:30 CEST 2022)
(GPL source distribution)
Java Runtime: Java(TM) SE Runtime Environment
JVM: Java HotSpot(TM) 64-Bit Server VM
Default Encoding: Cp1252
Language: en
Country: US
--></g></svg>